<svg width="531" height="143" viewBox="0 0 531 143" fill="none" xmlns="http://www.w3.org/2000/svg">
<path d="M256.298 4.47058C256.221 3.00927 256.145 1.54796 256.068 0.0866516C245.741 0.57025 235.262 0.561573 224.828 0.570269C223.984 0.569442 223.138 0.5678 222.289 0.565416C213.17 0.529613 204.02 0.327384 194.856 0.220371C194.235 0.213174 193.611 0.206319 192.983 0.200021C191.945 0.189613 190.907 0.180732 189.867 0.175006C184.492 0.128898 179.082 0.244841 173.751 0.381222C171.523 0.435301 169.317 0.485266 167.079 0.531146C152.469 0.822698 137.819 0.996859 123.191 1.11138C119.595 1.13877 116.006 1.16332 112.409 1.18383C97.9344 1.26578 83.4585 1.28286 68.9731 1.27613C63.9035 1.27434 58.8354 1.2738 53.7718 1.28833C47.3988 1.31617 41.0514 1.39631 34.6478 1.87926C28.7209 2.29209 22.6059 3.4523 16.9781 5.37235C16.9057 5.39567 16.8336 5.41954 16.7616 5.44395C11.8023 7.20835 8.47385 10.8784 5.4176 14.2893C4.9325 14.842 4.45675 15.3983 3.98704 15.9557C1.25053 19.7028 1.54599 23.2961 0.921918 26.6734C0.113283 32.4641 0.474147 38.3298 1.14169 43.9524C1.32831 45.5877 1.5293 47.2083 1.70335 48.8165C2.29272 54.7444 2.45673 60.8499 2.37117 66.8546C2.36207 67.3304 2.34942 67.7969 2.33261 68.2717C2.1561 73.3835 1.42987 78.5936 1.07712 83.8669C0.898916 86.3374 0.758828 88.8094 0.636246 91.2766C0.365515 96.8074 0.162568 102.336 0.0176237 107.866C-0.126412 113.196 0.555458 119.159 3.99323 123.875C4.42848 124.488 4.89294 125.073 5.37422 125.632C10.6011 130.913 16.3814 134.412 22.7254 137.555C22.9453 137.658 23.1728 137.758 23.3957 137.852C31.0403 140.658 38.4518 140.183 45.8134 140.611C47.9925 140.683 50.1718 140.747 52.3453 140.81C60.7031 141.042 69.0298 141.161 77.3398 141.447C79.5716 141.523 81.8068 141.611 84.0307 141.719C90.2384 142.026 96.4633 142.135 102.661 142.158C113.769 142.194 124.838 142.005 135.938 141.77C140.807 141.665 145.727 141.545 150.609 141.42C186.777 140.459 222.909 139.588 259.073 139.273C260.878 139.257 262.7 139.242 264.514 139.228C310.689 138.868 356.876 139.279 403.108 139.124C405.028 139.115 407.01 139.104 408.916 139.092C427.355 138.958 445.81 138.693 464.264 137.782C467.849 137.602 471.437 137.388 475.006 137.151C482.215 136.666 489.427 136.195 496.68 135.343C501.039 134.807 505.419 134.174 509.807 132.854C512.31 132.041 515.466 131.77 518.528 130.03C521.531 128.32 523.5 125.607 525.033 123.001C525.759 121.718 526.046 120.6 526.342 119.475C527.15 116.084 527.455 112.827 527.492 109.423C527.73 104.663 528.607 99.0993 528.892 93.8815C528.97 92.757 529.039 91.6321 529.104 90.4976C529.872 76.036 530.348 61.5986 530.639 47.1303C530.702 43.191 530.733 39.2896 530.572 35.3017C530.431 31.6475 530.025 27.7812 529.045 24.1703C527.565 18.3212 523.681 12.3758 517.371 10.2437C516.894 10.08 516.415 9.92118 515.936 9.76653C508.859 7.49781 501.597 6.08387 494.308 5.14451C493.584 5.05489 492.923 5.0177 492.268 4.98329C486.747 4.76347 481.418 4.76099 476.063 4.45107C474.799 4.38085 473.539 4.29577 472.284 4.19163C467.428 3.78471 462.581 3.50924 457.746 3.25864C453.495 3.04174 449.242 2.84228 444.995 2.64623C440.825 2.45498 436.647 2.30965 432.47 2.17874C413.861 1.61394 395.256 1.28932 376.654 1.08479C374.202 1.05876 371.73 1.0302 369.275 1.00063C352.669 0.800372 336.051 0.484236 319.437 0.23601C310.368 0.106314 301.297 -0.0239701 292.227 0.00377274C291.699 0.00595093 291.185 0.00795436 290.685 0.0097928C283.557 0.0450249 276.567 0.163554 269.37 0.14786C269.177 0.150726 268.985 0.15432 268.789 0.158674C264.717 0.211512 260.39 0.0616219 256.146 0.157446C256.171 1.57156 256.195 2.98567 256.22 4.39979C260.412 4.30381 264.522 4.45311 268.884 4.39866C269.069 4.39452 269.251 4.39113 269.433 4.38843C276.429 4.40491 283.602 4.59413 290.701 4.55939C291.203 4.55758 291.717 4.55561 292.245 4.55346C301.245 4.5264 310.312 4.65684 319.369 4.78705C335.969 5.03613 352.594 5.35331 369.22 5.55383C371.678 5.58344 374.154 5.60922 376.61 5.63014C395.195 5.79561 413.792 5.94942 432.347 6.42971C436.51 6.54157 440.672 6.67273 444.808 6.84822C449.053 7.0296 453.304 7.21382 457.544 7.40883C462.371 7.63458 467.184 7.83768 471.968 8.19962C473.263 8.2965 474.557 8.37544 475.848 8.44268C481.295 8.73839 486.78 8.72978 492.068 8.94146C492.673 8.97233 493.296 9.0118 493.807 9.07606C500.901 9.99044 507.962 11.3828 514.714 13.5524C515.171 13.7002 515.626 13.8517 516.08 14.0075C520.71 15.5393 523.925 20.175 525.183 25.1574C526.092 28.5349 526.443 31.9065 526.586 35.4692C526.742 39.3065 526.714 43.1637 526.651 47.0621C526.362 61.4502 525.886 75.9138 525.124 90.2731C525.061 91.3926 524.992 92.5014 524.917 93.6082C524.629 98.8839 523.802 103.7 523.509 109.423C523.484 112.445 523.172 115.637 522.48 118.508C522.251 119.431 521.927 120.377 521.581 120.921C520.154 123.215 518.459 125.184 516.42 126.309C514.387 127.498 511.59 127.798 508.549 128.705C504.633 129.861 500.399 130.475 496.161 130.989C489.09 131.815 481.906 132.284 474.717 132.765C471.161 133 467.605 133.211 464.042 133.39C445.709 134.296 427.291 134.561 408.888 134.695C406.984 134.707 405.006 134.718 403.088 134.726C356.906 134.882 310.697 134.514 264.478 134.916C262.663 134.932 260.839 134.949 259.032 134.968C222.829 135.324 186.658 136.312 150.5 137.37C145.619 137.508 140.704 137.648 135.842 137.777C124.761 138.065 113.712 138.324 102.669 138.327C96.5071 138.326 90.3472 138.223 84.2111 137.935C81.9617 137.83 79.7078 137.748 77.4611 137.68C69.1001 137.425 60.7461 137.379 52.4354 137.216C50.2634 137.17 48.088 137.122 45.9185 137.066C38.6737 136.744 30.9607 137.095 24.7055 134.73C24.5229 134.653 24.3373 134.571 24.1582 134.487C18.3092 131.64 12.2862 127.844 7.93804 123.425C7.51562 122.934 7.11887 122.433 6.7527 121.917C3.92627 118.055 3.26785 113.001 3.40269 107.952C3.5482 102.457 3.75227 96.9395 4.02132 91.4441C4.14307 88.993 4.2763 86.5388 4.44376 84.1052C4.77075 78.9236 5.47194 73.7466 5.66114 68.3896C5.67859 67.8965 5.69179 67.4121 5.70133 66.9185C5.78807 60.7487 5.63854 54.6525 5.03759 48.4592C4.86293 46.8151 4.66477 45.1894 4.48421 43.5745C3.83831 38.0201 3.54188 32.5361 4.32451 27.1431C4.84256 23.838 5.1197 20.0481 6.65537 18.2192C7.11759 17.678 7.58183 17.1425 8.05057 16.6155C10.9784 13.3393 14.2299 10.2204 17.944 9.02871C17.9979 9.01163 18.0518 8.99502 18.1057 8.97886C23.634 7.22782 29.1621 6.36165 34.948 6.00342C41.1514 5.59551 47.445 5.56855 53.7684 5.58928C58.8231 5.613 63.8908 5.64624 68.9603 5.67339C83.4471 5.75267 97.9338 5.83501 112.43 5.78964C116.031 5.77821 119.625 5.75886 123.226 5.73143C137.875 5.61673 152.534 5.41663 167.177 5.10157C169.42 5.05209 171.633 4.99856 173.865 4.94115C179.227 4.7964 184.511 4.65645 189.852 4.67933C190.882 4.68064 191.913 4.68525 192.947 4.69171C193.571 4.69564 194.193 4.70023 194.811 4.70533C203.952 4.7814 213.1 4.92952 222.279 4.95664C223.13 4.9582 223.978 4.9594 224.824 4.96023C235.298 4.95056 245.75 4.96353 256.298 4.47058ZM256.068 0.0866516L256.298 4.47058L256.22 4.39979L256.146 0.157446L256.068 0.0866516Z" fill="#EF3F36"/>
<path d="M108.92 44.638C108.947 46.1364 108.974 47.6347 109.054 53.3043C109.135 58.974 109.269 68.7696 109.591 76.3132C110.126 88.8675 111.074 94.6085 111.476 96.1995C112.066 98.5325 113.356 101.409 115.142 104.055C115.976 105.291 117.274 105.839 119.504 106.169C125.016 106.471 129.01 106.36 130.965 106.011C132.307 105.745 134.36 105.302 136.475 104.844" stroke="#EF3F36" stroke-width="8" stroke-linecap="round" stroke-linejoin="round"/>
<path d="M146.497 86.4283C150.605 82.2662 153.735 78.7907 155.457 76.3152C156.225 75.2104 156.538 74.2544 156.77 73.1579C157.002 72.0615 157.082 70.8131 156.35 69.6427C155.618 68.4723 154.072 67.4178 152.129 67.0275C150.185 66.6372 147.891 66.9431 146.229 68.8904C144.567 70.8377 143.608 74.4171 143.113 77.4124C142.619 80.4078 142.619 82.7108 143.485 86.1312C144.352 89.5516 146.085 94.0196 147.245 96.5432C148.404 99.0668 148.937 99.5106 149.785 99.9471C150.634 100.384 151.781 100.799 152.678 101.014C153.576 101.228 154.189 101.228 155.798 100.715C157.407 100.201 159.995 99.1747 161.981 97.9802C163.967 96.7857 165.274 95.4544 166.16 94.5046C167.046 93.5549 167.473 93.027 167.912 92.4832" stroke="#EF3F36" stroke-width="8" stroke-linecap="round" stroke-linejoin="round"/>
<path d="M177.205 41.6938C177.179 43.2201 177.154 44.7465 177.833 52.0813C178.513 59.4161 179.899 72.5132 180.787 79.9959C181.675 87.4786 182.021 88.95 182.72 90.804C183.418 92.658 184.458 94.85 185.754 96.5619C187.05 98.2739 188.571 99.4394 190.367 99.7764C192.164 100.113 194.19 99.5867 195.607 98.2608C197.025 96.935 197.772 94.8259 198.237 93.2676C198.702 91.7093 198.861 90.7657 199.026 89.7936" stroke="#EF3F36" stroke-width="8" stroke-linecap="round" stroke-linejoin="round"/>
<path d="M171.308 66.1648C172.988 65.5261 174.668 64.8873 178.494 63.3788C182.32 61.8703 188.24 59.5113 191.556 58.1296C194.872 56.748 195.405 56.4152 195.955 56.0722" stroke="#EF3F36" stroke-width="8" stroke-linecap="round" stroke-linejoin="round"/>
<path d="M202.58 32.7795C202.58 36.5539 202.58 40.3282 202.594 42.7718C202.607 45.2154 202.634 46.214 202.888 48.3381C203.142 50.4623 203.623 53.6819 204.117 56.9991" stroke="#EF3F36" stroke-width="8" stroke-linecap="round" stroke-linejoin="round"/>
<path d="M229.17 58.0926C227.73 58.5084 226.289 58.9242 225.321 59.3883C224.352 59.8524 223.899 60.3522 223.478 61.4003C223.058 62.4484 222.684 64.0296 222.505 65.2191C222.326 66.4085 222.353 67.1582 222.74 68.1271C225.504 75.046 232.531 80.8123 233.7 83.2003C234.346 84.5212 234.736 86.2271 234.97 88.07C235.204 89.9129 235.177 91.883 234.244 93.6611C233.31 95.4392 231.47 96.9655 230.215 97.8353C228.961 98.705 228.347 98.872 226.963 99.0409C225.58 99.2099 223.446 99.3758 221.088 98.6229" stroke="#EF3F36" stroke-width="8" stroke-linecap="round" stroke-linejoin="round"/>
<path d="M290.019 60.446C288.633 60.529 287.247 60.6119 286.213 61.0569C285.179 61.502 284.539 62.3066 283.689 63.9841C281.606 68.0954 280.327 75.6457 279.775 83.5578C279.562 86.6103 279.729 87.7234 280.384 89.5299C281.039 91.3364 282.239 93.8063 283.457 95.495C284.675 97.1837 285.875 98.0164 286.826 98.5423C287.778 99.0681 288.445 99.262 289.828 99.3759C291.212 99.4898 293.292 99.5178 294.696 99.3938C296.101 99.2698 296.768 98.993 298.272 97.7264C299.775 96.4598 302.095 94.2117 303.478 92.7623C304.86 91.3129 305.234 90.7301 305.619 90.1297" stroke="#EF3F36" stroke-width="8" stroke-linecap="round" stroke-linejoin="round"/>
<path d="M310.547 32.5282C310.574 34.2484 310.601 35.9686 311.748 46.373C312.895 56.7774 315.161 75.814 316.342 84.1223C317.523 92.4307 317.55 89.4341 317.844 86.447C318.425 80.5398 319.995 75.8506 321.725 72.1058C323.728 67.7716 326.163 64.7152 327.775 63.0636C328.514 62.3067 329.281 61.9118 330.373 61.9331C331.464 61.9544 332.904 62.4542 333.846 62.961C334.787 63.4679 335.187 63.9666 336.086 65.7498C338.494 70.5259 340.28 75.757 341.314 80.8385C341.868 83.8938 342.481 87.917 343.104 91.044C343.727 94.1711 344.341 96.2802 346.589 98.7894" stroke="#EF3F36" stroke-width="8" stroke-linecap="round" stroke-linejoin="round"/>
<path d="M386.349 66.5009C382.669 64.7796 380.239 63.7539 378.204 63.4879C374.276 62.9747 371.081 63.1636 369.07 63.7748C367.646 64.2078 365.62 65.4954 364.376 66.3173C363.131 67.1392 362.786 67.611 362.301 69.2694C361.003 73.7053 360.623 78.5343 360.997 82.2393C361.186 84.1033 361.904 85.8614 362.873 87.706C363.841 89.5506 365.175 91.4098 366.102 92.5614C367.029 93.713 367.51 94.1008 368.517 94.481C369.524 94.8612 371.044 95.222 373.321 94.1595C375.597 93.097 378.584 90.6001 380.456 88.5227C382.328 86.4453 382.995 84.8629 383.538 82.7579C384.733 78.1308 384.866 72.5844 384.719 68.018C384.662 66.2791 384.385 65.7276 384.262 65.7332C381.823 65.8444 385.606 78.4196 387.273 85.7395C387.794 88.0288 390.263 92.3116 393.625 97.4097C394.951 99.4194 396.081 99.845 397.322 99.77C398.563 99.6951 400.029 99.0014 401.932 95.5639C403.834 92.1265 406.129 85.9662 407.537 81.5578C408.945 77.1494 409.397 74.6795 409.777 68.7452C410.157 62.8109 410.451 53.4871 410.509 48.2816C410.576 42.2704 408.694 36.8354 406.392 30.7433C405.794 29.1612 405.503 31.0343 405.942 37.8047C406.381 44.5752 407.34 56.286 408.035 63.1649C408.902 71.7619 410.66 76.6981 413.011 82.6572C415.038 87.7947 417.962 91.0979 419.819 93.2542C420.577 94.1343 421.088 94.4659 422.188 94.5403C423.289 94.6146 424.996 94.3927 426.489 93.4598C427.982 92.5269 429.209 90.8896 430.347 89.2C431.485 87.5105 432.498 85.8183 433.541 84.0748" stroke="#EF3F36" stroke-width="8" stroke-linecap="round" stroke-linejoin="round"/>
<path d="M393.703 51.4469C395.116 51.309 396.53 51.1712 401.618 50.0456C406.706 48.92 415.427 46.811 420.293 45.6825C425.158 44.554 425.905 44.47 426.674 44.3834" stroke="#EF3F36" stroke-width="8" stroke-linecap="round" stroke-linejoin="round"/>
</svg>
