<svg width="531" height="143" viewBox="0 0 531 143" fill="none" xmlns="http://www.w3.org/2000/svg">
<path d="M426.906 49.5371C415.689 49.5371 408.537 65.5618 406.905 75.1191C402.844 98.9028 436.089 95.4357 447.836 87.2124" stroke="#EF3F36" stroke-width="8" stroke-linecap="round" stroke-linejoin="round"/>
<path d="M454.848 52.3626C460.547 52.3626 472.815 83.8292 476.476 89.2239C477.983 91.4452 481.232 95.9403 481.941 90.6193C484.215 73.5652 485.423 56.7049 488.337 39.8042" stroke="#EF3F36" stroke-width="8" stroke-linecap="round" stroke-linejoin="round"/>
<path d="M37.6357 60.8387C37.6357 73.0322 40.5353 85.1135 41.5893 97.2349C42.4975 107.678 41.0214 97.195 40.7754 94.0953C39.9813 84.09 39.0587 73.5794 40.8916 63.6295C43.2549 50.8005 49.9923 49.9022 58.1013 60.6062C63.3999 67.6003 69.2944 77.1852 65.3108 86.1882C60.186 97.7702 51.3587 99.2719 41.8219 104.793" stroke="#EF3F36" stroke-width="8" stroke-linecap="round" stroke-linejoin="round"/>
<path d="M77.4033 62.9319C77.4033 70.1271 84.2608 119.034 99.0317 97.9327C108.531 84.3623 91.6624 65.0249 77.4033 65.0249" stroke="#EF3F36" stroke-width="8" stroke-linecap="round" stroke-linejoin="round"/>
<path d="M115.079 69.211C115.079 81.7432 122.335 116.5 128.568 87.1184C132.108 70.4275 148.102 101.116 156.941 99.6769C166.425 98.133 157.95 70.07 156.941 65.0249" stroke="#EF3F36" stroke-width="8" stroke-linecap="round" stroke-linejoin="round"/>
<path d="M169.499 67.118C169.499 76.9766 170.321 86.6066 172.755 96.1885C174.702 103.855 174.5 85.2431 174.964 82.8161C180.636 53.1958 193.733 86.2833 198.802 96.421" stroke="#EF3F36" stroke-width="8" stroke-linecap="round" stroke-linejoin="round"/>
<path d="M206.683 90.765C207.404 87.1609 220.697 29.9151 207.148 35.6474C198.422 39.3392 208.676 73.1749 211.218 78.788C215.041 87.2293 225.246 99.1228 235.986 96.5791C243.413 94.8201 245.567 86.6014 246.335 80.0671C247.003 74.3916 251.591 91.4845 256.917 93.5558C269.301 98.3719 273.471 73.1326 266.685 66.3458C260.361 60.0223 249.051 59.391 244.359 65.6481" stroke="#EF3F36" stroke-width="8" stroke-linecap="round" stroke-linejoin="round"/>
<path d="M303.455 65.0249C298.6 63.8111 292.695 60.2206 287.641 62.4667C273.572 68.7194 283.392 109.575 296.943 98.6304C305.008 92.1169 305.548 58.3797 305.548 68.7459C305.548 84.8568 308.884 91.0424 324.386 92.2349" stroke="#EF3F36" stroke-width="8" stroke-linecap="round" stroke-linejoin="round"/>
<path d="M347.41 67.118C341.403 64.1143 328.385 57.0723 323.689 65.8389C314.12 83.6999 333.056 106.608 342.759 82.3509C347.785 69.7858 344.696 28.5953 341.596 41.7685C339.636 50.0991 344.333 61.8302 346.712 69.4436C348.509 75.1928 350.425 81.4858 353.922 86.537C358.968 93.8254 361.614 90.3128 368.341 92.2348" stroke="#EF3F36" stroke-width="8" stroke-linecap="round" stroke-linejoin="round"/>
<path d="M256.298 4.47058C256.221 3.00927 256.145 1.54796 256.068 0.0866516C245.741 0.57025 235.262 0.561573 224.828 0.570269C223.984 0.569442 223.138 0.5678 222.289 0.565416C213.17 0.529613 204.02 0.327384 194.856 0.220371C194.235 0.213174 193.611 0.206319 192.983 0.200021C191.945 0.189613 190.907 0.180732 189.867 0.175006C184.492 0.128898 179.082 0.244841 173.751 0.381222C171.523 0.435301 169.317 0.485266 167.079 0.531146C152.469 0.822698 137.819 0.996859 123.191 1.11138C119.595 1.13877 116.006 1.16332 112.409 1.18383C97.9344 1.26578 83.4585 1.28286 68.9731 1.27613C63.9035 1.27434 58.8354 1.2738 53.7718 1.28833C47.3988 1.31617 41.0514 1.39631 34.6478 1.87926C28.7209 2.29209 22.6059 3.4523 16.9781 5.37235C16.9057 5.39567 16.8336 5.41954 16.7616 5.44395C11.8023 7.20835 8.47385 10.8784 5.4176 14.2893C4.9325 14.842 4.45675 15.3983 3.98704 15.9557C1.25053 19.7028 1.54599 23.2961 0.921918 26.6734C0.113283 32.4641 0.474147 38.3298 1.14169 43.9524C1.32831 45.5877 1.5293 47.2083 1.70335 48.8165C2.29272 54.7444 2.45673 60.8499 2.37117 66.8546C2.36207 67.3304 2.34942 67.7969 2.33261 68.2717C2.1561 73.3835 1.42987 78.5936 1.07712 83.8669C0.898916 86.3374 0.758828 88.8094 0.636246 91.2766C0.365515 96.8074 0.162568 102.336 0.0176237 107.866C-0.126412 113.196 0.555458 119.159 3.99323 123.875C4.42848 124.488 4.89294 125.073 5.37422 125.632C10.6011 130.913 16.3814 134.412 22.7254 137.555C22.9453 137.658 23.1728 137.758 23.3957 137.852C31.0403 140.658 38.4518 140.183 45.8134 140.611C47.9925 140.683 50.1718 140.747 52.3453 140.81C60.7031 141.042 69.0298 141.161 77.3398 141.447C79.5716 141.523 81.8068 141.611 84.0307 141.719C90.2384 142.026 96.4633 142.135 102.661 142.158C113.769 142.194 124.838 142.005 135.938 141.77C140.807 141.665 145.727 141.545 150.609 141.42C186.777 140.459 222.909 139.588 259.073 139.273C260.878 139.257 262.7 139.242 264.514 139.228C310.689 138.868 356.876 139.279 403.108 139.124C405.028 139.115 407.01 139.104 408.916 139.092C427.355 138.958 445.81 138.693 464.264 137.782C467.849 137.602 471.437 137.388 475.006 137.151C482.215 136.666 489.427 136.195 496.68 135.343C501.039 134.807 505.419 134.174 509.807 132.854C512.31 132.041 515.466 131.77 518.528 130.03C521.531 128.32 523.5 125.607 525.033 123.001C525.759 121.718 526.046 120.6 526.342 119.475C527.15 116.084 527.455 112.827 527.492 109.423C527.73 104.663 528.607 99.0993 528.892 93.8815C528.97 92.757 529.039 91.6321 529.104 90.4976C529.872 76.036 530.348 61.5986 530.639 47.1303C530.702 43.191 530.733 39.2896 530.572 35.3017C530.431 31.6475 530.025 27.7812 529.045 24.1703C527.565 18.3212 523.681 12.3758 517.371 10.2437C516.894 10.08 516.415 9.92118 515.936 9.76653C508.859 7.49781 501.597 6.08387 494.308 5.14451C493.584 5.05489 492.923 5.0177 492.268 4.98329C486.747 4.76347 481.418 4.76099 476.063 4.45107C474.799 4.38085 473.539 4.29577 472.284 4.19163C467.428 3.78471 462.581 3.50924 457.746 3.25864C453.495 3.04174 449.242 2.84228 444.995 2.64623C440.825 2.45498 436.647 2.30965 432.47 2.17874C413.861 1.61394 395.256 1.28932 376.654 1.08479C374.202 1.05876 371.73 1.0302 369.275 1.00063C352.669 0.800372 336.051 0.484236 319.437 0.23601C310.368 0.106314 301.297 -0.0239701 292.227 0.00377274C291.699 0.00595093 291.185 0.00795436 290.685 0.0097928C283.557 0.0450249 276.567 0.163554 269.37 0.14786C269.177 0.150726 268.985 0.15432 268.789 0.158674C264.717 0.211512 260.39 0.0616219 256.146 0.157446C256.171 1.57156 256.195 2.98567 256.22 4.39979C260.412 4.30381 264.522 4.45311 268.884 4.39866C269.069 4.39452 269.251 4.39113 269.433 4.38843C276.429 4.40491 283.602 4.59413 290.701 4.55939C291.203 4.55758 291.717 4.55561 292.245 4.55346C301.245 4.5264 310.312 4.65684 319.369 4.78705C335.969 5.03613 352.594 5.35331 369.22 5.55383C371.678 5.58344 374.154 5.60922 376.61 5.63014C395.195 5.79561 413.792 5.94942 432.347 6.42971C436.51 6.54157 440.672 6.67273 444.808 6.84822C449.053 7.0296 453.304 7.21382 457.544 7.40883C462.371 7.63458 467.184 7.83768 471.968 8.19962C473.263 8.2965 474.557 8.37544 475.848 8.44268C481.295 8.73839 486.78 8.72978 492.068 8.94146C492.673 8.97233 493.296 9.0118 493.807 9.07606C500.901 9.99044 507.962 11.3828 514.714 13.5524C515.171 13.7002 515.626 13.8517 516.08 14.0075C520.71 15.5393 523.925 20.175 525.183 25.1574C526.092 28.5349 526.443 31.9065 526.586 35.4692C526.742 39.3065 526.714 43.1637 526.651 47.0621C526.362 61.4502 525.886 75.9138 525.124 90.2731C525.061 91.3926 524.992 92.5014 524.917 93.6082C524.629 98.8839 523.802 103.7 523.509 109.423C523.484 112.445 523.172 115.637 522.48 118.508C522.251 119.431 521.927 120.377 521.581 120.921C520.154 123.215 518.459 125.184 516.42 126.309C514.387 127.498 511.59 127.798 508.549 128.705C504.633 129.861 500.399 130.475 496.161 130.989C489.09 131.815 481.906 132.284 474.717 132.765C471.161 133 467.605 133.211 464.042 133.39C445.709 134.296 427.291 134.561 408.888 134.695C406.984 134.707 405.006 134.718 403.088 134.726C356.906 134.882 310.697 134.514 264.478 134.916C262.663 134.932 260.839 134.949 259.032 134.968C222.829 135.324 186.658 136.312 150.5 137.37C145.619 137.508 140.704 137.648 135.842 137.777C124.761 138.065 113.712 138.324 102.669 138.327C96.5071 138.326 90.3472 138.223 84.2111 137.935C81.9617 137.83 79.7078 137.748 77.4611 137.68C69.1001 137.425 60.7461 137.379 52.4354 137.216C50.2634 137.17 48.088 137.122 45.9185 137.066C38.6737 136.744 30.9607 137.095 24.7055 134.73C24.5229 134.653 24.3373 134.571 24.1582 134.487C18.3092 131.64 12.2862 127.844 7.93804 123.425C7.51562 122.934 7.11887 122.433 6.7527 121.917C3.92627 118.055 3.26785 113.001 3.40269 107.952C3.5482 102.457 3.75227 96.9395 4.02132 91.4441C4.14307 88.993 4.2763 86.5388 4.44376 84.1052C4.77075 78.9236 5.47194 73.7466 5.66114 68.3896C5.67859 67.8965 5.69179 67.4121 5.70133 66.9185C5.78807 60.7487 5.63854 54.6525 5.03759 48.4592C4.86293 46.8151 4.66477 45.1894 4.48421 43.5745C3.83831 38.0201 3.54188 32.5361 4.32451 27.1431C4.84256 23.838 5.1197 20.0481 6.65537 18.2192C7.11759 17.678 7.58183 17.1425 8.05057 16.6155C10.9784 13.3393 14.2299 10.2204 17.944 9.02871C17.9979 9.01163 18.0518 8.99502 18.1057 8.97886C23.634 7.22782 29.1621 6.36165 34.948 6.00342C41.1514 5.59551 47.445 5.56855 53.7684 5.58928C58.8231 5.613 63.8908 5.64624 68.9603 5.67339C83.4471 5.75267 97.9338 5.83501 112.43 5.78964C116.031 5.77821 119.625 5.75886 123.226 5.73143C137.875 5.61673 152.534 5.41663 167.177 5.10157C169.42 5.05209 171.633 4.99856 173.865 4.94115C179.227 4.7964 184.511 4.65645 189.852 4.67933C190.882 4.68064 191.913 4.68525 192.947 4.69171C193.571 4.69564 194.193 4.70023 194.811 4.70533C203.952 4.7814 213.1 4.92952 222.279 4.95664C223.13 4.9582 223.978 4.9594 224.824 4.96023C235.298 4.95056 245.75 4.96353 256.298 4.47058ZM256.068 0.0866516L256.298 4.47058L256.22 4.39979L256.146 0.157446L256.068 0.0866516Z" fill="#EF3F36"/>
</svg>
