<?xml version="1.0" encoding="UTF-8"?>
<svg id="Layer_2" data-name="Layer 2" xmlns="http://www.w3.org/2000/svg" viewBox="0 0 163.59 78.22">
  <defs>
    <style>
      .cls-1 {
        fill: #ef3f36;
      }
    </style>
  </defs>
  <g id="Texto">
    <g>
      <path class="cls-1" d="M1.82,29.16C15.48,19.59,30.19,11.16,46.26,6.4c14.9-4.41,30.88-5.39,45.96-1.26,8.24,2.25,16.06,6.04,22.71,11.43l.55-2.09c-3.13,1.1-6.35,1.57-9.66,1.39v2.5c4.26.02,8.52.05,12.77.07.71,0,1.2-.58,1.25-1.25.28-4.2-.1-8.4-1.12-12.49-.39-1.56-2.8-.9-2.41.66.96,3.88,1.3,7.83,1.03,11.82l1.25-1.25c-4.26-.02-8.52-.05-12.77-.07-1.62,0-1.6,2.41,0,2.5,3.51.19,7.01-.31,10.33-1.48.8-.28,1.34-1.45.55-2.09C104.52,4.92,89,.29,73.45.01c-16.74-.3-33.07,4.61-47.98,11.97C16.77,16.28,8.51,21.43.55,27c-1.31.92-.06,3.08,1.26,2.16h0Z"/>
      <path class="cls-1" d="M96.71,35.53c-2.12,5.58-3.68,11.35-4.65,17.23-.13.77.2,1.56,1.01,1.78.69.19,1.66-.24,1.78-1.01.97-5.89,2.53-11.65,4.65-17.23.28-.73-.31-1.59-1.01-1.78-.82-.22-1.5.28-1.78,1.01h0Z"/>
      <path class="cls-1" d="M98.67,36.41c2.32,4.49,4.23,9.16,5.75,13.98.56,1.78,3.36,1.02,2.8-.77-1.58-5.05-3.61-9.97-6.04-14.68-.86-1.66-3.36-.19-2.5,1.46h0Z"/>
      <path class="cls-1" d="M97.03,48.77l5.52-2.2c.36-.15.66-.32.87-.67.18-.31.26-.77.15-1.12-.22-.68-1.03-1.31-1.78-1.01l-5.52,2.2c-.36.15-.66.32-.87.67-.18.31-.26.77-.15,1.12.22.68,1.03,1.31,1.78,1.01h0Z"/>
      <path class="cls-1" d="M109.03,36.02c.93,3.98,1.85,7.95,2.78,11.93l2.65-1.12c-.55-1.2-.88-2.51-.98-3.83-.06-.78-.62-1.45-1.45-1.45-.74,0-1.51.67-1.45,1.45.14,1.86.6,3.6,1.38,5.29.3.65,1.21.86,1.81.59.67-.3,1.01-.99.84-1.71-.93-3.98-1.85-7.95-2.78-11.93-.18-.76-1.05-1.21-1.78-1.01-.78.21-1.19,1.02-1.01,1.78h0Z"/>
      <path class="cls-1" d="M112.39,35.01c0-.59.54-1,1.1-1.09.75-.12,1.34.46,1.61,1.1.85,1.99-.85,3.81-2.43,4.78l1.98,1.98c.58-.93,1.89-1.16,2.86-.76,1.21.5,1.67,1.97,1.54,3.19-.16,1.46-1.22,2.58-2.47,3.25-.69.37-2.94,1.27-3.54.32-.99-1.57-3.5-.12-2.5,1.46,1.51,2.39,4.71,1.98,6.95.99,2.46-1.09,4.24-3.32,4.46-6.02.21-2.5-1.16-5.07-3.57-5.95-2.27-.83-4.95-.02-6.23,2.05-.76,1.23.75,2.74,1.98,1.98,1.69-1.03,3.12-2.47,3.78-4.37.59-1.69.29-3.68-.78-5.11s-2.87-2.17-4.64-1.64-3.04,2-3.02,3.83,2.92,1.87,2.9,0h0Z"/>
      <path class="cls-1" d="M123.84,33.48c-.31,2.9-.17,5.88.49,8.73.48,2.08,1.66,4.4,3.84,5.07,2.59.8,5.07-1.26,5.64-3.71s-.17-5.3-1.37-7.5-3.28-4.17-5.87-4.63c-.77-.14-1.56.21-1.78,1.01-.19.7.24,1.65,1.01,1.78,3.24.58,5.17,4.22,5.29,7.36.03.81-.07,1.67-.6,2.31-.19.24-.47.46-.71.55-.32.13-.58.1-.77.04-.17-.05-.43-.21-.57-.35-.28-.28-.39-.43-.59-.77-.38-.66-.6-1.34-.77-2.12-.56-2.55-.63-5.2-.35-7.79.08-.78-.73-1.45-1.45-1.45-.85,0-1.37.67-1.45,1.45h0Z"/>
      <path class="cls-1" d="M135.27,31.62c.08,2.21.43,4.42,1.09,6.52.59,1.88,1.35,4.13,2.89,5.46,1.63,1.4,4.23,1.65,5.67-.17,1.24-1.57,1.35-3.99,1.31-5.91-.05-2.49-.64-4.89-1.66-7.16-.29-.65-1.21-.86-1.81-.59-.68.3-1,.99-.84,1.71.69,3.06,1.71,6.03,3.02,8.87.58,1.25,1.14,2.67,2.16,3.63,1.14,1.08,2.71,1.47,3.97.34,1.4-1.24-.66-3.29-2.05-2.05-.03.03.45-.27.49-.1,0-.01-.38-.27-.42-.31-.3-.29-.47-.65-.67-1.02-.55-1.04-1.06-2.1-1.51-3.18-.94-2.25-1.66-4.59-2.19-6.96l-2.65,1.12c.84,1.85,1.25,3.9,1.26,5.93,0,.98-.06,1.97-.29,2.92-.13.55-.3,1.2-.96,1.17-1.59-.09-2.33-2.68-2.74-3.9-.7-2.05-1.1-4.17-1.18-6.33-.07-1.86-2.97-1.87-2.9,0h0Z"/>
      <path class="cls-1" d="M152.98,29.28c1.04,3.24,1.85,6.55,2.41,9.9.13.76.11,1.63.47,2.32.44.85,1.52,1.31,2.39.79.73-.44.96-1.39.65-2.15-.4-.98-1.77-1.32-2.5-.48-.51.59-.58,1.47,0,2.05.52.52,1.54.59,2.05,0l.05-.05-.64.37h.04c-.37-.06-.75-.11-1.12-.16l.03.02-.52-.52c-.14-.25-.18-.51-.14-.78l.37-.64.19-.15.73-.2h-.08c.24.06.49.12.73.19.3.51.41.61.32.28.03.21.01.11-.04-.31-.03-.23-.07-.46-.1-.69-.08-.53-.17-1.07-.27-1.6-.18-.99-.38-1.97-.6-2.95-.46-2.04-1.01-4.05-1.65-6.03-.24-.75-1.01-1.23-1.78-1.01-.73.2-1.25,1.04-1.01,1.78h0Z"/>
      <path class="cls-1" d="M150.21,30.51c3.87-1.32,7.87-2.24,11.93-2.69.78-.09,1.45-.61,1.45-1.45,0-.72-.67-1.54-1.45-1.45-4.33.48-8.58,1.39-12.71,2.79-.74.25-1.23,1-1.01,1.78.2.72,1.04,1.27,1.78,1.01h0Z"/>
      <path class="cls-1" d="M119.63,62.38c.43,4.98,1.16,9.92,2.2,14.81.34,1.6,2.91,1.25,2.85-.39-.02-.4-.03-.79-.05-1.19-.07-1.86-2.97-1.87-2.9,0,.02.4.03.79.05,1.19l2.85-.39c-.98-4.64-1.68-9.32-2.09-14.04-.07-.78-.62-1.45-1.45-1.45-.73,0-1.52.67-1.45,1.45h0Z"/>
      <path class="cls-1" d="M120.06,62.75c1.58,2.1,3.16,4.19,4.74,6.29.24.31.47.56.87.67.35.1.81.05,1.12-.15.6-.39,1.01-1.34.52-1.98-1.58-2.1-3.16-4.19-4.74-6.29-.24-.31-.47-.56-.87-.67-.35-.1-.81-.05-1.12.15-.6.39-1.01,1.34-.52,1.98h0Z"/>
      <path class="cls-1" d="M127.27,59.77c-1.18,2.53-1.89,5.17-2.12,7.96-.06.71.6,1.35,1.26,1.42.74.09,1.35-.34,1.59-1.04.83-2.35,1.57-4.72,2.23-7.12h-2.8c1.79,5,3.39,10.07,4.81,15.19.5,1.8,3.3,1.03,2.8-.77-1.42-5.12-3.03-10.18-4.81-15.19-.46-1.3-2.4-1.45-2.8,0-.66,2.4-1.4,4.78-2.23,7.12l2.85.39c.19-2.24.78-4.46,1.73-6.5.33-.71.2-1.56-.52-1.98-.63-.37-1.65-.19-1.98.52h0Z"/>
      <path class="cls-1" d="M134.46,60.28c.77,4.01,1.53,8.02,2.3,12.03.17.91.25,1.98,1.14,2.51.97.59,1.94.14,2.86-.27,1.84-.82,3.68-1.64,5.52-2.47.72-.32.89-1.36.52-1.98-.43-.74-1.27-.84-1.98-.52-1.08.48-2.16.97-3.24,1.45-.52.23-1.04.46-1.56.7-.33.15-.95.51-1.22.48l.73.2c.24.44.32.51.24.21l-.08-.4-.15-.8-.33-1.74-.64-3.34c-.43-2.27-.87-4.54-1.3-6.81-.15-.77-1.07-1.21-1.78-1.01-.81.22-1.16,1.01-1.01,1.78h0Z"/>
      <path class="cls-1" d="M139.2,67.04l2.78-1.82c.32-.21.56-.5.67-.87.1-.35.05-.81-.15-1.12s-.5-.58-.87-.67-.79-.07-1.12.15c-.93.61-1.86,1.22-2.78,1.82-.32.21-.56.5-.67.87-.1.35-.05.81.15,1.12s.5.58.87.67.79.07,1.12-.15h0Z"/>
      <path class="cls-1" d="M136.49,59.21c-.29.23.1-.07.16-.11.12-.09.25-.17.37-.25.22-.14.45-.27.68-.4.13-.07.27-.14.4-.2.07-.03.5-.26.17-.08.24-.13.53-.2.79-.28s.54-.16.81-.22c.15-.03.29-.06.44-.09.04,0,.48-.07.25-.04s.21-.02.25-.02c.15-.01.3-.02.45-.03.3-.01.6,0,.9,0,.76.04,1.48-.69,1.45-1.45-.04-.82-.64-1.41-1.45-1.45-2.82-.13-5.52.84-7.73,2.57-.6.47-.53,1.56,0,2.05.64.58,1.41.5,2.05,0h0Z"/>
    </g>
  </g>
</svg>