<?xml version="1.0" encoding="UTF-8"?>
<svg id="Layer_2" data-name="Layer 2" xmlns="http://www.w3.org/2000/svg" viewBox="0 0 32.4 33.3">
  <defs>
    <style>
      .cls-1 {
        fill: #312f2f;
      }
    </style>
  </defs>
  <g id="behance">
    <g>
      <path class="cls-1" d="M32.09,13.95C30.71,6.63,24.28-.57,16.32.04,9.59.2,3.65,4.68,1.18,10.91c-2.55,6.43-.96,14.39,4.84,18.52,2.93,2.09,6.8,3.68,10.42,3.85,3.15.15,6.32-.86,8.93-2.61,5.53-3.71,7.95-10.25,6.73-16.73ZM26.45,28.25c-2.17,1.98-4.95,3.34-7.88,3.71-3.23.4-6.36-.62-9.23-2.03-3.02-1.48-5.44-3.61-6.85-6.72-1.36-3.02-1.62-6.48-.84-9.68C3.29,6.76,9.3,1.46,16.32,1.29c6.57-.5,12.08,4.86,14,10.78,1.85,5.71.64,12.08-3.87,16.19Z"/>
      <path class="cls-1" d="M17.66,10.32c.77-.4,1.32-1.25,1.3-2.12-.01-.51-.21-1.01-.63-1.32-.36-.27-.81-.35-1.24-.36-.82-.06-1.63.4-2.07,1.09-.48.76-.42,1.78.24,2.41.65.62,1.61.71,2.4.3Z"/>
      <path class="cls-1" d="M23.72,11.28c-1.53-.26-3.12-.06-4.66,0-1.61.06-3.22.05-4.82,0-1.58-.06-3.25-.26-4.82.09-.6.14-1.5.8-1.28,1.53,0,0,0,.01,0,.02,0,0,0,0,0,0,0,0,0,0,0,.01.02.08.07.16.17.21.92.53,1.94.65,2.99.68.59.02,1.17.01,1.76.06.25.02.58.02.82.12.57.25.54.91.59,1.43.14,1.46-.04,2.92-.47,4.31-.41,1.33-.76,2.57-.75,3.98,0,.84-.13,2.32.53,2.98.57.57,1.38.19,1.7-.44.27-.54.36-1.21.5-1.8.18-.76.35-1.52.5-2.29.06-.31.12-.61.18-.92.04-.25.04-.49.22-.69.23-.24.17-.26.37.04.35.51.41,1.2.52,1.79.2,1.09.43,2.41,1.04,3.36.35.54,1.22,1.38,1.92.95.73-.44.4-1.9.3-2.56-.21-1.39-.59-2.76-.93-4.11-.35-1.4-.84-2.83-.84-4.29,0-.38-.03-.85.14-1.19.2-.43.47-.58.95-.65.7-.1,1.43-.08,2.13-.17.71-.1,2.4-.24,2.67-1.09.26-.82-.81-1.26-1.43-1.37ZM18.83,13.92c-.04.09-.08.18-.11.28.03-.1.07-.19.11-.28Z"/>
    </g>
  </g>
</svg>