<?xml version="1.0" encoding="UTF-8"?>
<svg id="Layer_2" data-name="Layer 2" xmlns="http://www.w3.org/2000/svg" viewBox="0 0 25.08 25.01">
  <defs>
    <style>
      .cls-1 {
        fill: #312f2f;
      }
    </style>
  </defs>
  <g id="behance">
    <g>
      <path class="cls-1" d="M8.72.18C6.31.29,4.04-.06,2,1.56-.5,3.54.04,6.96.07,9.78c.04,3.3-.2,6.74.24,10.01.3,2.24,1.35,4.34,3.73,4.85,1.58.34,3.3.18,4.9.2l5.5.05c2.61.02,6.06.57,8.43-.87,2.6-1.58,2.14-5.44,2.18-8.04.05-3.48.08-7.04-.23-10.51-.28-3.09-2.11-4.87-5.13-5.32-1.48-.22-2.97-.15-4.46-.12-2.17.05-4.33.1-6.5.14-.8.02-.81,1.27,0,1.25,2.84-.06,5.68-.18,8.52-.18,2.18,0,5.01.21,5.95,2.55.5,1.25.42,2.7.47,4.03.05,1.55.1,3.11.12,4.66.02,1.4.02,2.8,0,4.19-.03,1.48.08,3.22-.36,4.65-.81,2.67-4.26,2.36-6.47,2.34-2.98-.03-5.96-.06-8.94-.09-1.29-.01-2.78.15-4.03-.24s-1.96-1.52-2.27-2.77c-.61-2.42-.33-5.13-.36-7.6-.02-1.6-.04-3.19-.05-4.79-.02-1.5-.24-3.28.56-4.63C3.35,1.04,6.3,1.54,8.72,1.43c.8-.04.81-1.29,0-1.25h0Z"/>
      <path class="cls-1" d="M5.96,9.31c.09,2.12.18,4.24.26,6.37.02.47.39.87.87.87.46,0,.89-.4.87-.87-.09-2.12-.18-4.24-.26-6.37-.02-.47-.39-.87-.87-.87-.46,0-.89.4-.87.87h0Z"/>
      <path class="cls-1" d="M7.07,10.16c.35-.11.7-.2,1.05-.28.18-.04.37-.07.56-.1-.19.03.08,0,.14-.01.1,0,.19-.02.29-.02s.18,0,.28,0c.04,0,.28.03.14,0s.1.02.14.03c.04.01.08.02.12.04.03,0,.2.07.08.02-.11-.04.1.05.13.07.06.03.19.08.22.14,0-.01-.15-.13-.02-.02.02.02.05.04.07.06.03.03.06.06.09.09.09.09.08.03,0,0,.05.03.1.16.13.21.02.03.03.11,0,0-.03-.12,0,.01,0,.04s.02.06.02.09c.04.17-.02-.03,0-.05-.02.02,0,.26,0,.29-.01.22.03-.11,0,.04-.02.08-.04.15-.06.22-.03.15.09-.14,0,.02-.02.03-.04.06-.05.1-.08.14-.01-.04.03-.02,0,0-.12.12-.13.14-.05.09.14-.08.04-.03-.03.02-.06.04-.1.06-.03.02-.05.03-.08.04-.15.09.04-.02.04-.01,0,.02-.19.06-.21.07-.06.01-.11.03-.17.04-.03,0-.07.01-.11.02-.12.02.03-.04.07,0-.02-.02-.18.02-.21.02-.09,0-.19.02-.28.02-.69.04-1.39.01-2.09.06-.46.04-.9.38-.87.87.02.44.39.91.87.87.72-.06,1.43-.02,2.15-.07.84-.06,1.73-.19,2.31-.87.66-.76.8-1.9.37-2.81s-1.42-1.43-2.38-1.55-2.08.16-3.03.46c-.44.14-.76.62-.61,1.08s.61.76,1.08.61h0Z"/>
      <path class="cls-1" d="M7.55,13.36c.09-.02.18-.04.27-.06.05,0,.1-.01.15-.02-.31.07-.08.01,0,0,.28-.03.57-.04.85-.05.3,0,.61.02.91.05.21.02-.19-.03.05,0,.07.01.13.02.2.04.15.03.31.07.45.12.03.01.06.02.09.03.1.03.07.08-.06-.03.04.03.11.05.16.08.05.03.1.06.15.09.18.11-.12-.13.02.02.04.04.08.09.13.13.07.07-.11-.17-.06-.08.01.03.04.06.05.08,0,.01.03.07.04.07-.01,0-.07-.22-.04-.1,0,.04.02.08.04.12.06.18,0-.18,0,.02,0,.06.03.2,0,.25v-.11s0,.06,0,.09c0,.04-.02.08-.03.12-.02.05-.05.2,0,0-.01.04-.04.09-.06.12-.05.1-.11.19-.17.28-.03.04-.1.1.01-.02-.03.03-.06.07-.09.1-.07.07-.14.15-.22.21-.02.02-.14.1-.04.04s-.02.01-.05.03c-.09.06-.19.11-.29.16-.11.06.2-.05,0,0-.06.02-.12.04-.19.06s-.13.03-.19.04c.13-.02.04,0-.04,0-.13,0-.26,0-.39,0-.07,0-.13-.01-.2-.02.13.01.02,0-.05,0-.55-.09-1.09-.26-1.62-.41-.44-.12-.97.15-1.08.61s.14.95.61,1.08c1.14.3,2.37.73,3.54.36,1.05-.33,2.02-1.26,2.24-2.36.2-1-.18-1.95-1.07-2.47-.69-.4-1.53-.52-2.31-.56-.72-.03-1.48,0-2.18.17-.45.11-.75.64-.61,1.08.15.46.6.73,1.08.61h0Z"/>
      <path class="cls-1" d="M13.81,14.3c1.49-.03,2.98-.05,4.47-.08.5,0,.84-.4.87-.87.09-1.33-.75-2.52-1.97-2.98-1.14-.43-2.44,0-3.27.84s-1.24,2.07-1.01,3.24,1.15,1.97,2.2,2.35c1.17.43,2.51.2,3.46-.61.35-.3.33-.93,0-1.24-.37-.34-.87-.32-1.24,0-.15.12.17-.11,0,0-.03.02-.06.04-.09.06-.07.05-.15.09-.23.13-.16.09.19-.06.02,0-.03.01-.07.02-.1.04-.1.03-.2.06-.31.08-.12.02-.14-.03.02,0-.03,0-.08,0-.11,0-.09,0-.18,0-.27,0-.08,0-.19-.03-.27-.02.19-.03.13.02.02,0-.05-.01-.1-.02-.16-.03-.09-.02-.17-.05-.26-.08-.04-.01-.08-.03-.13-.05-.11-.04.2.1.04.01-.08-.04-.16-.08-.23-.13-.04-.02-.08-.05-.11-.07-.02-.01-.04-.03-.07-.04-.07-.05-.06-.04.05.04-.02-.06-.15-.13-.2-.18-.06-.06-.11-.15-.18-.2.11.07.09.13.04.05-.03-.05-.06-.09-.09-.13-.02-.03-.04-.06-.05-.09-.11-.22.03.12-.02-.04-.03-.09-.06-.18-.08-.27,0-.02-.02-.11-.02-.11v.12s0-.07,0-.11c0-.09,0-.19,0-.28,0-.04,0-.07,0-.11,0-.18-.05.2,0-.02.01-.06.1-.52.15-.52l-.04.1s.03-.07.05-.1c.02-.03.04-.07.05-.1.06-.1.12-.19.18-.29.11-.17-.13.14,0,0,.03-.03.05-.06.08-.09.06-.07.13-.14.2-.2.02-.01.11-.11.13-.11,0,0-.18.12-.04.04.1-.06.19-.12.29-.17.04-.02.17-.05.05-.03-.14.02.02,0,.05-.02.09-.03.18-.06.27-.07.05,0,.16-.07.05-.01-.1.05,0,0,.06,0,.05,0,.1,0,.15,0,.03,0,.06,0,.09,0,.1,0,.08,0-.06,0,0-.02.32.08.34.09.13.04-.05-.02-.05-.02.02-.01.16.08.18.09.04.02.08.05.12.08.16.09-.12-.11,0,0,.09.08.17.16.25.25.13.15-.09-.16,0,.01.03.05.06.1.09.15.02.04.04.09.07.13.03.06.02.04-.03-.07.01.04.03.08.04.11.01.04.02.08.03.12,0,.04.02.08.03.12.02.1.01.08,0-.05.05.06,0,.32,0,.39l.87-.87c-1.49.03-2.98.05-4.47.08-.46,0-.9.4-.87.87s.38.88.87.87h0Z"/>
      <path class="cls-1" d="M14.03,10l3.37-.1c.46-.01.9-.39.87-.87s-.38-.89-.87-.87l-3.37.1c-.46.01-.9.39-.87.87s.38.89.87.87h0Z"/>
    </g>
  </g>
</svg>