<?xml version="1.0" encoding="UTF-8"?>
<svg id="Layer_2" data-name="Layer 2" xmlns="http://www.w3.org/2000/svg" viewBox="0 0 30.11 24.88">
  <defs>
    <style>
      .cls-1 {
        fill: #312f2f;
      }
    </style>
  </defs>
  <g id="Bootstrap">
    <g>
      <path class="cls-1" d="M5.84.34c-2.39.03-2.74,2.1-2.63,4.07.12,2.15.45,6.78-2.58,7.14-.58.07-.9.83-.32,1.16,1.88,1.09,2.42,3.23,2.59,5.25.14,1.67-.2,4,.73,5.51.81,1.31,2.51,1.24,3.86,1.3,2.37.1,4.75.13,7.12.1s4.58-.13,6.87-.29c1.47-.1,3.61.04,4.81-1.02,1.29-1.13.97-3.36,1.01-4.88.05-2.08.38-4.46,2.51-5.4.42-.19.4-.89,0-1.08-2.82-1.38-2.71-4.82-2.86-7.51-.12-2.22-.65-4.2-3.14-4.58-1.21-.18-2.47-.07-3.69-.05-1.56.03-3.12.06-4.67.09-3.2.06-6.4.13-9.59.19-.8.02-.81,1.27,0,1.25,2.95-.06,5.9-.12,8.86-.18,1.48-.03,2.95-.06,4.43-.09s2.86-.18,4.25-.02c1.8.21,2.2,1.53,2.3,3.15.08,1.28.08,2.55.27,3.82.32,2.05,1.29,4.05,3.22,5v-1.08c-3.22,1.41-3.04,5.23-3.16,8.17-.06,1.41-.31,2.48-1.82,2.72-.98.16-1.99.18-2.97.25-2.21.15-4.41.24-6.62.28s-4.26,0-6.38-.07c-.85-.03-2.05.1-2.86-.24-1.19-.5-1.05-2.1-1.1-3.17-.16-3.12-.27-6.75-3.32-8.5l-.32,1.16c2.59-.31,3.6-2.87,3.89-5.18.19-1.54-1.04-6.01,1.33-6.03.8,0,.81-1.26,0-1.25h0Z"/>
      <path class="cls-1" d="M10.05,6.78c.01,3.87.03,7.74.04,11.61,0,1.61,2.51,1.61,2.5,0-.01-3.87-.03-7.74-.04-11.61,0-1.61-2.51-1.61-2.5,0h0Z"/>
      <path class="cls-1" d="M11.65,8.03c.13-.02.27-.05.4-.07.15-.02-.02,0-.04,0,.06,0,.12-.01.17-.02.27-.03.55-.05.82-.05.55-.02,1.09.02,1.64.08.15.02-.02,0-.04,0,.06,0,.12.02.17.03.13.02.27.05.4.07.26.05.52.12.78.19.1.03.2.06.29.09.06.02.13.05.19.07-.02,0-.18-.09-.06-.02.08.05.18.11.27.15.15.07-.13-.14-.01-.01.04.05.09.09.14.13,0,0,.07.09.08.09-.04,0-.16-.26-.06-.06.01.03.04.08.06.1.08.08-.06-.1-.05-.13-.01.04.06.21.08.25.07.26,0-.19,0,0,0,.09,0,.18,0,.27,0,.03-.02.09-.01.12,0-.02.06-.26.01-.14-.03.08-.04.18-.07.27-.01.04-.03.08-.04.11-.07.23,0-.05.02-.04.02.01-.25.43-.26.46-.07.13.07-.11.07-.09,0,.01-.07.08-.08.09-.07.08-.15.16-.23.23,0,0-.09.08-.09.08,0,0,.21-.14.09-.07-.09.05-.17.11-.26.16s-.19.1-.28.14c.23-.12-.1.03-.18.06-.25.08-.5.13-.76.18-.14.03.06,0,.07,0-.09,0-.17.02-.26.03-.12.01-.25.02-.37.02-.57.02-1.14,0-1.71-.04-.65-.04-1.28.6-1.25,1.25.03.71.55,1.21,1.25,1.25,2.32.13,5.18-.04,6.36-2.42.52-1.05.65-2.29.07-3.35-.65-1.2-2.06-1.64-3.32-1.88-1.56-.3-3.12-.29-4.68,0-.64.12-1.07.93-.87,1.54.22.69.85,1,1.54.87h0Z"/>
      <path class="cls-1" d="M12.43,13.43c.58-.05,1.16-.09,1.74-.1.67,0,1.03.03,1.58.18.12.03.24.09.37.12.13.03-.03-.02-.05-.03.06.03.13.06.19.09.1.05.19.1.28.16.05.03.09.06.14.09.02.01.2.15.09.06-.1-.07.16.14.2.18.08.07.15.15.22.23.15.17-.06-.12.06.08.07.12.14.24.2.36-.1-.18,0-.02.02.08.01.05.03.1.04.15.01.04.03.26.02.09,0-.16,0,.15,0,.2,0,.05,0,.1-.01.16,0-.11.03-.16,0-.03-.02.06-.12.36-.07.24.05-.13-.07.13-.1.17s-.18.28-.11.17c.09-.13-.04.05-.07.08-.05.05-.1.1-.15.15-.03.03-.25.23-.15.15s-.18.12-.22.15c-.09.06-.18.11-.28.16-.05.02-.1.05-.14.07-.16.09.17-.05,0,0-.48.14-.95.25-1.44.33-.06,0-.12.02-.17.03-.2.03.18-.02-.02,0-.16.01-.32.04-.49.05-.29.02-.57.04-.86.05s-.6,0-.9-.02c-.15,0-.3-.02-.45-.04.26.03-.12-.03-.2-.04-.64-.13-1.38.18-1.54.87-.14.62.19,1.4.87,1.54,1.37.27,2.75.2,4.13.01,1.31-.18,2.52-.54,3.52-1.44,1.06-.95,1.57-2.38,1.25-3.77-.29-1.27-1.32-2.38-2.48-2.93-1.58-.75-3.3-.69-4.99-.55-.65.05-1.28.54-1.25,1.25.03.63.55,1.31,1.25,1.25h0Z"/>
    </g>
  </g>
</svg>