<?xml version="1.0" encoding="UTF-8"?>
<svg id="Layer_2" data-name="Layer 2" xmlns="http://www.w3.org/2000/svg" viewBox="0 0 72.12 27.02">
  <defs>
    <style>
      .cls-1 {
        fill: #ef3f36;
      }

      .cls-2 {
        fill: #312f2f;
      }
    </style>
  </defs>
  <g id="Imagens">
    <g>
      <path class="cls-1" d="M6,9.86l.53,7.95c.07.99-.09,2.39.94,2.94.38.2.83.22,1.25.19.2-.01.72-.15.88,0,.75.7,1.89-.43,1.13-1.13-.65-.6-1.39-.48-2.2-.46-.38.01-.29.04-.32-.31-.04-.62-.08-1.24-.12-1.86l-.49-7.33c-.07-1.02-1.67-1.03-1.6,0h0Z"/>
      <path class="cls-1" d="M11.16,17.98c.87.18,1.84.07,2.55-.51.75-.62.87-1.7.26-2.47-.65-.82-1.8-.96-2.69-.47s-1.37,1.39-1.47,2.35c-.2,1.95,1.34,3.68,3.3,3.68,2.29,0,3.92-1.91,4.82-3.83,1.06-2.26,1.36-4.87.21-7.16-.36-.72-1.51-.37-1.49.4.05,2.38-.19,5.08.75,7.32.41.98,1.05,1.86,2.06,2.27.91.37,1.98.22,2.5-.68s-.86-1.7-1.38-.81c-.19.32-.88-.16-1.06-.34-.55-.55-.81-1.37-.97-2.11-.4-1.83-.26-3.8-.3-5.65l-1.49.4c1.21,2.41.25,5.79-1.6,7.63-.8.79-2.31,1.44-3.25.48-.63-.64-.77-1.89,0-2.48.19-.14.43-.24.65-.13.16.08.23.19.17.3-.19.32-.86.32-1.17.25-1-.21-1.43,1.33-.43,1.54h0Z"/>
      <path class="cls-1" d="M15.68,14.02c1.62-.13,3.22-.46,4.75-1.02.39-.14.7-.55.56-.98-.12-.39-.56-.71-.98-.56-.72.26-1.45.48-2.19.64-.8.18-1.37.26-2.13.32-.42.03-.82.34-.8.8.02.4.35.84.8.8h0Z"/>
      <path class="cls-1" d="M22.79,10.07c.05.25.12.51.13.77-.01-.22,0-.01,0,.03,0,.06.01.12.02.18.01.13.03.26.04.39.04.51.04,1.02.02,1.53-.02.42.38.82.8.8.45-.02.78-.35.8-.8.05-1.11-.05-2.23-.27-3.32-.08-.41-.59-.69-.98-.56-.44.14-.65.54-.56.98h0Z"/>
      <path class="cls-1" d="M27.76,13.98c-.93-.45-1.99-.32-2.79.32s-1.15,1.95-.33,2.74c.28.27.67.42,1.06.49.2.04.4.06.6.09.06,0,.28.04.1.01.1.02.2.03.3.05.08.02.16.04.23.06.04.01.07.03.11.04-.03,0-.15-.08-.03-.01.03.02.19.13.11.06-.09-.07.03.02.03.04.02.08-.07-.11,0,.01s0,.01,0-.02c.01.04.02.08.04.12.04.13,0,0,0-.03,0,.04,0,.08,0,.13s0,.09,0,.13c0-.16.01-.06,0-.02-.01.04-.02.09-.03.13-.01.05-.1.2-.02.06-.05.08-.09.16-.13.23.08-.12.03-.03,0,0-.05.05-.09.09-.14.14.03-.03.12-.07-.02.01-.06.04-.12.07-.18.1-.01,0-.17.08-.09.05.07-.03-.12.04-.13.05-.49.15-.87.16-1.45.15-.42,0-.82.37-.8.8s.35.8.8.8c.96,0,1.99-.07,2.79-.66s1.2-1.58.94-2.52c-.24-.88-1.04-1.31-1.88-1.44-.2-.03-.41-.06-.61-.08.21.03-.03,0-.09-.02-.08-.01-.17-.03-.25-.05-.04,0-.07-.02-.1-.03-.05-.01-.11-.07-.03,0,.12.09-.08-.06-.08-.06,0,.03.13.11.05.03-.09-.09.02.03.03.05-.07-.11.02.02.01.05l-.02-.05c0,.06,0,.07,0,0-.03-.1-.02.07,0-.04,0-.03.06-.18.02-.09.02-.05.05-.09.08-.13.07-.13-.04.03.02-.03.03-.03.25-.21.12-.12.04-.03.08-.05.12-.07.02-.01.18-.1.09-.05-.09.04.04-.02.07-.02.06-.02.11-.03.17-.05.04-.01.09-.02.14-.03-.12.02-.05,0,.03,0,.04,0,.1,0,.14,0,.08-.01-.11-.04.03,0,.04.01.09.03.13.03.16.03-.09-.05.06.02.39.19.86.11,1.09-.29.2-.35.1-.91-.29-1.09h0Z"/>
      <path class="cls-1" d="M38.9,9.05c-1.12-1.02-2.59-.19-3.36.83s-1.32,2.28-1.49,3.59c-.15,1.2.05,2.53.76,3.54.63.9,1.58,1.56,2.64,1.85,1.23.33,2.49.1,3.47-.72.33-.28.29-.85,0-1.13-.33-.33-.8-.28-1.13,0-.62.52-1.52.49-2.29.19s-1.44-.94-1.71-1.77c-.35-1.06-.19-2.21.23-3.23.22-.53.53-1.09.91-1.52.16-.18.35-.34.57-.44.03-.01.21-.07.2-.07.3,0,.05,0,.06.01.76.69,1.9-.44,1.13-1.13h0Z"/>
      <path class="cls-1" d="M40.8,14.18c1.14-1.13,2.33-2.45,2.27-4.16-.03-.77-.3-1.53-.85-2.08-.61-.6-1.56-.74-2.22-.14-1.14,1.05-.79,3.14-.63,4.48.22,1.85.67,3.64,1.38,5.36.2.49.91.87,1.34.35.56-.69.75-1.52,1.17-2.28.12-.21.24-.44.47-.42.38.03.65.58.78.87.41.94.63,2.08,1.63,2.61,1.37.73,2.14-1.19,2.71-2.08s-.83-1.68-1.38-.81c-.19.3-.38.6-.57.9-.09.14-.17.27-.26.41s-.23.24.04.17c.25-.07.12-.05.01-.19-.07-.09-.13-.19-.19-.3-.1-.19-.18-.4-.25-.6-.37-1-.83-2.09-1.92-2.48-.93-.33-1.84.14-2.35.92-.43.66-.53,1.53-1.03,2.14l1.34.35c-.51-1.23-.9-2.5-1.14-3.81-.12-.64-.21-1.29-.26-1.94-.05-.61-.13-1.28-.04-1.89.03-.18.13-.35.16-.52,0-.04.06-.08.08-.1-.13.09-.12-.02-.05.07.32.36.46.7.43,1.2-.06,1.16-1.03,2.05-1.8,2.82s.4,1.86,1.13,1.13h0Z"/>
      <path class="cls-1" d="M51.93,12.78c-.92-.88-2.35-.85-3.35-.11-1.11.83-1.29,2.29-.74,3.5.49,1.09,2.09,2.57,3.18,1.31,1.01-1.16,1.22-2.92.98-4.37l-1.54.43c.15.78.38,1.53.68,2.26.25.59.51,1.2,1,1.64,1.14,1.04,2.81.42,3.43-.87s.46-3.14.34-4.58c-.14-1.64-.45-3.26-.94-4.83-.27-.85-1.57-.71-1.57.21,0,2.69.47,5.38,1.48,7.88.41,1.01.96,2.13,2.1,2.45,1.03.29,2.12-.18,2.49-1.2s-1.19-1.39-1.54-.43c-.05.13-.34.12-.44.11-.27-.05-.48-.29-.63-.5-.5-.71-.75-1.64-1-2.46-.58-1.9-.86-3.86-.85-5.85l-1.57.21c.73,2.34,1.09,4.8.93,7.25-.03.45-.09,1-.43,1.33-.26.26-.54.29-.78.01-.32-.35-.49-.88-.65-1.32-.21-.57-.37-1.16-.48-1.75-.08-.42-.59-.67-.98-.56-.45.12-.63.56-.56.98.09.54.06,1.1-.08,1.62-.09.36-.29,1.16-.65,1.31l.4-.11c-.34.03-.73-.6-.85-.87-.16-.35-.22-.79-.07-1.15.24-.56,1.12-.88,1.59-.43.74.71,1.88-.42,1.13-1.13h0Z"/>
      <path class="cls-1" d="M51.75,11.15l5.5-.46c.43-.04.8-.34.8-.8,0-.41-.37-.84-.8-.8l-5.5.46c-.43.04-.8.34-.8.8,0,.41.37.84.8.8h0Z"/>
      <path class="cls-1" d="M61.72,7.47c-.21,2,.02,4.05.66,5.97.14.41.55.68.98.56.4-.11.7-.57.56-.98-.6-1.8-.8-3.66-.6-5.54.04-.43-.4-.8-.8-.8-.47,0-.75.37-.8.8h0Z"/>
      <path class="cls-1" d="M63.01,17.31s.02,0,.02.02l-.16-.13s.01.01.02.02l-.13-.16s0,.01.01.02l-.08-.19s0,.01,0,.02l-.03-.21s0,.01,0,.02l.03-.21s0,.02,0,.03l.08-.19s-.01.03-.02.04l.13-.16s-.03.03-.05.05l.16-.13s-.04.03-.06.04l.19-.08s-.03.01-.05.01l.21-.03s-.02,0-.03,0l.21.03s-.02,0-.02,0l.19.08s-.01,0-.02,0l.16.13s0,0-.01-.01l.13.16s0-.01-.01-.02l.08.19s0-.02,0-.03l.03.21s0,0,0,0c0-.11-.02-.21-.07-.31-.03-.1-.09-.19-.17-.26-.07-.08-.16-.13-.26-.17-.1-.05-.2-.07-.31-.07l-.21.03c-.14.04-.25.11-.35.21l-.13.16c-.07.12-.11.26-.11.4,0,.08.02.15.03.23,0,0,0,.01,0,.02.03.07.05.15.09.21,0,0,0,0,0,0,.01.01.11.15.13.16,0,0,0,0,0,0,0,0,0,0,0,0,.01.01.15.12.16.13,0,0,0,0,0,0,0,0,0,0,0,0,.06.04.13.06.2.09s.27.04.23.03c0,0,.02,0,.02,0,0,0,0,0,0,0,.04,0,.17-.02.21-.03,0,0,0,0,0,0,0,0,0,0,.01,0,0,0,.02,0,.03,0,.07-.03.15-.06.22-.09,0,0,.02,0,.03-.02.06-.04.12-.09.19-.14,0,0,.02-.01.02-.02s.01-.01.02-.02c.04-.05.09-.11.13-.17,0,0,0,0,0,0,0,0,0,0,0-.01.09-.17.11-.26.12-.45,0,0,0,0,0-.01,0-.08-.01-.15-.03-.22,0,0,0,0,0-.01,0-.01-.07-.18-.08-.19,0,0,0,0,0,0,0,0,0,0,0,0-.04-.06-.08-.12-.13-.17,0,0,0,0-.01-.01-.06-.05-.11-.09-.17-.13,0,0-.01,0-.02,0-.09-.06-.19-.09-.3-.09-.11-.02-.21-.02-.32.01-.1.02-.19.07-.27.14-.09.06-.16.13-.21.22l-.08.19c-.04.14-.04.28,0,.43l.08.19c.07.12.17.22.29.29h0Z"/>
      <path class="cls-2" d="M21.91,1.28c-3.29.35-6.57.7-9.86,1.05-2.74.29-5.61.49-8.16,1.61C1.56,4.96.23,6.75.05,9.3c-.2,2.97.19,6.13.54,9.08.28,2.33.81,4.82,2.62,6.46,1.69,1.54,3.98,2,6.2,2.12,3,.16,6.05-.08,9.05-.16,3.32-.09,6.65-.18,9.97-.26,6.73-.18,13.46-.36,20.19-.54,3.38-.09,6.76-.15,10.14-.28,2.86-.11,6.03-.16,8.75-1.12,2.35-.83,3.58-2.66,4.05-5.04.54-2.76.72-5.7.35-8.49-.65-4.94-3.68-9.89-8.91-10.85-3.29-.61-6.69.18-9.99.32-3.53.16-7.07.18-10.61.18-6.84-.01-13.69-.1-20.51.55-1.02.1-1.03,1.7,0,1.6,10.9-1.04,21.86-.02,32.77-.82,2.61-.19,5.31-.76,7.92-.29s4.56,2.01,5.9,4.15c1.44,2.29,1.97,4.99,2,7.67.03,2.39.03,5.54-1.19,7.69-1.32,2.34-4.82,2.44-7.18,2.65-2.91.26-5.85.27-8.77.35-5.98.16-11.97.32-17.95.48s-11.63.31-17.45.46c-2.72.07-5.46.26-8.18.16-2.33-.08-4.91-.55-6.28-2.64-1.55-2.37-1.49-5.72-1.68-8.44S.83,7.63,3.63,5.86c2.42-1.52,5.66-1.64,8.42-1.93,3.29-.35,6.57-.7,9.86-1.05,1.01-.11,1.02-1.71,0-1.6h0Z"/>
    </g>
  </g>
</svg>