<svg width="38" height="37" viewBox="0 0 38 37" fill="none" xmlns="http://www.w3.org/2000/svg">
<path d="M1.25244 0.781069C0.211044 1.82247 0.211045 3.51091 1.25244 4.5523L14.9232 18.223L0.781048 32.3652C-0.26035 33.4065 -0.260349 35.095 0.781049 36.1364C1.82245 37.1778 3.51089 37.1778 4.55229 36.1364L18.6944 21.9943L32.8365 36.1364C33.8779 37.1778 35.5664 37.1778 36.6078 36.1364C37.6492 35.095 37.6492 33.4066 36.6078 32.3652L22.4656 18.223L36.1364 4.55228C37.1778 3.51089 37.1778 1.82245 36.1364 0.78105C35.095 -0.260348 33.4065 -0.260351 32.3652 0.781047L18.6944 14.4518L5.02368 0.781067C3.98228 -0.26033 2.29384 -0.26033 1.25244 0.781069Z" fill="#EF3F36"/>
</svg>
