<?xml version="1.0" encoding="UTF-8"?>
<svg id="Layer_2" data-name="Layer 2" xmlns="http://www.w3.org/2000/svg" viewBox="0 0 23.13 31.64">
  <defs>
    <style>
      .cls-1 {
        fill: #312f2f;
      }
    </style>
  </defs>
  <g id="CSS">
    <g>
      <path class="cls-1" d="M.63,6.68c7.29-.27,14.58-.27,21.87.01.8.03.8-1.22,0-1.25-7.29-.28-14.58-.29-21.87-.01-.8.03-.81,1.28,0,1.25h0Z"/>
      <path class="cls-1" d="M21.87,6.07c-.83,7.33-1.3,14.7-1.84,22.05-.06.8,1.19.8,1.25,0,.54-7.36,1.01-14.72,1.84-22.05.09-.8-1.16-.79-1.25,0h0Z"/>
      <path class="cls-1" d="M11.64,31.61c3.07-.9,6.12-1.86,9.19-2.76.77-.23.44-1.43-.33-1.21-3.07.9-6.12,1.86-9.19,2.76-.77.23-.44,1.43.33,1.21h0Z"/>
      <path class="cls-1" d="M0,6.06c.74,7.4,1.48,14.79,2.22,22.19.08.79,1.33.8,1.25,0-.74-7.4-1.48-14.79-2.22-22.19-.08-.79-1.33-.8-1.25,0H0Z"/>
      <path class="cls-1" d="M2.68,28.85c2.87.92,5.75,1.84,8.62,2.76.77.25,1.1-.96.33-1.21-2.87-.92-5.75-1.84-8.62-2.76-.77-.25-1.1.96-.33,1.21h0Z"/>
      <path class="cls-1" d="M6.35,13.53l11.43.07c1.61,0,1.61-2.49,0-2.5l-11.43-.07c-1.61,0-1.61,2.49,0,2.5h0Z"/>
      <path class="cls-1" d="M17.19,11.29c-3.68,1.34-7.22,3.04-10.56,5.08-1.37.84-.12,3,1.26,2.16,3.16-1.93,6.49-3.55,9.97-4.83.63-.23,1.06-.85.87-1.54-.17-.61-.9-1.11-1.54-.87h0Z"/>
      <path class="cls-1" d="M7.26,18.7c3.24.05,6.47.13,9.71.18,1.61.02,1.61-2.48,0-2.5-3.24-.05-6.47-.13-9.71-.18-1.61-.02-1.61,2.48,0,2.5h0Z"/>
      <path class="cls-1" d="M15.72,17.63c-.24,2.12-.22,4.26-.46,6.37-.07.65.63,1.28,1.25,1.25.74-.03,1.17-.55,1.25-1.25.24-2.12.22-4.26.46-6.37.07-.65-.63-1.28-1.25-1.25-.74.03-1.17.55-1.25,1.25h0Z"/>
      <path class="cls-1" d="M12.37,26.4c1.48-.45,3-.75,4.47-1.2.62-.19,1.08-.88.87-1.54s-.87-1.08-1.54-.87c-1.48.45-3,.75-4.47,1.2-.62.19-1.08.88-.87,1.54s.87,1.08,1.54.87h0Z"/>
      <path class="cls-1" d="M6.13,21.8l.05,2.13c0,.32.13.65.37.88.22.22.57.38.88.37s.66-.12.88-.37.37-.55.37-.88l-.05-2.13c0-.32-.13-.65-.37-.88-.22-.22-.57-.38-.88-.37s-.66.12-.88.37-.37.55-.37.88h0Z"/>
      <path class="cls-1" d="M7.16,25.21c1.55.27,3.03.79,4.55,1.19.63.17,1.39-.21,1.54-.87s-.2-1.36-.87-1.54c-1.52-.4-3-.92-4.55-1.19-.34-.06-.66-.05-.96.13-.26.15-.51.45-.57.75-.14.61.18,1.42.87,1.54h0Z"/>
      <path class="cls-1" d="M6.07,1.31l2.22-.06c.33,0,.64-.28.62-.62S8.65,0,8.3,0l-2.22.06c-.33,0-.64.28-.62.62s.27.63.62.62h0Z"/>
      <path class="cls-1" d="M5.48.75l-.03,2.72c0,.33.29.64.62.62s.62-.27.62-.62l.03-2.72c0-.33-.29-.64-.62-.62s-.62.27-.62.62h0Z"/>
      <path class="cls-1" d="M6.07,4.1c.76-.03,1.52-.03,2.29-.06.33-.01.64-.28.62-.62-.01-.33-.28-.64-.62-.62-.76.03-1.52.03-2.29.06-.33.01-.64.28-.62.62.01.33.28.64.62.62h0Z"/>
      <path class="cls-1" d="M13.34.03c-.77,0-1.55.02-2.32.03-.33,0-.64.29-.62.62s.27.63.62.62c.77,0,1.55-.02,2.32-.03.33,0,.64-.29.62-.62S13.69.03,13.34.03h0Z"/>
      <path class="cls-1" d="M10.48,1l2.04,2.69c.1.14.2.24.37.29.15.04.35.02.48-.06.26-.17.44-.58.22-.86L11.56.37c-.1-.14-.2-.24-.37-.29-.15-.04-.35-.02-.48.06-.26.17-.44.58-.22.86h0Z"/>
      <path class="cls-1" d="M10.99,4.08c.69-.01,1.38-.03,2.07-.04.33,0,.64-.28.62-.62s-.27-.63-.62-.62c-.69.01-1.38.03-2.07.04-.33,0-.64.28-.62.62s.27.63.62.62h0Z"/>
      <path class="cls-1" d="M15.91,1.3c.75-.03,1.5.01,2.25-.02.33-.01.64-.28.62-.62-.01-.33-.28-.64-.62-.62-.75.03-1.5-.01-2.25.02-.33.01-.64.28-.62.62.01.33.28.64.62.62h0Z"/>
      <path class="cls-1" d="M15.46,1.12c.09.11.18.21.26.32.02.03.05.06.07.09.05.06.01.02-.01-.02.04.05.08.11.13.17.18.24.36.48.54.72.36.49.73.99,1.12,1.46.21.25.67.23.88,0,.25-.27.23-.62,0-.88-.09-.11-.18-.21-.26-.32-.02-.03-.05-.06-.07-.09-.05-.06-.01-.02.01.02-.04-.05-.08-.11-.13-.17-.18-.24-.36-.48-.54-.72-.36-.49-.73-.99-1.12-1.46-.21-.25-.67-.23-.88,0-.25.27-.23.62,0,.88h0Z"/>
      <path class="cls-1" d="M15.81,4.01c.73.02,1.46,0,2.19.03.33,0,.64-.29.62-.62s-.27-.62-.62-.62c-.73-.02-1.46,0-2.19-.03-.33,0-.64.29-.62.62s.27.62.62.62h0Z"/>
    </g>
  </g>
</svg>