<?xml version="1.0" encoding="UTF-8"?>
<svg id="Layer_2" data-name="Layer 2" xmlns="http://www.w3.org/2000/svg" viewBox="0 0 177.22 61.81">
  <defs>
    <style>
      .cls-1 {
        fill: #ef3f36;
      }
    </style>
  </defs>
  <g id="Texto">
    <g>
      <path class="cls-1" d="M2.09,33.58C11.99,22.26,25.5,15.05,39.55,10.2c7.53-2.6,15.3-4.69,23.12-6.2,8.38-1.62,17.21-2.35,25.56-.17,7.64,1.99,14.83,6.36,18.93,13.26l1.08-1.88c-3.81.06-7.53-.74-10.95-2.42-1.19-.59-2.66.98-1.51,1.96,3.61,3.11,7.58,5.74,11.87,7.81.78.38,1.53.04,1.84-.75,1.55-3.94,3.11-7.88,4.66-11.82.59-1.5-1.83-2.15-2.41-.66-1.55,3.94-3.11,7.88-4.66,11.82l1.84-.75c-4.1-1.98-7.91-4.45-11.36-7.42l-1.51,1.96c3.82,1.88,7.95,2.83,12.21,2.77.94-.01,1.57-1.05,1.08-1.88-3.78-6.34-9.94-10.76-16.79-13.28-8-2.94-16.68-3.02-25.03-1.88s-16.96,3.36-25.15,5.96c-7.41,2.36-14.69,5.26-21.52,9.02C13.17,19.87,6.1,25.21.33,31.81c-1.06,1.21.71,2.98,1.77,1.77h0Z"/>
      <path class="cls-1" d="M82.46,45.04c-1.99-.21-4.29-.2-5.69,1.47s-1.45,4.37-1.24,6.51c.23,2.29.93,4.48,2.46,6.23,1.34,1.53,3.36,2.63,5.43,2.56,2.37-.09,4.43-1.44,5.34-3.63.26-.62-.28-1.37-.87-1.54-.72-.2-1.28.25-1.54.87-.61,1.46-2.54,2.05-3.97,1.69-1.76-.45-3.1-1.96-3.74-3.61-.73-1.89-.99-4.36-.49-6.34.21-.85.66-1.47,1.53-1.7s1.88-.11,2.78,0c.67.07,1.25-.63,1.25-1.25,0-.74-.58-1.18-1.25-1.25h0Z"/>
      <path class="cls-1" d="M88.81,46.24c.39,4.24,1.57,8.63,3.8,12.29.53.87,1.32,1.58,2.4,1.57.99,0,1.77-.68,2.29-1.46s.73-1.66.93-2.55c.24-1.04.45-2.08.59-3.14.33-2.43.22-4.8-.79-7.06-.25-.56-1.05-.74-1.56-.51-.61.27-.83.84-.72,1.47.83,4.89,3.92,9.27,8.19,11.78,1.39.82,2.65-1.34,1.26-2.16-3.76-2.21-6.31-6-7.04-10.29l-2.28.96c.81,1.8.75,3.89.44,5.8-.17,1.07-.39,2.15-.66,3.2-.08.32-.37,1.41-.73,1.45.22-.03.04.03,0-.11-.05-.19-.29-.46-.39-.65-.25-.45-.48-.91-.7-1.37-.45-.95-.84-1.92-1.18-2.92-.69-2.05-1.15-4.17-1.35-6.32-.06-.67-.53-1.25-1.25-1.25-.63,0-1.31.57-1.25,1.25h0Z"/>
      <path class="cls-1" d="M103.59,43.62c1.19,4.63,2.54,9.21,4.04,13.74l2.28-.96c-1.12-2.42-2.03-4.94-2.74-7.51-.55-2-1.47-5.05-.06-6.91.15-.2.53-.63.81-.57.37.08.53.82.61,1.11.32,1.11.34,2.27.15,3.41-.42,2.53-1.65,4.85-2.86,7.07l2.16,1.26c.91-1.72,3.44-.34,4.63.22,1.92.91,4.13,1.58,6.1.38,1.37-.84.12-3-1.26-2.16-1.93,1.18-4.44-1.01-6.27-1.52-1.94-.55-4.34-.09-5.35,1.82-.75,1.42,1.39,2.68,2.16,1.26,1.22-2.25,2.44-4.59,3-7.11.49-2.22.59-5.17-.87-7.08-1.71-2.23-4.57-.83-5.53,1.33-1.07,2.4-.63,5.09,0,7.54.78,3,1.86,5.9,3.15,8.71.59,1.28,2.73.38,2.28-.96-1.5-4.54-2.84-9.12-4.04-13.74-.4-1.56-2.81-.9-2.41.66h0Z"/>
      <path class="cls-1" d="M116.78,41.57c.16,2.18.65,4.29,1.5,6.31.41.98.88,1.92,1.45,2.82.27.42.55.84.85,1.24.2.26.39.52.6.77.08.1.16.19.24.29.04.05.08.1.12.14.09.1.08.1-.02-.02v-.66l-.04.16.32-.55-.06.06.88-.37.39.1.45.45-.04-.06.17.63v-.06c-.12.29-.25.59-.37.88l.06-.05c.52-.44.45-1.32,0-1.77-.51-.51-1.25-.44-1.77,0-.72.61-.45,1.76.31,2.19.85.48,1.9,0,2.11-.94s-.52-1.59-1.04-2.25c-.42-.53-.8-1.1-1.15-1.67-1.4-2.31-2.26-4.93-2.46-7.62-.05-.67-.54-1.25-1.25-1.25-.64,0-1.3.57-1.25,1.25h0Z"/>
      <path class="cls-1" d="M116.37,36.38c1.61,0,1.61-2.5,0-2.5s-1.61,2.5,0,2.5h0Z"/>
      <path class="cls-1" d="M125.37,38.23c-.7,2.77-.5,5.74.58,8.39.55,1.35,1.28,2.58,2.21,3.71s2.14,2.38,3.58,2.62c3.24.54,4.4-3.38,4.61-5.85.25-2.97-.43-6.23-2.54-8.44s-5.83-3.2-8.68-1.62c-1.41.78-.15,2.94,1.26,2.16,1.63-.9,3.69-.41,5.09.72,1.74,1.4,2.39,3.72,2.41,5.88.01,1.1-.05,2.28-.45,3.32-.19.51-.68,1.43-1.21,1.4-.4-.02-.77-.4-1.06-.65-.45-.4-.87-.83-1.24-1.29-.65-.79-1.19-1.72-1.59-2.66-.93-2.21-1.15-4.68-.56-7,.39-1.56-2.02-2.23-2.41-.66h0Z"/>
      <path class="cls-1" d="M136.12,36.67c.69,2.7,1.62,5.32,2.78,7.85.86,1.9,2.63,5.62,5.35,4.03,1.01-.59,1.58-1.85,2.01-2.88.46-1.11.73-2.26.85-3.46.24-2.42-.33-4.89-1.55-6.99-.83-1.43-2.79-.18-2.16,1.26,1.39,3.19,2.99,6.59,5.18,9.31.89,1.11,2.16,2,3.64,1.94s2.75-.92,3.08-2.34c.37-1.56-2.04-2.23-2.41-.66-.15.66-1.02.57-1.49.31-.96-.54-1.54-1.71-2.1-2.62-1.42-2.31-2.66-4.72-3.75-7.2l-2.16,1.26c.9,1.55,1.32,3.29,1.25,5.08-.03.84-.19,1.67-.44,2.47-.12.39-.27.77-.46,1.14-.13.27-.42,1.03-.7,1.15-.75.33-2.24-3.58-2.49-4.19-.83-1.99-1.5-4.05-2.04-6.14-.4-1.56-2.81-.9-2.41.66h0Z"/>
      <path class="cls-1" d="M157.53,26.93c-2.38.86-5.05,2.1-5.54,4.88-.45,2.54,1.46,4.23,3.53,5.25,2.19,1.08,5.01,2.22,6.32,4.43,1.55,2.61-3.05,3.98-4.87,4.26-.67.1-1.03.94-.87,1.54.19.71.87.98,1.54.87,2.37-.37,5.45-1.57,6.63-3.83,1.33-2.57-.64-5.04-2.59-6.57-1.11-.87-2.29-1.62-3.56-2.24-.95-.46-1.99-.85-2.83-1.5-.91-.72-1.12-1.74-.43-2.71.77-1.08,2.15-1.55,3.34-1.98,1.5-.54.85-2.96-.66-2.41h0Z"/>
      <path class="cls-1" d="M169.01,20.3c.3-1.43,2.07-2.18,3.1-.91.97,1.2.4,3.18.08,4.51-.48,1.96-1.13,3.96-1.38,5.96-.19,1.5.09,3.32,1.63,4.01.62.28,1.34.18,1.71-.45.31-.53.17-1.43-.45-1.71-.56-.25-.49-.91-.44-1.47.1-1.02.45-2.03.69-3.02.51-2.1,1.34-4.39,1.13-6.58s-1.5-4.01-3.73-4.33-4.29,1.15-4.76,3.33c-.34,1.57,2.07,2.24,2.41.66h0Z"/>
      <path class="cls-1" d="M175.08,43.02l-.58.58c-.12.11-.21.25-.26.4-.08.15-.11.31-.11.48,0,.17.03.33.11.48.05.15.14.29.26.4l.25.2c.19.11.41.17.63.17l.33-.04c.21-.06.4-.17.55-.32l.58-.58c.12-.11.21-.25.26-.4.08-.15.11-.31.11-.48,0-.17-.03-.33-.11-.48-.05-.15-.14-.29-.26-.4l-.25-.2c-.19-.11-.41-.17-.63-.17l-.33.04c-.21.06-.4.17-.55.32h0Z"/>
    </g>
  </g>
</svg>