<svg width="204" height="61" viewBox="0 0 204 61" fill="none" xmlns="http://www.w3.org/2000/svg">
<path d="M162.416 22.863C158.402 22.863 155.842 28.5983 155.258 32.0189C153.805 40.5312 165.703 39.2903 169.907 36.3471" stroke="#312F2F" stroke-width="4" stroke-linecap="round" stroke-linejoin="round"/>
<path d="M172.417 23.8743C174.456 23.8743 178.847 35.1363 180.157 37.0671C180.697 37.8621 181.859 39.4709 182.113 37.5665C182.927 31.4628 183.359 25.4285 184.402 19.3796" stroke="#312F2F" stroke-width="4" stroke-linecap="round" stroke-linejoin="round"/>
<path d="M23.0957 26.9081C23.0957 31.2722 24.1335 35.5962 24.5107 39.9345C24.8357 43.6722 24.3074 39.9202 24.2194 38.8108C23.9352 35.2299 23.605 31.4681 24.261 27.907C25.1068 23.3154 27.5181 22.9939 30.4204 26.8249C32.3168 29.3281 34.4264 32.7586 33.0007 35.9808C31.1665 40.126 28.0072 40.6635 24.5939 42.6396" stroke="#312F2F" stroke-width="4" stroke-linecap="round" stroke-linejoin="round"/>
<path d="M37.3281 27.6572C37.3281 30.2324 39.7824 47.7364 45.069 40.1841C48.4688 35.3273 42.4315 28.4063 37.3281 28.4063" stroke="#312F2F" stroke-width="4" stroke-linecap="round" stroke-linejoin="round"/>
<path d="M50.8125 29.9045C50.8125 34.3898 53.4096 46.8292 55.6401 36.3136C56.9073 30.3399 62.6315 41.3233 65.7948 40.8083C69.1892 40.2557 66.156 30.2119 65.7948 28.4062" stroke="#312F2F" stroke-width="4" stroke-linecap="round" stroke-linejoin="round"/>
<path d="M70.29 29.1555C70.29 32.684 70.5844 36.1306 71.4553 39.5599C72.1522 42.3038 72.0797 35.6426 72.2461 34.7739C74.2761 24.1727 78.9635 36.0148 80.7777 39.6432" stroke="#312F2F" stroke-width="4" stroke-linecap="round" stroke-linejoin="round"/>
<path d="M86.7704 36.6466C87.0284 35.3567 91.7861 14.8683 86.9369 16.9199C83.8138 18.2412 87.4838 30.3511 88.3935 32.36C89.7616 35.3812 93.4142 39.6379 97.2581 38.7275C99.9162 38.098 100.687 35.1565 100.962 32.8178C101.201 30.7865 102.843 36.9042 104.749 37.6455C109.182 39.3692 110.674 30.3359 108.245 27.9069C105.982 25.6437 101.934 25.4178 100.255 27.6572" stroke="#312F2F" stroke-width="4" stroke-linecap="round" stroke-linejoin="round"/>
<path d="M118.233 28.4062C116.495 27.9718 114.382 26.6867 112.573 27.4906C107.538 29.7285 111.052 44.3509 115.902 40.4337C118.789 38.1025 118.982 26.0279 118.982 29.738C118.982 35.5041 120.176 37.7179 125.724 38.1447" stroke="#312F2F" stroke-width="4" stroke-linecap="round" stroke-linejoin="round"/>
<path d="M133.964 29.1554C131.814 28.0804 127.155 25.5601 125.474 28.6977C122.05 35.0902 128.827 43.289 132.299 34.6074C134.098 30.1103 132.993 15.3681 131.883 20.0828C131.182 23.0643 132.863 27.2629 133.714 29.9878C134.357 32.0454 135.043 34.2977 136.295 36.1056C138.101 38.7141 139.048 37.457 141.455 38.1449" stroke="#312F2F" stroke-width="4" stroke-linecap="round" stroke-linejoin="round"/>
<path d="M16.5497 6.51167C22.5347 5.96757 28.7397 6.45549 34.7517 6.45549C38.6367 3.86554 46.2794 5.44426 50.9313 5.44426H68.7402C78.3099 5.44426 87.7877 4.43304 97.4477 4.43304C109.834 4.43304 122.034 2.41059 134.357 2.41059C148.064 2.41059 162.233 1.35147 175.874 2.6353C183.351 3.33902 196.49 2.40644 199.525 11.5116C202.272 19.7505 203.083 29.7596 200.143 38.2529C198.047 44.3082 192.068 53.493 185.312 54.9943C175.892 57.0877 166.977 54.9943 157.56 54.9943C147.734 54.9943 138.067 56.0056 128.234 56.0056C103.893 56.0056 79.9054 58.028 55.6504 58.028C43.2866 58.028 31.1262 57.3442 18.9092 55.4438C7.37922 53.6502 2.3925 45.6954 2.3925 34.5451C2.3925 29.3305 1.18296 22.5085 3.01047 17.6352C4.64581 13.2742 11.6642 6.9558 16.5497 6.51167Z" stroke="#1E1E1E" stroke-width="4" stroke-linecap="round" stroke-linejoin="round"/>
</svg>
