<svg width="204" height="61" viewBox="0 0 204 61" fill="none" xmlns="http://www.w3.org/2000/svg">
<path d="M162.416 22.8911C158.402 22.8911 155.842 28.6264 155.258 32.047C153.805 40.5593 165.703 39.3184 169.907 36.3752" stroke="#EF3F36" stroke-width="4" stroke-linecap="round" stroke-linejoin="round"/>
<path d="M172.417 23.9024C174.456 23.9024 178.847 35.1644 180.157 37.0952C180.697 37.8902 181.859 39.499 182.113 37.5946C182.927 31.4909 183.359 25.4565 184.402 19.4077" stroke="#EF3F36" stroke-width="4" stroke-linecap="round" stroke-linejoin="round"/>
<path d="M23.0957 26.9362C23.0957 31.3003 24.1335 35.6242 24.5107 39.9625C24.8357 43.7003 24.3074 39.9482 24.2194 38.8389C23.9352 35.2579 23.605 31.4962 24.261 27.935C25.1068 23.3435 27.5181 23.022 30.4204 26.853C32.3168 29.3562 34.4264 32.7867 33.0007 36.0089C31.1665 40.1541 28.0072 40.6916 24.5939 42.6677" stroke="#EF3F36" stroke-width="4" stroke-linecap="round" stroke-linejoin="round"/>
<path d="M37.3281 27.6853C37.3281 30.2605 39.7824 47.7644 45.069 40.2122C48.4688 35.3553 42.4315 28.4344 37.3281 28.4344" stroke="#EF3F36" stroke-width="4" stroke-linecap="round" stroke-linejoin="round"/>
<path d="M50.8125 29.9326C50.8125 34.4179 53.4096 46.8573 55.6401 36.3417C56.9073 30.368 62.6315 41.3513 65.7948 40.8364C69.1892 40.2838 66.156 30.24 65.7948 28.4343" stroke="#EF3F36" stroke-width="4" stroke-linecap="round" stroke-linejoin="round"/>
<path d="M70.29 29.1836C70.29 32.712 70.5844 36.1586 71.4553 39.588C72.1522 42.3319 72.0797 35.6706 72.2461 34.802C74.2761 24.2008 78.9635 36.0429 80.7777 39.6712" stroke="#EF3F36" stroke-width="4" stroke-linecap="round" stroke-linejoin="round"/>
<path d="M86.7704 36.6747C87.0284 35.3848 91.7861 14.8964 86.9369 16.948C83.8138 18.2693 87.4838 30.3792 88.3935 32.3881C89.7616 35.4093 93.4142 39.666 97.2581 38.7556C99.9162 38.1261 100.687 35.1846 100.962 32.8459C101.201 30.8146 102.843 36.9322 104.749 37.6735C109.182 39.3973 110.674 30.364 108.245 27.935C105.982 25.6718 101.934 25.4459 100.255 27.6853" stroke="#EF3F36" stroke-width="4" stroke-linecap="round" stroke-linejoin="round"/>
<path d="M118.233 28.4343C116.495 27.9999 114.382 26.7148 112.573 27.5187C107.538 29.7565 111.052 44.379 115.902 40.4618C118.789 38.1306 118.982 26.056 118.982 29.766C118.982 35.5322 120.176 37.746 125.724 38.1728" stroke="#EF3F36" stroke-width="4" stroke-linecap="round" stroke-linejoin="round"/>
<path d="M133.964 29.1835C131.814 28.1085 127.155 25.5882 125.474 28.7257C122.05 35.1182 128.827 43.3171 132.299 34.6354C134.098 30.1384 132.993 15.3961 131.883 20.1109C131.182 23.0924 132.863 27.291 133.714 30.0159C134.357 32.0735 135.043 34.3258 136.295 36.1337C138.101 38.7422 139.048 37.485 141.455 38.1729" stroke="#EF3F36" stroke-width="4" stroke-linecap="round" stroke-linejoin="round"/>
<path d="M16.5497 6.53975C22.5347 5.99565 28.7397 6.48357 34.7517 6.48357C38.6367 3.89362 46.2794 5.47234 50.9313 5.47234H68.7402C78.3099 5.47234 87.7877 4.46111 97.4477 4.46111C109.834 4.46111 122.034 2.43866 134.357 2.43866C148.064 2.43866 162.233 1.37955 175.874 2.66338C183.351 3.3671 196.49 2.43452 199.525 11.5397C202.272 19.7786 203.083 29.7876 200.143 38.281C198.047 44.3363 192.068 53.521 185.312 55.0224C175.892 57.1158 166.977 55.0224 157.56 55.0224C147.734 55.0224 138.067 56.0336 128.234 56.0336C103.893 56.0336 79.9054 58.0561 55.6504 58.0561C43.2866 58.0561 31.1262 57.3723 18.9092 55.4718C7.37922 53.6783 2.3925 45.7235 2.3925 34.5732C2.3925 29.3586 1.18296 22.5366 3.01047 17.6632C4.64581 13.3023 11.6642 6.98388 16.5497 6.53975Z" stroke="#1E1E1E" stroke-width="4" stroke-linecap="round" stroke-linejoin="round"/>
</svg>
