<svg width="391" height="78" viewBox="0 0 391 78" fill="none" xmlns="http://www.w3.org/2000/svg">
<path d="M3.91406 10.9075C3.91406 31.9156 6.18176 58.3722 8.70055 76.0037" stroke="#132FBA" stroke-width="4" stroke-linecap="round" stroke-linejoin="round"/>
<path d="M2 14.7367C8.66204 14.7367 15.498 11.8511 22.1033 10.9075" stroke="#132FBA" stroke-width="4" stroke-linecap="round" stroke-linejoin="round"/>
<path d="M4.87207 42.4983C10.6173 41.9238 16.3296 41.541 22.1034 41.541" stroke="#132FBA" stroke-width="4" stroke-linecap="round" stroke-linejoin="round"/>
<path d="M41.2489 36.7545C58.1453 19.8581 49.9726 88.0944 36.3561 73.9827C34.9459 72.5213 33.1047 65.3426 36.037 64.4629C40.3422 63.1714 46.7466 67.1432 50.3964 68.9835C54.3254 70.9645 60.4891 74.9634 65.1814 74.1423C70.4101 73.2273 71.9091 66.5871 73.797 62.6015" stroke="#132FBA" stroke-width="4" stroke-linecap="round" stroke-linejoin="round"/>
<path d="M116.875 41.5406C116.875 48.3801 117.581 55.4944 119.002 62.1757C119.652 65.2279 122.356 74.6591 127.405 72.3869C132.971 69.8825 134.819 59.8398 135.595 54.6237C135.842 52.9695 135.54 51.2264 136.021 49.6245C136.851 46.857 137.323 55.2583 138.148 58.0274C139.248 61.7204 143.361 75.7683 150.274 72.3869C156.749 69.2199 154.161 51.7964 153.678 46.2739C153.372 42.775 152.83 40.1364 153.252 36.7542" stroke="#132FBA" stroke-width="4" stroke-linecap="round" stroke-linejoin="round"/>
<path d="M163.784 53.0284C167.585 53.0284 171.394 52.2628 175.005 51.1138C182.674 48.674 178.73 42.2793 172.559 41.1686C165.006 39.809 159.754 49.7643 161.018 56.5385C162.188 62.8034 167.677 67.7594 173.888 68.7707C180.753 69.8881 185.125 65.6609 190.588 62.6014" stroke="#132FBA" stroke-width="4" stroke-linecap="round" stroke-linejoin="round"/>
<path d="M190.587 22.395C191.999 32.9841 193.432 43.5845 195.373 54.0922C195.823 56.5247 196.123 62.7516 198.033 64.8352C198.313 65.1411 198.371 64.071 198.458 63.6652C199.088 60.7271 199.758 57.8262 200.798 54.9963C204.487 44.9616 217.869 41.8986 219.838 54.89C220.607 59.9681 217.951 63.9182 213.828 66.6435C208.857 69.9295 206.398 69.5499 202.074 67.388" stroke="#132FBA" stroke-width="4" stroke-linecap="round" stroke-linejoin="round"/>
<path d="M236.537 43.4554C232.691 42.4939 229.983 43.2432 227.177 46.1146C222.096 51.3136 228.59 55.0971 233.24 56.8576C238.065 58.6846 248.318 63.3933 244.089 70.4725C240.201 76.9804 231.542 75.1412 226.964 71.2171" stroke="#132FBA" stroke-width="4" stroke-linecap="round" stroke-linejoin="round"/>
<path d="M253.77 49.1992C251.797 51.1722 254.01 58.731 254.248 60.8995C254.441 62.653 255.684 74.8401 255.684 73.1317" stroke="#132FBA" stroke-width="4" stroke-linecap="round" stroke-linejoin="round"/>
<path d="M250.898 35.7968C250.898 38.7983 254.307 34.1771 251.43 34.9991C248.32 35.8877 254.708 37.7014 250.898 35.7968Z" stroke="#132FBA" stroke-width="4" stroke-linecap="round" stroke-linejoin="round"/>
<path d="M249.939 35.7973C250.889 35.7973 253.129 32.6076 251.854 33.8827" stroke="#132FBA" stroke-width="4" stroke-linecap="round" stroke-linejoin="round"/>
<path d="M267.171 66.4306C270.566 66.4306 275.372 52.7511 276.106 50.4757C278.244 43.8478 278.616 36.8565 278.658 29.947C278.67 28.0958 279.508 19.3095 277.276 18.0339C275.669 17.1158 276.738 21.7153 276.797 23.565C277.057 31.7551 277.752 39.983 279.35 48.0293C280.235 52.4886 282.021 65.3606 288.285 66.3243C294.226 67.2383 297.662 56.799 299.719 53.0285" stroke="#132FBA" stroke-width="4" stroke-linecap="round" stroke-linejoin="round"/>
<path d="M273.873 33.8826C279.412 33.8826 284.735 31.9128 290.147 31.0107" stroke="#132FBA" stroke-width="4" stroke-linecap="round" stroke-linejoin="round"/>
<path d="M302.592 49.1994C306.096 49.1994 312.785 47.8348 314.611 44.5192C318.613 37.2524 308.073 34.1545 303.709 38.8818C300.06 42.8346 299.808 51.562 301.369 56.4855C305.454 69.3709 316.682 64.0302 326.524 61.6442" stroke="#132FBA" stroke-width="4" stroke-linecap="round" stroke-linejoin="round"/>
<g clip-path="url(#clip0_522_142)">
<path d="M388.331 1.15002C388.271 20.78 388.681 40.4 388.331 60.03C388.321 60.83 389.571 60.83 389.581 60.03C389.931 40.4 389.521 20.78 389.581 1.15002C389.581 0.35002 388.331 0.34002 388.331 1.15002Z" fill="#312F2F" stroke="#231F20" stroke-miterlimit="10"/>
<path d="M369.681 8.95003C376.151 6.51003 382.661 4.19003 389.121 1.75003C389.871 1.47003 389.541 0.260034 388.791 0.540034C382.321 2.98003 375.811 5.30003 369.351 7.74003C368.601 8.02003 368.931 9.23003 369.681 8.95003Z" fill="#312F2F" stroke="#231F20" stroke-miterlimit="10"/>
<path d="M343.751 16.92C346.761 15.73 349.931 15.02 352.941 13.83C353.261 13.7 353.471 13.41 353.381 13.06C353.301 12.76 352.921 12.5 352.611 12.62C349.601 13.81 346.431 14.52 343.421 15.71C343.101 15.84 342.891 16.13 342.981 16.48C343.061 16.78 343.441 17.04 343.751 16.92Z" fill="#312F2F" stroke="#231F20" stroke-miterlimit="10"/>
<path d="M353.121 49.47C353.651 37.39 353.741 25.3 353.411 13.22C353.401 12.84 353.021 12.48 352.621 12.62C349.561 13.65 346.491 14.68 343.431 15.71C343.161 15.8 342.971 16.03 342.971 16.31C342.851 26.25 342.741 36.2 342.621 46.14C342.621 46.94 343.861 46.95 343.871 46.14C343.991 36.2 344.101 26.25 344.221 16.31L343.761 16.91C346.821 15.88 349.891 14.85 352.951 13.82L352.161 13.22C352.501 25.3 352.401 37.39 351.871 49.47C351.831 50.27 353.081 50.27 353.121 49.47Z" fill="#312F2F" stroke="#231F20" stroke-miterlimit="10"/>
<path d="M352.811 48.9301C349.811 47.4401 346.501 46.7801 343.411 45.5401C343.091 45.4101 342.731 45.6801 342.641 45.9801C342.541 46.3301 342.761 46.6201 343.081 46.7501C346.071 47.9501 349.291 48.5801 352.181 50.0201C352.901 50.3801 353.531 49.3001 352.811 48.9401V48.9301Z" fill="#312F2F" stroke="#231F20" stroke-miterlimit="10"/>
<path d="M358.621 51.38C368.821 53.61 379.111 56.2 388.641 60.57C389.371 60.9 390.001 59.83 389.271 59.49C379.641 55.07 369.271 52.43 358.951 50.18C358.171 50.01 357.831 51.21 358.621 51.39V51.38Z" fill="#312F2F" stroke="#231F20" stroke-miterlimit="10"/>
<path d="M358.491 34.83L358.171 50.77C358.151 51.57 359.401 51.57 359.421 50.77L359.741 34.83C359.761 34.03 358.511 34.03 358.491 34.83Z" fill="#312F2F" stroke="#231F20" stroke-miterlimit="10"/>
<path d="M359.271 35.42C362.871 35.47 366.471 35.47 370.071 35.42C370.401 35.42 370.701 35.14 370.691 34.8C370.651 32.86 370.451 30.93 370.091 29.02C370.041 28.75 369.741 28.56 369.491 28.56C365.931 28.55 362.381 28.53 358.821 28.52L359.441 29.14C359.481 24 359.441 18.87 359.331 13.73C359.311 12.93 358.061 12.92 358.081 13.73C358.201 18.86 358.241 24 358.191 29.14C358.191 29.48 358.481 29.76 358.811 29.76C362.371 29.77 365.921 29.79 369.481 29.8L368.881 29.34C369.221 31.14 369.401 32.95 369.431 34.79L370.051 34.17C366.451 34.22 362.851 34.21 359.251 34.17C358.451 34.16 358.451 35.41 359.251 35.42H359.271Z" fill="#312F2F" stroke="#231F20" stroke-miterlimit="10"/>
<path d="M358.711 14.3701C361.731 14.5601 364.751 14.6001 367.771 14.7601C368.351 14.7901 369.051 14.9401 369.571 14.6101C370.091 14.2801 370.181 13.6801 370.201 13.1301C370.241 11.5401 370.191 9.94009 370.141 8.35009C370.121 7.55009 368.871 7.54009 368.891 8.35009C368.931 9.70009 368.951 11.0501 368.951 12.4001C368.951 12.6901 368.971 12.9901 368.951 13.2801C368.921 13.5901 368.851 13.5701 368.561 13.5601C367.901 13.5301 367.241 13.4901 366.581 13.4601C363.961 13.3401 361.331 13.2901 358.711 13.1301C357.911 13.0801 357.911 14.3301 358.711 14.3801V14.3701Z" fill="#312F2F" stroke="#231F20" stroke-miterlimit="10"/>
<path d="M372.701 12.86C373.361 12.84 374.011 12.8 374.671 12.78C374.811 12.78 374.921 12.67 374.921 12.53C374.921 12.39 374.811 12.28 374.671 12.28C374.011 12.3 373.361 12.34 372.701 12.36C372.561 12.36 372.451 12.47 372.451 12.61C372.451 12.75 372.561 12.86 372.701 12.86Z" fill="#312F2F" stroke="#231F20" stroke-miterlimit="10"/>
<path d="M372.951 12.61C372.931 11.25 372.971 9.89004 372.951 8.53004C372.951 8.21004 372.451 8.21004 372.451 8.53004C372.471 9.89004 372.431 11.25 372.451 12.61C372.451 12.93 372.951 12.93 372.951 12.61Z" fill="#312F2F" stroke="#231F20" stroke-miterlimit="10"/>
<path d="M376.961 8.2701C376.251 8.3401 375.551 8.3701 374.841 8.3501L372.701 8.2801C372.381 8.2701 372.381 8.7701 372.701 8.7801L374.841 8.8501C375.551 8.8701 376.251 8.8501 376.961 8.7701C377.281 8.7401 377.281 8.2401 376.961 8.2701Z" fill="#312F2F" stroke="#231F20" stroke-miterlimit="10"/>
<path d="M376.791 8.69999C377.381 9.31999 378.031 9.88999 378.631 10.5C378.861 10.73 379.211 10.37 378.981 10.15C378.371 9.53999 377.731 8.96999 377.141 8.34999C377.051 8.24999 376.881 8.25999 376.791 8.34999C376.701 8.43999 376.701 8.60999 376.791 8.69999Z" fill="#312F2F" stroke="#231F20" stroke-miterlimit="10"/>
<path d="M378.561 10.3201C378.411 12.1201 378.391 13.9301 378.381 15.7401C378.381 16.0601 378.881 16.0601 378.881 15.7401C378.881 13.9301 378.911 12.1301 379.061 10.3201C379.091 10.0001 378.591 10.0001 378.561 10.3201Z" fill="#312F2F" stroke="#231F20" stroke-miterlimit="10"/>
<path d="M378.451 15.56C376.941 17.21 375.811 19.14 374.721 21.08C374.561 21.36 374.991 21.61 375.151 21.33C376.221 19.43 377.321 17.52 378.801 15.91C379.021 15.67 378.661 15.32 378.451 15.56Z" fill="#312F2F" stroke="#231F20" stroke-miterlimit="10"/>
<path d="M375.181 23.8501C375.141 22.9701 375.221 22.0901 375.181 21.2101C375.171 20.8901 374.671 20.8901 374.681 21.2101C374.721 22.0901 374.641 22.9701 374.681 23.8501C374.691 24.1701 375.191 24.1701 375.181 23.8501Z" fill="#312F2F" stroke="#231F20" stroke-miterlimit="10"/>
<path d="M374.931 24.1001C375.491 24.1501 376.051 24.1601 376.621 24.1601C377.191 24.1601 377.701 24.0701 378.251 24.0701C378.571 24.0701 378.571 23.5701 378.251 23.5701C377.711 23.5701 377.171 23.6601 376.621 23.6601C376.071 23.6601 375.491 23.6601 374.931 23.6001C374.611 23.5701 374.611 24.0701 374.931 24.1001Z" fill="#312F2F" stroke="#231F20" stroke-miterlimit="10"/>
<path d="M378.421 25.7401L378.501 23.8101C378.501 23.6701 378.381 23.5601 378.251 23.5601C378.111 23.5601 378.011 23.6701 378.001 23.8101L377.921 25.7401C377.921 25.8801 378.041 25.9901 378.171 25.9901C378.311 25.9901 378.411 25.8801 378.421 25.7401Z" fill="#312F2F" stroke="#231F20" stroke-miterlimit="10"/>
<path d="M378.171 25.49C376.331 25.63 374.471 25.45 372.621 25.41C372.301 25.41 372.301 25.9 372.621 25.91C374.471 25.95 376.321 26.13 378.171 25.99C378.491 25.97 378.491 25.47 378.171 25.49Z" fill="#312F2F" stroke="#231F20" stroke-miterlimit="10"/>
<path d="M372.341 21.53C372.341 22.91 372.361 24.28 372.361 25.66C372.361 25.98 372.861 25.98 372.861 25.66C372.861 24.28 372.841 22.91 372.841 21.53C372.841 21.21 372.341 21.21 372.341 21.53Z" fill="#312F2F" stroke="#231F20" stroke-miterlimit="10"/>
<path d="M376.191 10.6701C376.271 12.1701 376.221 13.6701 376.251 15.1701C376.251 15.4901 376.761 15.4901 376.751 15.1701C376.731 13.6701 376.771 12.1701 376.691 10.6701C376.671 10.3501 376.171 10.3501 376.191 10.6701Z" fill="#312F2F" stroke="#231F20" stroke-miterlimit="10"/>
<path d="M372.811 21.66C374.061 19.51 375.461 17.45 376.721 15.3C376.881 15.02 376.451 14.77 376.291 15.05C375.041 17.2 373.641 19.26 372.381 21.41C372.221 21.69 372.651 21.94 372.811 21.66Z" fill="#312F2F" stroke="#231F20" stroke-miterlimit="10"/>
<path d="M374.921 12.52C374.891 11.89 374.941 11.26 374.871 10.63C374.851 10.5 374.771 10.38 374.621 10.38C374.501 10.38 374.351 10.5 374.371 10.63C374.441 11.26 374.401 11.89 374.421 12.52C374.421 12.65 374.531 12.77 374.671 12.77C374.801 12.77 374.931 12.66 374.921 12.52Z" fill="#312F2F" stroke="#231F20" stroke-miterlimit="10"/>
<path d="M376.441 10.42C376.141 10.44 375.841 10.45 375.541 10.45C375.261 10.45 374.931 10.44 374.681 10.4C374.551 10.38 374.411 10.43 374.371 10.57C374.341 10.69 374.411 10.86 374.541 10.88C375.171 10.97 375.801 10.96 376.441 10.92C376.571 10.92 376.691 10.81 376.691 10.67C376.691 10.54 376.581 10.41 376.441 10.42Z" fill="#312F2F" stroke="#231F20" stroke-miterlimit="10"/>
</g>
<defs>
<clipPath id="clip0_522_142">
<rect width="48.11" height="61.13" fill="white" transform="translate(342.111)"/>
</clipPath>
</defs>
</svg>
