<?xml version="1.0" encoding="UTF-8"?>
<svg id="Layer_2" data-name="Layer 2" xmlns="http://www.w3.org/2000/svg" viewBox="0 0 123.1 19.19">
  <defs>
    <style>
      .cls-1 {
        fill: #ef3f36;
      }
    </style>
  </defs>
  <g id="Imagens">
    <g>
      <path class="cls-1" d="M.01,3.5c-.07,2.68.19,5.36.77,7.97.14.61,1.05.58,1.21,0,.03-.1.05-.2.08-.3.21-.78-.99-1.11-1.21-.33-.03.1-.05.2-.08.3h1.21c-.55-2.51-.79-5.07-.72-7.64.02-.8-1.23-.8-1.25,0H.01Z"/>
      <path class="cls-1" d="M1.04,3.92l1.68-.93.84-.47c.14-.08.28-.15.41-.23.11-.07-.07.03.06-.02.07-.02.07-.02,0,0-.04,0-.08,0-.12-.02.28.17.7.07.86-.22.16-.31.07-.67-.22-.86-.4-.25-.85-.13-1.24.08-.32.17-.64.36-.96.53L.41,2.84C.12,3,0,3.41.18,3.69s.55.39.86.22h0Z"/>
      <path class="cls-1" d="M1.48,9.49c.64-.31,1.24-.7,1.78-1.16.12-.1.18-.3.18-.44,0-.15-.07-.34-.18-.44s-.28-.19-.44-.18-.31.07-.44.18c-.08.07-.17.14-.25.2l.13-.1c-.44.34-.91.62-1.4.86-.13.06-.25.23-.29.37-.04.15-.02.35.06.48s.21.25.37.29c.17.04.32.01.48-.06h0Z"/>
      <path class="cls-1" d="M3.97,8.85l.65,3.01c.07.32.46.54.77.44.34-.11.51-.43.44-.77l-.65-3.01c-.07-.32-.46-.54-.77-.44-.34.11-.51.43-.44.77h0Z"/>
      <path class="cls-1" d="M3.68,6.09v.14c0,.09.01.17.05.24.03.08.07.14.13.2.06.06.12.1.2.13.07.04.15.06.24.05l.17-.02c.11-.03.2-.08.28-.16l.1-.13c.06-.1.08-.2.09-.32v-.14c0-.09-.01-.17-.05-.24-.03-.08-.07-.14-.13-.2-.06-.06-.12-.1-.2-.13-.07-.04-.15-.06-.24-.05l-.17.02c-.11.03-.2.08-.28.16l-.1.13c-.06.1-.08.2-.09.32h0Z"/>
      <path class="cls-1" d="M9.63,7.04c-.84-.92-2.27-.59-2.94.35s-.87,2.59.05,3.42c.8.72,2.11.55,2.85-.17.95-.93.82-2.37.34-3.48-.29-.67-1.3-.18-1.14.48.64,2.71,1.07,5.46,1.25,8.23.02.31.2,1.24-.36,1.12-.5-.11-.61-.83-.65-1.25-.1-1.17.26-2.28.95-3.22.48-.65-.6-1.27-1.08-.63-.93,1.25-1.33,2.87-1.05,4.4.12.69.46,1.38,1.09,1.74s1.45.29,1.95-.25c.55-.59.43-1.47.38-2.21-.07-.91-.16-1.82-.27-2.72-.24-1.87-.57-3.72-1-5.55l-1.14.48c.23.54.33,1.27,0,1.79-.22.35-.77.59-1.16.38-.95-.51.21-2.96,1.05-2.03.54.6,1.43-.29.88-.88h0Z"/>
      <path class="cls-1" d="M11.18,6.67l.82,4.18c.14.69,1.26.54,1.23-.17-.04-.81-.02-1.62.08-2.42.05-.36.1-.73.19-1.08.06-.22.13-.53.37-.64.16-.08.2.03.25.18.12.33.18.7.26,1.04.18.81.33,1.64.45,2.46l1.21-.33c-.23-.59-.31-1.23-.18-1.86.06-.3.16-.6.3-.88.07-.14.15-.28.24-.41.05-.06.08-.11.13-.17l.06-.07c.1-.09.09-.09-.04-.01l-.32-.09c-.03-.06-.03-.07,0-.01.03.05.05.09.08.14.03.07.07.13.1.2.09.18.17.35.25.53.15.35.28.72.38,1.08.22.73.35,1.49.41,2.25.02.34.27.62.62.62.32,0,.65-.29.62-.62-.07-1.02-.25-2.04-.59-3.01-.17-.51-.38-1.01-.62-1.49s-.6-1.01-1.24-.83c-.47.13-.8.62-1.04,1.01s-.41.81-.52,1.24c-.23.89-.19,1.85.14,2.71.29.76,1.32.46,1.21-.33-.14-1.03-.34-2.05-.59-3.06-.1-.43-.23-.87-.55-1.19-.35-.35-.88-.46-1.35-.31-.96.3-1.24,1.29-1.38,2.17-.18,1.05-.24,2.12-.19,3.18l1.23-.17-.82-4.18c-.07-.33-.46-.52-.77-.44-.35.1-.5.44-.44.77h0Z"/>
      <path class="cls-1" d="M22.63,7.28c.18-.46.02-.99-.3-1.35-.34-.38-.85-.51-1.34-.42-1.06.19-1.53,1.27-1.59,2.24s.14,2.13.75,2.88c.33.41.85.61,1.36.49.45-.1.81-.44,1.06-.81.65-.93.61-2.32.31-3.37-.09-.32-.44-.53-.77-.44-.35.1-.5.44-.44.77.24,1.24.74,2.56,1.57,3.53.4.47,1,.78,1.62.65.59-.12,1.11-.64,1.07-1.27-.02-.34-.28-.62-.62-.62-.33,0-.64.29-.62.62,0,.08,0,.08,0,.02.03-.06.03-.05-.01.01.03-.05.03-.05-.03,0,.04-.04.03-.04-.03,0,.04-.03-.03,0-.03,0-.03,0-.06,0-.1,0,.07,0,.05,0-.04-.02-.26-.16-.45-.43-.63-.72-.48-.79-.79-1.65-.97-2.56l-1.21.33c.2.69.27,1.62-.08,2.24-.08.14-.15.25-.28.34.07-.05-.16.08-.09.05.03-.02.02-.01-.05,0,.02-.01.05-.01.07,0-.21-.05-.32-.39-.4-.63-.21-.65-.37-1.54-.05-2.18.12-.23.33-.4.54-.38.02,0,.08.06.09.07.07.16,0-.08.04.1-.02-.11,0-.03-.04.05-.13.31.14.69.44.77.36.1.64-.12.77-.44h0Z"/>
      <path class="cls-1" d="M32.6,2.14l.81,8.05c.03.34.26.62.62.62.31,0,.66-.29.62-.62l-.81-8.05c-.03-.34-.26-.62-.62-.62-.31,0-.66.29-.62.62h0Z"/>
      <path class="cls-1" d="M33.38,2.43c.24-.58.94-1.2,1.61-1.18.04,0,.18.05.09,0,.06.04.1.11.13.17.09.16.14.34.19.51.09.33.12.66.12,1-.02,1.39-.79,2.74-2.01,3.41-.71.39-.08,1.47.63,1.08,1.38-.75,2.33-2.19,2.56-3.74.12-.79.09-1.6-.18-2.36-.15-.44-.37-.89-.79-1.13-.44-.26-.99-.21-1.46-.06-.98.31-1.71,1.04-2.09,1.98-.13.31.14.69.44.77.36.1.64-.12.77-.44h0Z"/>
      <path class="cls-1" d="M36.4,11.42c.51-1.14.74-2.38.62-3.63l-.46.6c.31-.12.62-.2.94-.21.08,0,.16,0,.24,0,.02,0,.22,0,.14,0,.06,0,.09.02.03-.02s.04.07,0,0c.25.53.07,1.22.13,1.81.07.67.33,1.36.96,1.69.56.29,1.31.27,1.75-.22.22-.25.25-.64,0-.88-.23-.23-.66-.25-.88,0-.02.03-.05.05-.08.08l.04-.04c-.06.03-.06.03,0,0h-.05c.08,0,.08,0,0,.01h-.05c-.13,0,.06.03-.05,0-.04-.01-.15-.07-.06-.02-.01,0-.16-.1-.06-.02-.11-.08-.11-.11-.17-.22-.04-.07-.06-.19-.09-.31-.02-.08-.03-.2-.03-.33-.01-.31.01-.62,0-.92-.03-.7-.22-1.56-.99-1.77-.65-.17-1.43-.05-2.05.19-.24.09-.49.32-.46.6.1,1.03-.03,2.06-.45,3-.14.31-.09.67.22.86.27.16.72.09.86-.22h0Z"/>
      <path class="cls-1" d="M41.07,7.02c-.25,1.47-.38,3.37.92,4.42.4.33.89.51,1.42.42.49-.09.84-.53,1.04-.96.41-.87.43-1.85.04-2.73s-1.2-1.51-2.1-1.74c-.32-.08-.69.1-.77.44s.1.68.44.77c.07.02.14.04.2.06.03,0,.19.08.1.04.15.07.28.15.41.24.01,0,.09.07.02.01.02.02.05.04.07.06.05.05.1.09.15.14s.1.1.14.16c.06.08-.05-.07.01.02.03.04.06.08.08.12.04.06.07.12.1.18.01.03.03.05.04.08-.04-.09,0,0,0,.02.03.07.05.15.07.22.01.04.02.09.03.13,0,.02.03.15.02.06.02.15.02.31.01.47,0,.03,0,.07,0,.1-.01.11.02-.08,0,.03-.02.09-.04.17-.06.26-.06.19-.06.21-.15.37-.02.03-.03.06-.05.09,0,0-.08.12-.04.07.03-.04-.03.04-.03.04-.05.05-.06.06-.03.03.02-.02.02-.01-.01,0h-.03s.04-.01.06,0c.03.02,0,0-.04,0-.03,0-.11-.02-.01,0-.03,0-.06-.02-.09-.02-.1-.03.07.04-.03,0-.03-.01-.06-.03-.08-.04-.04-.02-.07-.04-.11-.07.06.05-.02-.02-.04-.04-.05-.05-.1-.09-.14-.14-.02-.03-.05-.06-.07-.09,0,0,.05.07.01.01-.08-.12-.14-.23-.21-.36.05.11-.03-.08-.04-.11-.02-.06-.04-.13-.06-.19s-.03-.13-.05-.19c0-.04-.04-.24-.02-.12-.04-.34-.04-.68-.02-1.01.01-.16.03-.32.04-.48,0-.04,0-.08.01-.12-.01.09,0,0,0-.04.01-.09.03-.17.04-.26.05-.32-.08-.69-.44-.77-.3-.07-.71.09-.77.44h0Z"/>
      <path class="cls-1" d="M45.41,2.82c-.12,2.19-.01,4.5.51,6.64.2.83.6,1.71,1.38,2.15.73.4,1.77.37,2.32-.33.21-.27.26-.62,0-.88-.21-.22-.68-.26-.88,0-.33.42-.89.17-1.17-.19-.42-.56-.52-1.35-.63-2.02-.3-1.77-.38-3.57-.28-5.36.04-.8-1.21-.8-1.25,0h0Z"/>
      <path class="cls-1" d="M44.4,5.5l3.27-.29c.32-.03.64-.27.62-.62-.01-.31-.28-.66-.62-.62l-3.27.29c-.32.03-.64.27-.62.62.01.31.28.66.62.62h0Z"/>
      <path class="cls-1" d="M49.65,7.16c-.18.93-.35,1.94.02,2.85.33.81,1.05,1.4,1.92,1.5.93.11,1.7-.57,1.91-1.44s0-1.75-.52-2.43c-.58-.77-1.47-1.31-2.46-1.25-.33.02-.64.27-.62.62.01.32.28.65.62.62.08,0,.15,0,.23,0,.03,0,.07,0,.1,0,.09,0-.1-.02-.02,0,.07.02.15.03.22.05.03,0,.06.02.1.03.02,0,.15.06.07.02-.07-.04.02.01.04.02.04.02.08.04.11.06.06.03.12.07.17.11.02.01.09.07,0,0,.03.02.05.04.08.07.07.06.13.12.19.18.05.05.09.1.14.16-.08-.1.03.05.06.08.04.06.07.12.11.18.02.04.04.08.06.12.03.05.04.1.01.02.05.14.1.28.13.42,0,.02.02.13,0,.04s0,.02,0,.05c0,.09,0,.17,0,.26,0,.04,0,.07,0,.11,0,.1.02-.1,0,0-.02.08-.03.16-.06.24-.01.04-.02.07-.04.1,0-.03.05-.1,0,0-.02.03-.03.06-.05.09s-.11.13-.03.05c-.03.02-.05.05-.07.08s-.09.07,0,0c-.04.02-.11.1-.16.09.05,0,.1-.03.03-.01-.03,0-.06.01-.08.02-.12.04.04,0,.04,0-.02.02-.1,0-.13,0-.03,0-.06,0-.09,0-.13,0,.03,0,.03,0-.03.02-.17-.04-.2-.05-.03,0-.06-.02-.09-.03-.08-.02.09.06.02,0-.06-.04-.14-.08-.21-.12-.02-.01-.1-.07-.03-.02s-.01-.01-.03-.03c-.05-.05-.11-.1-.15-.15-.02-.02-.04-.05-.06-.07.01.02.07.11.01.01-.04-.07-.08-.13-.12-.2,0-.01-.03-.09,0-.01-.02-.05-.04-.1-.05-.15-.03-.1-.05-.2-.07-.31s0,.08,0-.02c0-.05-.01-.1-.01-.16,0-.11,0-.21,0-.32s0-.21.02-.32c0-.04,0-.09.01-.13,0,0,.03-.2.01-.09.03-.21.07-.42.11-.64.06-.32-.09-.69-.44-.77-.31-.07-.7.09-.77.44h0Z"/>
      <path class="cls-1" d="M53.54,2.42l.36,3.67c.11,1.1.16,2.22.35,3.3.14.82.49,1.69,1.25,2.12.82.47,1.95.25,2.53-.5.21-.27.26-.62,0-.88-.21-.22-.68-.27-.88,0-.36.47-.97.52-1.33.01-.39-.54-.4-1.33-.47-1.97l-.56-5.76c-.08-.79-1.33-.8-1.25,0h0Z"/>
      <path class="cls-1" d="M52.98,5.28c1.2.03,2.36-.22,3.46-.69.3-.13.39-.6.22-.86-.2-.31-.53-.36-.86-.22.12-.05-.1.04-.12.05-.05.02-.11.04-.16.06-.13.05-.25.09-.38.13-.24.07-.48.13-.73.18-.06.01-.11.02-.17.03-.04,0-.08.01-.11.02-.07,0-.08.01-.03,0,.05,0,.03,0-.03,0-.04,0-.08,0-.11.01-.06,0-.11.01-.17.02-.27.02-.54.03-.81.02-.33,0-.64.29-.62.62s.27.62.62.62h0Z"/>
      <path class="cls-1" d="M57.36,7.23c.06,1.53.53,3.57,2.49,3.46.82-.05,1.41-.63,1.53-1.43s.06-1.8-.69-2.23c-.39-.22-.97.05-.94.54.23,3.21.52,6.43.68,9.65.01.27.07.63-.26.71-.22.05-.49-.08-.66-.21-.41-.3-.64-.83-.71-1.33-.17-1.32.79-2.54,1.52-3.54.48-.65-.61-1.27-1.08-.63-.99,1.35-1.98,2.88-1.62,4.63.28,1.34,1.61,2.75,3.09,2.21.84-.31,1.01-1.13.97-1.93-.06-1.04-.15-2.08-.22-3.11-.15-2.15-.3-4.3-.45-6.45l-.94.54c.2.11.14.89.06,1.07-.14.33-.5.31-.78.17-.72-.35-.71-1.44-.74-2.12-.03-.8-1.28-.81-1.25,0h0Z"/>
      <path class="cls-1" d="M62.47,7.85c.33,3.53.53,7.07.62,10.61.02.8,1.24.81,1.25,0,0-.59-.04-1.18-.13-1.76-.11-.79-1.32-.46-1.21.33.07.47.09.95.08,1.43h1.25c-.09-3.54-.3-7.08-.62-10.61-.07-.79-1.32-.8-1.25,0h0Z"/>
      <path class="cls-1" d="M63.4,8.04c.18-.22.37-.46.6-.61.19-.13.36-.16.5-.1.51.21.61.83.54,1.35-.08.62-.32,1.28-.6,1.82-.12.23-.25.43-.42.61-.18.18-.33.28-.58.35-.78.21-.45,1.42.33,1.21.82-.22,1.41-.86,1.79-1.6.41-.81.76-1.79.76-2.71s-.52-1.92-1.46-2.22-1.75.34-2.33,1.03c-.22.26-.25.63,0,.88.22.22.67.26.88,0h0Z"/>
      <path class="cls-1" d="M67.6,9.14c.97-.29,2.7-1.35,1.89-2.58-.34-.51-.98-.78-1.58-.63-.55.14-.99.57-1.26,1.04-1.05,1.81-.36,4.48,1.76,5.1,1.05.31,2.29.06,3.03-.77.22-.25.25-.63,0-.88-.23-.23-.66-.25-.88,0-.05.06-.1.11-.16.17,0,0-.14.11-.07.06.06-.04-.04.03-.05.03-.06.04-.13.08-.2.11-.01,0-.12.06-.05.03s-.07.03-.08.03c-.08.03-.16.05-.25.07-.04,0-.07.01-.11.02-.1.02.1,0,0,0-.17.02-.34.01-.52,0-.1,0,.09.02,0,0-.04,0-.08-.01-.11-.02-.08-.02-.15-.04-.22-.06-.05-.01-.09-.03-.14-.05-.02,0-.11-.05-.01,0-.08-.04-.16-.08-.23-.12-.24-.14-.44-.34-.6-.6-.04-.07-.08-.14-.12-.22,0-.01-.05-.11-.01-.02-.02-.04-.03-.08-.04-.12-.06-.18-.11-.36-.14-.54.02.11-.01-.12-.01-.15,0-.08,0-.17,0-.25s0-.17.01-.25c0-.13,0-.05,0-.02,0-.06.02-.12.03-.19.03-.16.08-.33.14-.48-.03.09,0-.01.01-.02.02-.04.04-.08.06-.11.05-.1.1-.19.17-.28.04-.05.18-.2.22-.22.04-.02.07-.04.11-.06-.09.04.03,0,.05-.01.1-.03-.08,0,.01,0,.05,0,.12.02.04,0,.04,0,.08.02.11.03-.11-.04.05.04.06.05-.06-.04,0-.03,0,.02-.03-.05-.04-.05-.01-.02.02.04.02.03,0-.03v.03s.02.03.01-.03v.05s0-.05.01-.07c.01,0-.04.07-.02.04s-.07.08-.08.09c-.3.3-.68.52-1.08.64-.32.1-.53.44-.44.77s.44.53.77.44h0Z"/>
      <path class="cls-1" d="M77.39,8.16c1.41.07,2.82.03,4.23-.12.34-.04.62-.26.62-.62,0-.31-.29-.66-.62-.62-1.4.15-2.82.2-4.23.12-.34-.02-.62.3-.62.62,0,.35.29.61.62.62h0Z"/>
      <path class="cls-1" d="M89.27,3.78c.09,2.67.36,5.32.8,7.95.09.53.91.6,1.14.15.03-.05.05-.1.08-.15.37-.71-.71-1.35-1.08-.63-.03.05-.05.1-.08.15l1.14.15c-.42-2.52-.67-5.07-.76-7.62-.03-.8-1.28-.81-1.25,0h0Z"/>
      <path class="cls-1" d="M90.55,3.99c.59-.58,1.4.08,1.72.62.44.74.62,1.64.62,2.49s-.18,1.7-.55,2.46c-.23.48-.94,1.89-1.66,1.41-.67-.45-1.3.63-.63,1.08,1.29.86,2.54-.41,3.16-1.46s.96-2.36.93-3.61-.36-2.58-1.18-3.53-2.33-1.27-3.29-.34c-.58.56.31,1.44.88.88h0Z"/>
      <path class="cls-1" d="M96.65,9.17c.54-.2,1.15-.2,1.65-.53.52-.35.88-.94.71-1.58-.28-1.07-1.51-1.46-2.49-1.18s-1.65,1.23-1.83,2.25c-.09.54-.1,1.09-.02,1.64.09.64.48,1.12,1.06,1.39,1.16.56,2.55.51,3.67-.13.28-.16.41-.57.22-.86s-.55-.4-.86-.22c-.09.05-.18.1-.27.14-.11.05-.05.02-.02,0-.06.02-.12.04-.18.06-.08.03-.16.05-.24.07-.06.01-.12.03-.18.04-.02,0-.2.02-.08.01-.19.02-.37.02-.56.01-.05,0-.1,0-.15-.01-.12-.01.14.03-.05,0-.1-.02-.2-.04-.3-.07s-.2-.06-.29-.1c-.18-.07.05.03-.05-.02-.04-.02-.09-.04-.13-.07-.03-.02-.07-.04-.1-.06,0,0-.15-.11-.08-.05s-.08-.08-.07-.07c-.08-.08.01.05-.04-.07s-.02-.05-.01-.03c-.02-.06-.03-.12-.05-.19,0-.01-.02-.12,0-.03,0-.04,0-.09-.01-.13-.02-.2-.02-.41,0-.61,0-.09.01-.18.02-.26.02-.18-.02.07,0-.04.01-.05.02-.1.03-.14.02-.09.04-.17.06-.25.01-.05.03-.09.04-.14,0,0,.07-.18.02-.06.04-.09.08-.17.13-.25.02-.03.04-.06.06-.1,0,0,.11-.14.05-.07s.07-.07.06-.07c.02-.03.05-.05.07-.08,0,0,.12-.11.05-.04-.06.06.06-.04.07-.05.06-.04.13-.07.19-.1.14-.07-.12.03.03,0,.03,0,.06-.02.09-.03.08-.02.16-.04.24-.05-.16.03.06,0,.12,0,.04,0,.08.01.12,0,.08-.01-.14-.03,0,0,.06.02.14.05.2.05.08,0-.12-.07,0,0,.03.01.05.03.08.04,0,0,.13.08.05.03-.08-.05.06.06.07.07.02.02.07.09,0-.02.03.05.07.1.09.15-.05-.1.04.08,0,0,0-.04,0-.03,0,.03.02-.08.02-.08,0-.01-.02.03-.05.08,0,0-.01.02-.11.14-.02.05-.03.03-.06.07-.1.1-.03.03-.03.03.02-.01-.02.02-.05.03-.07.05-.04.03-.08.05-.12.07-.14.08.12-.03-.07.03-.12.04-.24.07-.37.1-.26.06-.52.1-.77.2-.31.11-.55.43-.44.77.1.3.44.56.77.44h0Z"/>
      <path class="cls-1" d="M102.61,5.21c-.96-.05-2.17.13-2.48,1.22-.27.98.51,1.66,1.29,2.06.33.17.67.34.94.6.14.13.23.24.31.41.03.07.07.21.06.3-.02.27-.25.5-.53.63-.34.15-.82.11-1.21.02-.33-.08-.68.1-.77.44-.09.32.11.69.44.77.99.23,2.13.16,2.83-.66s.58-1.82-.07-2.6c-.27-.33-.64-.59-1.01-.8-.17-.1-.35-.18-.52-.27-.15-.08-.32-.19-.41-.27s-.08-.07-.12-.13c-.03-.07-.04-.08-.02-.02-.02-.07-.02-.08-.02-.03,0-.11,0-.17.14-.28.1-.08.24-.13.4-.15.24-.04.5-.01.75,0,.34.02.62-.3.62-.62,0-.35-.29-.61-.62-.62h0Z"/>
      <path class="cls-1" d="M104.73,2.95c-.1,2.97.99,5.84.78,8.8-.04.6.91.88,1.16.32.05-.11.1-.23.15-.34.14-.31.09-.67-.22-.86-.26-.16-.72-.08-.86.22-.05.11-.1.23-.15.34l1.16.32c.2-2.97-.88-5.84-.78-8.8.03-.8-1.22-.8-1.25,0h0Z"/>
      <path class="cls-1" d="M107.1,3.86c-.78,1.75-1.43,3.56-1.93,5.41-.12.46.31.9.77.77,1.48-.43,3.09.33,3.75,1.7.35.72,1.43.09,1.08-.63-.9-1.86-3.18-2.84-5.16-2.27l.77.77c.47-1.75,1.07-3.46,1.81-5.11.14-.31.09-.67-.22-.86-.27-.16-.72-.09-.86.22h0Z"/>
      <path class="cls-1" d="M111.14,3.37c-.04,2.13-.13,4.32.17,6.44.12.81.49,1.67,1.34,1.93.78.24,1.56-.08,1.87-.84.13-.31-.14-.69-.44-.77-.36-.1-.64.12-.77.44,0-.02-.2,0-.25,0-.17-.04-.28-.19-.36-.34-.28-.57-.25-1.33-.28-1.95-.09-1.63-.06-3.27-.03-4.91.01-.8-1.24-.8-1.25,0h0Z"/>
      <path class="cls-1" d="M110.24,5.97c1.06.12,2.14.01,3.16-.29.31-.09.54-.44.44-.77s-.43-.54-.77-.44c-.23.07-.47.13-.71.18-.13.03-.26.05-.39.07.14-.02-.04,0-.06,0-.06,0-.13.01-.19.02-.49.04-.99.03-1.48-.02-.33-.04-.64.31-.62.62.02.37.28.59.62.62h0Z"/>
      <path class="cls-1" d="M114.9,7.05c-.26.94-.51,1.96-.18,2.91.3.89,1,1.57,1.97,1.62.46.03.92-.13,1.27-.42.37-.31.53-.77.63-1.23.2-.96.23-1.97-.42-2.77-.58-.71-1.56-.96-2.42-1.12-.32-.06-.69.09-.77.44-.07.31.09.71.44.77.31.06.61.12.91.21.07.02.13.04.19.06.04.01.07.03.11.04.09.04-.08-.04,0,0,.14.06.26.14.39.22.08.05-.07-.06,0,0,.03.02.06.05.08.07.05.04.09.09.13.14-.07-.08.04.06.07.1s.04.08.06.12c-.03-.07.01.04.02.07.02.07.04.15.06.22.03.13,0,.06,0,.03,0,.04,0,.09,0,.13,0,.18,0,.37-.02.55,0-.08,0,.03,0,.04,0,.05-.01.09-.02.14-.02.09-.03.18-.05.26-.02.07-.03.15-.06.22-.01.04-.02.08-.04.12-.03.1.07-.1-.03.06-.02.04-.04.07-.07.11.02-.02.07-.06,0,0-.02.02-.04.04-.06.05-.06.06.08-.05,0,0-.04.02-.17.08-.06.04-.03.01-.07.02-.1.03,0,0-.16.03-.07.02.08-.01-.03,0-.05,0-.04,0-.07,0-.11,0-.02,0-.13-.01-.05,0,.08,0-.01,0-.02,0-.07-.02-.14-.04-.21-.06.12.04-.08-.05-.12-.07-.08-.05.06.05-.02-.01-.02-.02-.05-.04-.07-.06-.02-.02-.16-.19-.1-.1-.05-.06-.09-.13-.13-.2-.01-.03-.03-.05-.04-.08-.03-.06.02.05-.02-.05-.03-.09-.06-.17-.08-.26,0-.04-.02-.08-.03-.12s-.02-.14,0-.05c-.02-.21-.02-.42,0-.63.03-.36.17-.84.28-1.24.09-.31-.11-.69-.44-.77s-.68.1-.77.44h0Z"/>
      <path class="cls-1" d="M119.03,7.05c-.02,3.09.27,6.18.85,9.21l1.21-.33c-.05-.15-.1-.3-.15-.45-.25-.76-1.45-.44-1.21.33.05.15.1.3.15.45.25.77,1.36.45,1.21-.33-.56-2.93-.82-5.9-.8-8.88,0-.8-1.24-.81-1.25,0h0Z"/>
      <path class="cls-1" d="M120.3,7.47s.08-.23.03-.12c.03-.05.05-.1.09-.15-.07.1.07-.07.09-.08-.08.07.03-.02.06-.04s.16-.08.06-.04c.07-.03.15-.05.22-.06-.14.02.04,0,.06,0,.07,0,.08,0,0,0,.04,0,.07.02.11.03.18.06.41.3.49.44.18.29.25.45.32.79.03.13,0-.02.01.1,0,.09.01.18,0,.27,0,.07,0,.14-.01.2.01-.09-.02.11-.03.13-.03.14-.07.26-.1.32-.07.13-.14.27-.24.39.05-.06-.1.1-.11.12-.05.05-.09.09-.14.13-.09.08-.14.11-.29.21s-.2.11-.32.15c-.14.05-.29.08-.44.1-.33.05-.52.47-.44.77.1.36.43.48.77.44,1.4-.19,2.47-1.4,2.6-2.78.06-.67-.12-1.41-.5-1.96-.41-.6-1.06-1.14-1.83-1.07s-1.5.61-1.67,1.39c-.07.33.1.68.44.77.31.08.7-.1.77-.44h0Z"/>
    </g>
  </g>
</svg>