<svg width="365" height="133" viewBox="0 0 365 133" fill="none" xmlns="http://www.w3.org/2000/svg">
<path d="M20 47.0199C21.8525 61.8016 24.7082 82.531 27.0234 96.0562M21.0033 45.0184C20.0288 45.9904 36.6332 36.3008 38.0602 37.0125M24.0135 77.0422C29.1317 77.0422 32.6439 74.2394 37.057 72.0385M42.0736 93.0541C47.1802 87.9607 51.4285 82.2052 52.8874 74.9296C53.6571 71.0908 53.1932 79.946 53.3333 80.934C53.7882 84.1427 55.2125 87.175 57.2909 89.6627C61.0348 94.1437 60.4762 90.5296 64.1471 91.0526M53.1103 62.0312L54.1137 63.0319M71.1706 91.0526C73.1618 85.0943 75.2124 79.1807 77.0005 73.216M77.0005 73.216C80.0693 62.9796 82.3654 52.5928 82.2631 41.5716C82.2422 39.3156 80.1364 30.6828 77.3021 37.3462C72.9476 47.5837 74.454 61.5213 77.0005 73.216ZM77.0005 73.216C77.6201 76.0611 78.3011 78.7735 78.9744 81.2676C80.1815 85.7397 82.4433 93.965 88.7848 93.1653C95.1734 92.3596 96.2104 84.4763 97.0346 79.5441C98.3651 71.5817 97.7124 75.8692 99.5429 80.4336C100.379 82.519 101.541 84.7612 103.166 86.3825C105.655 88.8653 105.248 86.5584 107.291 86.0489M98.2608 59.0288C98.7802 59.0288 98.957 59.7232 99.2642 60.0296M112.308 72.0386C112.308 79.3575 113.708 86.8311 115.191 94.2138M115.191 94.2138C116.03 98.3931 116.895 102.543 117.547 106.62C117.981 109.329 118.076 109.877 118.272 112.124C118.407 113.674 118.294 112.802 118.105 111.623C117.176 105.83 116.072 100.032 115.191 94.2138ZM115.191 94.2138C114.921 92.4349 114.672 90.654 114.456 88.8709M114.456 88.8709C114.321 87.7644 114.199 86.657 114.091 85.5486C113.661 81.0945 115.655 56.5262 125.909 63.5879C134.635 69.5975 117.589 84.9708 114.456 88.8709ZM114.456 88.8709C114.405 88.934 114.358 88.9941 114.314 89.0511M144.415 64.0324C144.415 59.6482 142.897 59.5985 138.506 60.0851C132.239 60.7796 128.875 79.7249 137.057 80.7114C143.164 81.4478 145.787 73.5368 146.7 68.9805C146.777 68.5981 146.792 68.0022 146.773 67.3638M146.773 67.3638C146.722 65.6312 146.421 63.5855 146.421 64.644C146.421 65.5259 146.555 66.4435 146.773 67.3638ZM146.773 67.3638C147.245 69.3538 148.111 71.3564 148.874 73.0391C149.994 75.5087 151.649 79.2921 154.448 80.3779C157.421 81.5309 158.542 78.3231 160.468 77.0421M158.462 41.0155C163.61 44.0966 163.478 49.665 163.478 55.0259M180.535 55.0259C174.36 55.0259 170.239 61.093 175.63 65.9229C179.522 69.4102 188.951 75.5605 184.158 81.9347C181.496 85.4753 173.512 87.6798 173.512 82.0459M233.712 28.006C233.712 41.524 235.269 55.0898 235.942 68.5916C236.095 71.6568 237.726 91.1489 237.726 78.043M208.629 36.0118C216.181 36.0118 226.454 29.8567 233.322 27.1164C239.737 24.5572 245.897 20.9802 252.776 20M247.759 61.0303C243.221 65.5564 249.343 88.784 257.681 82.5462C262.321 79.0758 262.417 71.4317 259.131 67.2016C256.194 63.4228 251.281 61.9562 247.759 59.0288M264.816 63.0317C266.158 67.0477 267.001 71.2351 268.439 75.2074C268.797 76.1951 271.843 84.994 273.623 83.1577C275.681 81.0343 276.423 75.4567 276.745 72.65C276.833 71.8748 276.383 67.4281 277.581 70.0925C279.283 73.8796 281.37 78.3197 284.883 80.8227C292.499 86.2484 291.408 61.0032 291.906 57.0273M299.933 63.0318C299.933 65.3662 299.846 67.7117 300.1 70.037C300.507 73.7546 301.099 84.2788 302.776 80.9339C304.148 78.1963 303.215 73.061 303.946 69.9258C304.713 66.6386 308.357 58.4191 311.862 64.1438C315.372 69.878 315.497 79.556 320 84.0474" stroke="#132FBA" stroke-width="4" stroke-linecap="round" stroke-linejoin="round"/>
<path d="M329.846 31.9328C329.846 28.5134 333.808 15.4828 338.83 21.6207C343.321 27.1098 332.586 42.1386 331.252 48.8073M328.44 31.9329C328.44 26.9178 319.826 20.8503 320.003 28.808C320.084 32.4682 330.33 52.5418 331.252 51.6198" stroke="#1E1E1E" stroke-width="4" stroke-linecap="round" stroke-linejoin="round"/>
</svg>
