<?xml version="1.0" encoding="UTF-8"?>
<svg id="Layer_2" data-name="Layer 2" xmlns="http://www.w3.org/2000/svg" viewBox="0 0 8.11 11.74">
  <defs>
    <style>
      .cls-1 {
        fill: #132fba;
      }
    </style>
  </defs>
  <g id="Imagens">
    <g>
      <path class="cls-1" d="M4.2,11.24c-1.09,0-1.05-1.72-1.26-2.47-.23-.81-.6-1.58-1.07-2.28s-1.04-1.34-1.28-2.15c-.3-.99.22-1.93.9-2.62C2.82.35,4.88.02,6.39,1.31c.72.62,1.41,1.58,1.17,2.58-.19.79-.83,1.42-1.25,2.09-.49.8-.72,1.72-.91,2.63-.14.69-.3,2.63-1.21,2.63-.32,0-.32.5,0,.5.98,0,1.2-.93,1.41-1.73.29-1.13.4-2.33.92-3.39.44-.89,1.26-1.61,1.51-2.6s-.26-1.97-.92-2.7C5.71-.21,3.55-.43,1.85.76,1.04,1.33.29,2.18.06,3.16s.23,1.92.78,2.72c.75,1.11,1.44,2.15,1.73,3.48.21.96.33,2.37,1.63,2.38.32,0,.32-.5,0-.5h0Z"/>
      <path class="cls-1" d="M2.78,9.39c.93.04,1.86.01,2.79-.06.13-.01.25-.11.25-.25,0-.13-.11-.26-.25-.25-.92.07-1.86.1-2.79.06-.32-.01-.32.49,0,.5h0Z"/>
      <path class="cls-1" d="M3.81,9.08c-.03-.75-.13-1.5-.31-2.23-.09-.37-.39-1.87-1.04-1.33-.1.08-.09.27,0,.35.6.53,1.49.16,1.57-.63l-.49.07c.14.65.89,1.07,1.52.84l-.19-.46c-.22.12-.31.35-.35.59-.06.3-.08.61-.1.91-.04.61-.05,1.22-.15,1.82-.05.31.43.45.48.13.09-.53.11-1.07.14-1.6.01-.26.03-.53.06-.79.02-.16.01-.53.17-.62.24-.14.08-.55-.19-.46-.39.14-.82-.09-.91-.5-.06-.29-.47-.2-.49.07-.03.35-.45.5-.71.28v.35c-.16-.02-.2,0-.14.05.01.02.02.03.03.05.03.05.04.12.06.18.05.14.09.27.13.41.08.27.15.55.2.82.11.56.18,1.13.2,1.7.01.32.51.32.5,0h0Z"/>
    </g>
  </g>
</svg>