<?xml version="1.0" encoding="UTF-8"?>
<svg id="Layer_2" data-name="Layer 2" xmlns="http://www.w3.org/2000/svg" viewBox="0 0 26.48 26.72">
  <defs>
    <style>
      .cls-1 {
        fill: #ef3f36;
      }
    </style>
  </defs>
  <g id="behance">
    <g>
      <path class="cls-1" d="M10.02,25.28c-4.04-.92-7.08-3.8-8.24-7.78s-.48-8.23,2.08-11.4C6.61,2.71,11.18.65,15.57,1.35c5.72.92,8.99,5.66,9.56,11.17s-2.2,12.5-8.66,12.94c-.8.05-.8,1.3,0,1.25,5.88-.4,9.57-5.72,9.96-11.25.41-5.84-2-12.04-7.63-14.46C14.13-1,8.78.11,4.9,3.29S-.55,11.16.16,15.94c.77,5.2,4.37,9.37,9.53,10.55.78.18,1.12-1.03.33-1.21h0Z"/>
      <path class="cls-1" d="M10.87,7.26c-.55-.49-1.18-.9-1.86-1.19s-1.46-.53-2.23-.51c-.33,0-.64.28-.62.62s.27.63.62.62c.15,0,.3.01.45.02.1,0-.1-.02,0,0,.04,0,.07.01.11.02.08.01.17.03.25.05.16.04.32.08.47.14.07.03.15.05.22.08.04.01.07.03.11.04.1.04-.13-.06.04.02.3.13.58.28.86.46.14.09.27.18.4.27.04.03.05.04,0,0,.04.03.07.06.11.08.06.05.12.1.18.16.24.22.65.26.88,0,.22-.24.26-.65,0-.88h0Z"/>
      <path class="cls-1" d="M6.24,5.86c-.6,1.2-.7,2.71-.29,3.99.1.31.44.54.77.44s.54-.43.44-.77c-.04-.13-.08-.26-.1-.39-.01-.07-.03-.14-.04-.21,0-.04-.01-.07-.02-.11.01.08.01.08,0,0-.03-.29-.04-.59-.02-.88,0-.07,0-.15.02-.22,0-.03.04-.26.01-.11.02-.14.05-.29.08-.43s.07-.27.12-.41c0-.03.09-.23.03-.09.03-.06.06-.12.09-.18.15-.29.09-.69-.22-.86-.28-.15-.7-.09-.86.22h0Z"/>
      <path class="cls-1" d="M10.6,8.3c1.82-.65,3.77-.63,5.58.06.32.12.69-.13.77-.44.1-.35-.12-.65-.44-.77-1.99-.76-4.24-.77-6.24-.06-.32.11-.53.43-.44.77.08.31.45.55.77.44h0Z"/>
      <path class="cls-1" d="M16.78,8.2c.2-.24.42-.46.66-.66.03-.02.05-.04.08-.06-.07.05-.03.03.01,0,.06-.04.12-.09.19-.13.13-.08.26-.16.39-.22.06-.03.12-.06.18-.08-.13.06.06-.02.1-.04.14-.05.28-.09.43-.12.06-.01.16-.05.22-.04-.07-.01-.07,0,0,0,.03,0,.07,0,.1,0,.16-.01.33,0,.49,0,.33.02.64-.3.62-.62-.02-.36-.27-.6-.62-.62-1.46-.1-2.82.65-3.74,1.74-.21.25-.26.64,0,.88.23.21.66.27.88,0h0Z"/>
      <path class="cls-1" d="M19.28,6.65c-.09-.12.01.03.04.07.04.06.07.12.1.18.01.03.03.06.04.08-.06-.13-.01-.03,0,0,.02.07.05.14.07.21.04.14.07.29.09.44,0-.05,0-.09,0-.01,0,.04,0,.08.01.13,0,.08.01.15.01.23,0,.15,0,.29-.01.44,0,.08-.01.15-.02.23.02-.15-.01.07-.02.11-.03.14-.06.29-.11.43-.02.07-.05.13-.07.2-.03.07,0,.02.01-.02-.02.04-.04.08-.06.12-.14.29-.09.69.22.86.28.15.7.09.86-.22.64-1.34.66-3.15-.28-4.36-.2-.26-.67-.23-.88,0-.25.27-.22.61,0,.88h0Z"/>
      <path class="cls-1" d="M6.19,9.24c-1.54,1.9-1.97,4.54-.98,6.81s3.08,3.59,5.39,3.83c.8.08.79-1.17,0-1.25-1.83-.19-3.5-1.42-4.26-3.09s-.47-3.94.73-5.42c.5-.62-.38-1.51-.88-.88h0Z"/>
      <path class="cls-1" d="M19.47,10.25c1.36,1.46,1.79,3.76.94,5.59s-2.74,2.98-4.73,2.97c-.8,0-.81,1.25,0,1.25,2.45.01,4.86-1.46,5.86-3.72s.53-5.12-1.2-6.98c-.55-.59-1.43.3-.88.88h0Z"/>
      <path class="cls-1" d="M15.15,19.75c1.09,1.85,1.32,4.11.72,6.17-.22.77.98,1.11,1.21.33.68-2.37.4-5-.85-7.13-.41-.69-1.49-.06-1.08.63h0Z"/>
      <path class="cls-1" d="M9.99,19.27c-.15.48-.15.98-.3,1.45l.29-.37c-.97.72-2.14-.57-2.82-1.17-.99-.87-2.23-1.62-3.55-1.01-.23.11-.37.47-.29.71,1.02,2.85,3.8,4.87,6.84,4.91l-.6-.46c.21.78.12,1.52-.26,2.24s.7,1.34,1.08.63c.53-1.01.69-2.09.38-3.2-.07-.27-.33-.46-.6-.46-2.46-.03-4.81-1.67-5.64-3.99l-.29.71c.62-.28,1.36.25,1.81.62.61.5,1.14,1.09,1.85,1.48.66.36,1.47.61,2.21.34.45-.17.75-.41.86-.88.1-.4.11-.81.23-1.21.24-.77-.96-1.1-1.21-.33h0Z"/>
    </g>
  </g>
</svg>