<?xml version="1.0" encoding="UTF-8"?>
<svg id="Layer_2" data-name="Layer 2" xmlns="http://www.w3.org/2000/svg" viewBox="0 0 146.78 34.01">
  <defs>
    <style>
      .cls-1 {
        fill: #132fba;
      }
    </style>
  </defs>
  <g id="behance">
    <g>
      <path class="cls-1" d="M.45,1.21c-.24,4.83,0,9.65.42,14.46.1,1.19.21,2.37.33,3.56.11,1.08.09,2.3.35,3.35.48,1.9,3.35,1.34,2.75-.58-.16-.5-.65-.95-1.21-.92h-.08c-1.6.09-1.61,2.59,0,2.5h.08c-.4-.31-.8-.62-1.21-.92v-.45c.19-.25.38-.5.58-.75l-.1.04h1.26c.63.37.28-.17.24-.61-.05-.49-.1-.98-.15-1.46-.08-.84-.16-1.67-.24-2.51-.16-1.74-.3-3.49-.41-5.24-.22-3.49-.29-6.99-.12-10.48C3.03-.39.53-.39.45,1.21H.45Z"/>
      <path class="cls-1" d="M1.59,13.99c2.15-.54,4.3-1.08,6.44-1.61.63-.16,1.08-.91.87-1.54s-.86-1.04-1.54-.87c-2.15.54-4.3,1.08-6.44,1.61-.63.16-1.08.91-.87,1.54s.86,1.04,1.54.87h0Z"/>
      <path class="cls-1" d="M6.58,1.2c.52,7.58,1.46,15.13,2.8,22.61.28,1.58,2.69.91,2.41-.66-1.31-7.26-2.21-14.58-2.71-21.95-.11-1.6-2.61-1.61-2.5,0h0Z"/>
      <path class="cls-1" d="M14.98,16.19c-.13,2.83.24,5.7,1.09,8.4.19.62.88,1.09,1.54.87s1.08-.87.87-1.54c-.8-2.56-1.12-5.05-1-7.74.03-.65-.6-1.28-1.25-1.25-.7.03-1.22.55-1.25,1.25h0Z"/>
      <path class="cls-1" d="M12.84,9.77v.43c0,.17.03.33.11.48.05.15.14.29.26.4.11.12.25.21.4.26.15.08.31.11.48.11l.33-.04c.21-.06.4-.17.55-.32l.2-.25c.11-.19.17-.41.17-.63v-.43c0-.17-.03-.33-.11-.48-.05-.15-.14-.29-.26-.4-.11-.12-.25-.21-.4-.26-.15-.08-.31-.11-.48-.11l-.33.04c-.21.06-.4.17-.55.32l-.2.25c-.11.19-.17.41-.17.63h0Z"/>
      <path class="cls-1" d="M24.82,24.75v4.28c0,.65.57,1.28,1.25,1.25s1.25-.55,1.25-1.25v-4.28c0-.65-.57-1.28-1.25-1.25s-1.25.55-1.25,1.25h0Z"/>
      <path class="cls-1" d="M34.95,5.08l1.98,17.56c.08.68.52,1.24,1.25,1.25.62,0,1.33-.58,1.25-1.25l-1.98-17.56c-.08-.68-.52-1.24-1.25-1.25-.62,0-1.33.58-1.25,1.25h0Z"/>
      <path class="cls-1" d="M32.92,6.31h8.56c.68,0,1.25-.57,1.25-1.25s-.57-1.25-1.25-1.25h-8.56c-.68,0-1.25.57-1.25,1.25s.57,1.25,1.25,1.25h0Z"/>
      <path class="cls-1" d="M33.78,24.78c3.14-.19,6.27-.38,9.41-.56.67-.04,1.25-.55,1.25-1.25,0-.65-.57-1.29-1.25-1.25-3.14.19-6.27.38-9.41.56-.67.04-1.25.55-1.25,1.25,0,.65.57,1.29,1.25,1.25h0Z"/>
      <path class="cls-1" d="M44.95,3.63s.21.46.13.29c.05.12.1.24.14.36.11.28.2.56.29.85.17.57.31,1.15.4,1.74,0,.03.05.39.03.17.02.17.04.34.05.51.02.3.04.59.04.89,0,.6-.03,1.19-.1,1.78-.08.65.63,1.28,1.25,1.25.74-.03,1.17-.55,1.25-1.25.32-2.69-.19-5.4-1.33-7.85-.28-.59-1.18-.79-1.71-.45-.61.39-.75,1.07-.45,1.71h0Z"/>
      <path class="cls-1" d="M50.16,16.09l1.71,8.79c.27,1.41,2.45,1.05,2.46-.33,0-1.68.13-3.36.44-5.01.15-.83.34-1.66.57-2.48.11-.4.29-1.32.78-1.45.62-.17,1.2,2.63,1.33,3.13.44,1.65.73,3.32.86,5.02l2.46-.33c-.45-1.42-.54-2.91-.2-4.37.16-.69.39-1.36.72-1.98.19-.36.4-.71.64-1.04.09-.12.18-.24.28-.36l.15-.17c.21-.17.21-.21,0-.12l-.63-.17c-.21-.13.08.26.12.33.08.16.16.32.24.48.18.36.35.73.52,1.1.35.76.66,1.54.94,2.33.57,1.57,1.02,3.18,1.38,4.81s2.75.91,2.41-.66c-.48-2.21-1.15-4.37-2.02-6.45-.65-1.56-1.93-5.71-4.3-3.83-1.45,1.15-2.41,3.19-2.84,4.95-.47,1.91-.43,3.93.17,5.8.41,1.28,2.57,1.14,2.46-.33-.17-2.24-.56-4.47-1.21-6.62-.55-1.81-1.33-4.41-3.75-4.02-2.19.35-2.81,2.67-3.23,4.52-.53,2.27-.78,4.6-.79,6.93l2.46-.33-1.71-8.79c-.31-1.58-2.72-.91-2.41.66h0Z"/>
      <path class="cls-1" d="M75.97,4.62c.18,3.93.53,7.85,1.06,11.76.26,1.92.57,3.84.92,5.75.14.78.2,1.62.8,2.2s1.44.52,2.08,0c1.24-1.03-.54-2.79-1.77-1.77l-.11.09,1.22-.32c.41.54.53.55.36.04-.03-.18-.07-.36-.1-.54-.07-.36-.13-.72-.2-1.08-.14-.78-.27-1.56-.39-2.33-.24-1.51-.45-3.02-.63-4.54-.36-3.08-.61-6.16-.75-9.26-.07-1.6-2.57-1.61-2.5,0h0Z"/>
      <path class="cls-1" d="M77.32,5.81c2.85-1.02,5.69-2.04,8.54-3.06.64-.23,1.06-.85.87-1.54-.17-.61-.9-1.1-1.54-.87-2.85,1.02-5.69,2.04-8.54,3.06-.64.23-1.06.85-.87,1.54.17.61.9,1.1,1.54.87h0Z"/>
      <path class="cls-1" d="M78.95,16.91c.39-.23.78-.43,1.19-.61.28-.13-.26.1.03-.01.11-.04.22-.09.33-.13.2-.07.39-.14.59-.2.4-.12.81-.22,1.22-.29.12-.02.24-.04.35-.06.28-.04-.24.02.02,0,.24-.02.47-.05.71-.06.65-.03,1.28-.55,1.25-1.25-.03-.65-.55-1.29-1.25-1.25-2.01.1-3.98.67-5.72,1.69-.56.33-.81,1.14-.45,1.71s1.11.8,1.71.45h0Z"/>
      <path class="cls-1" d="M86.66,23.68c1.13-1.78,1.95-3.71,2.46-5.76l-2.28.3c1.17,2.01,1.3,4.6,3.07,6.26,2.08,1.95,4.96,1.28,7.02-.31,4.46-3.44,6.62-10.01,6.84-15.44.09-2.2.25-5.88-1.75-7.38-2.28-1.71-4.27.77-4.74,2.86-1.31,5.77-.6,12.99,2.44,18.15,1.38,2.34,3.89,4.47,6.77,3.48,3.38-1.17,3.95-5.02,4.11-8.1l-2.46.33c.46,2.42,1.14,5.2,3.4,6.58,1.81,1.1,4.43,1.1,5.84-.64,1-1.24-.76-3.02-1.77-1.77-.85,1.06-2.38.77-3.27-.12-1.2-1.19-1.48-3.13-1.79-4.71-.27-1.44-2.39-1.01-2.46.33-.1,1.91-.19,4.75-2.24,5.67-1.92.86-3.49-1.35-4.24-2.79-2.04-3.89-2.66-8.7-2.3-13.03.08-1,.19-2.03.45-3,.17-.61.59-1.85,1.07-.75.74,1.67.53,4.15.37,5.92-.36,4.06-1.96,8.5-4.78,11.51-1.32,1.41-3.77,3-5.22.89-1.06-1.54-1.26-3.57-2.21-5.2-.53-.91-2.02-.75-2.28.3-.46,1.85-1.19,3.55-2.21,5.16-.86,1.36,1.3,2.62,2.16,1.26h0Z"/>
      <path class="cls-1" d="M107.44,11.82s0,.02,0,.03l-.04-.33s0,.05,0,.08l.04-.33s-.01.05-.02.08l.13-.3s-.03.06-.05.08l.2-.25s-.04.05-.07.07l.25-.2s-.05.04-.08.05l.3-.13s-.05.02-.08.02l.33-.04s-.05,0-.08,0l.33.04s-.02,0-.03,0c-.17-.05-.33-.06-.5-.02-.17,0-.32.06-.46.15-.15.08-.26.19-.35.32-.11.12-.19.26-.22.43l-.04.33c0,.23.06.44.17.63l.2.25c.16.15.34.26.55.32,0,0,.01,0,.02,0,0,0,0,0,0,0,.08.01.25.04.34.05.01,0,.03,0,.04,0,.01,0,.02,0,.03,0,.06,0,.14-.02.17-.02.04,0,.12-.01.17-.02,0,0,.01,0,.02,0,.01,0,.02,0,.03,0,0,0,.01,0,.02,0,0,0,0,0,0,0,.08-.03.22-.09.3-.13.02,0,.04-.02.06-.03,0,0,0,0,.01,0,.09-.06.18-.13.26-.2,0,0,.02-.02.03-.02s.02-.02.02-.03c0,0,0,0,.01-.01.07-.08.14-.18.2-.26.01-.02.03-.04.04-.06,0,0,0,0,0-.01.02-.05.05-.11.07-.15.01-.03.05-.1.07-.15,0-.01,0-.02.01-.03,0-.01,0-.03,0-.04.01-.07.04-.26.05-.33,0,0,0,0,0-.01,0,0,0-.01,0-.02,0-.01,0-.03,0-.04,0,0,0,0,0,0-.01-.1-.03-.24-.05-.34,0,0,0-.01,0-.02-.04-.16-.11-.3-.22-.43-.09-.14-.21-.24-.35-.32-.14-.09-.3-.14-.46-.15-.17-.04-.33-.03-.5.02l-.3.13c-.19.11-.34.26-.45.45l-.13.3c-.06.22-.06.44,0,.66h0Z"/>
      <path class="cls-1" d="M88.12,10.23h-.43c-.17,0-.33.03-.48.11-.15.05-.29.14-.4.26-.12.11-.21.25-.26.4-.08.15-.11.31-.11.48l.04.33c.06.21.17.4.32.55l.25.2c.19.11.41.17.63.17h.43c.17,0,.33-.03.48-.11.15-.05.29-.14.4-.26.12-.11.21-.25.26-.4.08-.15.11-.31.11-.48l-.04-.33c-.06-.21-.17-.4-.32-.55l-.25-.2c-.19-.11-.41-.17-.63-.17h0Z"/>
      <path class="cls-1" d="M115.11,18.24l2.08,14.85,2.41-.66c-.55-3.03-1.11-6.07-1.39-9.15-.13-1.46-.2-2.93-.18-4.4.01-1.01-.16-2.62.45-3.51.56-.83,1.49.53,1.79,1.05.42.75.59,1.6.59,2.45-.01,1.82-.87,3.58-2.47,4.51-1.39.81-.13,2.97,1.26,2.16,3.66-2.12,4.91-7.49,2.4-10.96-.69-.96-1.65-1.82-2.86-1.97s-2.27.47-2.86,1.5-.68,2.31-.75,3.49c-.08,1.59-.05,3.18.06,4.77.26,3.61.9,7.17,1.55,10.73.12.67.93,1.03,1.54.87.72-.19.97-.87.87-1.54l-2.08-14.85c-.09-.67-.95-1.03-1.54-.87-.72.19-.97.87-.87,1.54h0Z"/>
      <path class="cls-1" d="M130.45,12.61c-3.65-.94-7.57,1.62-7.96,5.41-.19,1.81.51,3.66,1.71,5s3.64,2.64,5.2,1.14c.86-.83,1.01-2.26,1.29-3.36.35-1.35.7-2.71,1.04-4.06h-2.41c.27,1.53.64,3.05,1.12,4.53.42,1.29.83,2.88,1.87,3.82s2.5,1.04,3.76.54c1.37-.55,2.26-1.71,3.11-2.86.4-.54.09-1.39-.45-1.71-.63-.37-1.31-.1-1.71.45-.79,1.08-2.55,3.05-3.47,1.03s-1.43-4.3-1.82-6.46c-.22-1.24-2.12-1.14-2.41,0s-.58,2.26-.87,3.38c-.15.59-.3,1.17-.45,1.76-.09.37-.15.81-.34,1.14l-.03.04c.22-.07.21-.09-.05-.07-.12-.05-.25-.07-.37-.13-.3-.13-.59-.32-.84-.54-.53-.46-.94-1.07-1.17-1.73-.45-1.33-.25-2.75.76-3.78s2.45-1.48,3.83-1.13c1.56.4,2.22-2.01.66-2.41h0Z"/>
      <path class="cls-1" d="M143.83,5.92c-.23,4-.08,8,.44,11.97.09.67.51,1.25,1.25,1.25.61,0,1.34-.58,1.25-1.25-.53-3.97-.68-7.98-.44-11.97.09-1.61-2.41-1.6-2.5,0h0Z"/>
      <path class="cls-1" d="M145.47,21.36h-.43c-.17,0-.33.03-.48.11-.15.05-.29.14-.4.26-.12.11-.21.25-.26.4-.08.15-.11.31-.11.48l.04.33c.06.21.17.4.32.55l.25.2c.19.11.41.17.63.17h.43c.17,0,.33-.03.48-.11.15-.05.29-.14.4-.26.12-.11.21-.25.26-.4.08-.15.11-.31.11-.48l-.04-.33c-.06-.21-.17-.4-.32-.55l-.25-.2c-.19-.11-.41-.17-.63-.17h0Z"/>
    </g>
  </g>
</svg>