<?xml version="1.0" encoding="UTF-8"?>
<svg id="Layer_2" data-name="Layer 2" xmlns="http://www.w3.org/2000/svg" viewBox="0 0 23.13 32.45">
  <defs>
    <style>
      .cls-1 {
        fill: #312f2f;
      }
    </style>
  </defs>
  <g id="HTML">
    <g>
      <path class="cls-1" d="M.63,7.5c7.29-.27,14.58-.27,21.87.01.8.03.8-1.22,0-1.25-7.29-.28-14.58-.29-21.87-.01-.8.03-.81,1.28,0,1.25h0Z"/>
      <path class="cls-1" d="M21.87,6.89c-.83,7.33-1.3,14.7-1.84,22.05-.06.8,1.19.8,1.25,0,.54-7.36,1.01-14.72,1.84-22.05.09-.8-1.16-.79-1.25,0h0Z"/>
      <path class="cls-1" d="M11.64,32.42c3.07-.9,6.12-1.86,9.19-2.76.77-.23.44-1.43-.33-1.21-3.07.9-6.12,1.86-9.19,2.76-.77.23-.44,1.43.33,1.21h0Z"/>
      <path class="cls-1" d="M0,6.87c.74,7.4,1.48,14.79,2.22,22.19.08.79,1.33.8,1.25,0-.74-7.4-1.48-14.79-2.22-22.19-.08-.79-1.33-.8-1.25,0H0Z"/>
      <path class="cls-1" d="M2.99,29.68c.8,0,.81-1.25,0-1.25s-.81,1.25,0,1.25h0Z"/>
      <path class="cls-1" d="M2.68,29.66c2.87.92,5.75,1.84,8.62,2.76.77.25,1.1-.96.33-1.21-2.87-.92-5.75-1.84-8.62-2.76-.77-.25-1.1.96-.33,1.21h0Z"/>
      <path class="cls-1" d="M6.4,13.86l10.85-.1c1.61-.01,1.61-2.51,0-2.5l-10.85.1c-1.61.01-1.61,2.51,0,2.5h0Z"/>
      <path class="cls-1" d="M5.15,12.67v5.42c0,.65.57,1.28,1.25,1.25s1.25-.55,1.25-1.25v-5.42c0-.65-.57-1.28-1.25-1.25s-1.25.55-1.25,1.25h0Z"/>
      <path class="cls-1" d="M6.4,19.33c3.32.01,6.64.12,9.96.13,1.61,0,1.61-2.49,0-2.5-3.32-.01-6.64-.12-9.96-.13-1.61,0-1.61,2.49,0,2.5h0Z"/>
      <path class="cls-1" d="M15.11,18.22c-.17,1.91-.41,3.81-.58,5.72-.06.65.62,1.28,1.25,1.25.73-.03,1.19-.55,1.25-1.25.17-1.91.41-3.81.58-5.72.06-.65-.62-1.28-1.25-1.25-.73.03-1.19.55-1.25,1.25h0Z"/>
      <path class="cls-1" d="M15.14,22.85c-.07.03-.14.06-.21.1l.3-.13c-1.4.58-2.9.88-4.27,1.52-.27.13-.5.47-.57.75-.08.3-.05.7.13.96.39.61,1.07.75,1.71.45.07-.03.14-.06.21-.1l-.3.13c1.4-.58,2.9-.88,4.27-1.52.27-.13.5-.47.57-.75.08-.3.05-.7-.13-.96-.39-.61-1.07-.75-1.71-.45h0Z"/>
      <path class="cls-1" d="M5.71,21.61l.15,2.53c.02.33.13.64.37.88.22.22.57.38.88.37s.66-.12.88-.37.39-.55.37-.88l-.15-2.53c-.02-.33-.13-.64-.37-.88-.22-.22-.57-.38-.88-.37s-.66.12-.88.37-.39.55-.37.88h0Z"/>
      <path class="cls-1" d="M6.78,25.35c1.47.52,3.01.76,4.48,1.27.62.22,1.39-.25,1.54-.87.16-.7-.21-1.3-.87-1.54-1.47-.52-3.01-.76-4.48-1.27-.62-.22-1.39.25-1.54.87-.16.7.21,1.3.87,1.54h0Z"/>
      <path class="cls-1" d="M2.66.67l.05,3.52c0,.33.28.64.62.62s.63-.27.62-.62l-.05-3.52c0-.33-.28-.64-.62-.62s-.63.27-.62.62h0Z"/>
      <path class="cls-1" d="M3.44,2.9l2.17.17c.33.03.64-.31.62-.62-.02-.36-.28-.6-.62-.62l-2.17-.17c-.33-.03-.64.31-.62.62.02.36.28.6.62.62h0Z"/>
      <path class="cls-1" d="M5.4.63l-.04,3.48c0,.33.29.64.62.62s.62-.27.62-.62l.04-3.48c0-.33-.29-.64-.62-.62s-.62.27-.62.62h0Z"/>
      <path class="cls-1" d="M8.64.89v2.96c0,.33.29.64.62.62s.62-.27.62-.62V.89c0-.33-.29-.64-.62-.62s-.62.27-.62.62h0Z"/>
      <path class="cls-1" d="M8,1.53h2.7c.33.01.64-.28.62-.61s-.27-.62-.62-.62h-2.7c-.33-.01-.64.28-.62.61s.27.62.62.62h0Z"/>
      <path class="cls-1" d="M11.85.76l-.04,3.09c0,.33.29.64.62.62s.62-.27.62-.62l.04-3.09c0-.33-.29-.64-.62-.62s-.62.27-.62.62h0Z"/>
      <path class="cls-1" d="M12.18,1.04l1.24,2.14c.16.28.57.41.86.22s.4-.55.22-.86l-1.24-2.14c-.16-.28-.57-.41-.86-.22s-.4.55-.22.86h0Z"/>
      <path class="cls-1" d="M15.22.29l-1.65,2c-.11.13-.18.27-.18.44,0,.15.07.34.18.44.23.21.66.27.88,0l1.65-2c.11-.13.18-.27.18-.44,0-.15-.07-.34-.18-.44-.23-.21-.66-.27-.88,0h0Z"/>
      <path class="cls-1" d="M15.24.89l.04,3.13c0,.33.28.64.62.62s.63-.27.62-.62l-.04-3.13c0-.33-.28-.64-.62-.62s-.63.27-.62.62h0Z"/>
      <path class="cls-1" d="M17.29.8l-.04,3c0,.33.29.64.62.62s.62-.27.62-.62l.04-3c0-.33-.29-.64-.62-.62s-.62.27-.62.62h0Z"/>
      <path class="cls-1" d="M17.95,4.38l2.39.09c.33.01.64-.3.62-.62-.02-.35-.27-.61-.62-.62l-2.39-.09c-.33-.01-.64.3-.62.62.02.35.27.61.62.62h0Z"/>
    </g>
  </g>
</svg>