<svg width="425" height="100" viewBox="0 0 425 100" fill="none" xmlns="http://www.w3.org/2000/svg">
<path d="M107.416 58.735C107.416 64.7545 109.256 90.0874 119.385 76.6643C122.117 73.0447 124.187 66.8511 123.699 61.5961M123.699 61.5961C123.553 60.0275 123.18 58.5426 122.527 57.2347C121.089 54.3506 121.98 57.213 123.699 61.5961ZM123.699 61.5961C125.565 66.3538 128.407 72.9031 130.308 75.8391C134.307 82.0186 135.663 81.4266 141.08 80.3402M150.507 49.2827C142.261 49.2827 138.095 54.9655 144.073 62.1858C148.228 67.205 153.601 69.1457 154.317 75.9158M154.317 75.9158C154.369 76.4132 154.397 76.9367 154.397 77.4895C154.397 82.8543 149.908 84.2722 145.345 82.3656C143.744 81.6969 147.831 79.8978 149.31 78.9898C150.92 78.0009 152.617 76.9874 154.317 75.9158ZM154.317 75.9158C159.807 72.454 165.327 68.3849 168.051 62.5718M168.051 62.5718C168.315 62.0097 168.552 61.4312 168.76 60.8355C169.756 57.9935 172.136 34.0376 168.012 33.0038C166.615 32.6534 167.057 56.6501 167.264 58.1348C167.465 59.5705 167.725 61.0616 168.051 62.5718ZM168.051 62.5718C169.227 68.0109 171.261 73.6984 174.446 77.9396C178.543 83.3954 180.648 76.2561 182.825 73.5885M155.893 50.6329C163.48 50.6329 171.288 48.9347 178.785 47.9323M181.478 76.2892C184.12 70.3283 188.479 64.0524 189.408 57.5347C190.248 51.6404 191.69 52.625 198.984 53.6338C205.9 54.5904 203.076 68.2923 203.846 73.4385C205.732 86.0431 209.664 83.943 217.836 77.6395M233.995 61.4356C224.711 52.1259 217.903 66.6163 220.23 75.314C223.719 88.3566 233.873 70.9768 233.995 64.7364C234.014 63.7402 233.63 60.9038 234.294 63.6862C235.616 69.2299 237.467 75.4812 241.326 79.815C247.683 86.954 253.719 70.1021 254.717 65.7116C255.072 64.1508 255.295 62.0616 255.409 59.7024M255.409 59.7024C255.988 47.728 253.765 28.7969 251.8 36.6797C250.259 42.861 252.818 51.985 255.409 59.7024ZM255.409 59.7024C256.461 62.8342 257.518 65.7344 258.308 68.1122C259.435 71.503 260.918 77.4254 263.919 79.74C268.804 83.508 274.337 74.9943 277.085 72.2382M246.114 50.6331C242.594 50.6331 253.119 49.8875 256.587 49.2828C258.621 48.9281 267.165 46.0123 262.273 49.2828M274.392 73.5887C276.262 71.714 277.946 69.9093 279.03 67.4372C280.224 64.7163 280.903 57.8792 281.125 64.4365C281.372 71.7382 288.788 89.8682 294.591 76.2894M277.086 49.2827C277.468 49.2827 278.02 49.2686 278.517 49.1831M278.517 49.1831C279.497 49.0146 280.264 48.5688 279.106 47.4073C278.911 47.2118 278.96 48.5783 278.517 49.1831ZM278.517 49.1831C278.491 49.2192 278.462 49.2526 278.432 49.2827M299.978 61.4358C296.893 66.0757 293.615 72.2287 295.489 77.9397C299.522 90.2282 310.211 87.4562 312.995 76.2893C313.459 74.4262 313.205 70.7039 312.256 67.3664M312.256 67.3664C310.854 62.4329 307.933 58.3402 303.568 62.336C299.067 66.4575 306.023 67.7603 309.104 67.6622C310.163 67.6285 311.217 67.5299 312.256 67.3664ZM312.256 67.3664C317.763 66.5006 322.885 63.8167 326.311 59.3352C330.058 54.4339 326.886 71.7076 327.957 77.7897C328.607 81.4856 329.519 77.0474 329.902 75.8392C331.257 71.56 332.751 61.2829 337.607 59.3352C342.023 57.5641 348.484 77.2284 350.475 79.8902C360.155 92.8328 368.144 69.4846 370 62.7861M37.831 41.0125C37.831 31.0692 40.5242 80.6628 40.5242 70.7196M20.3256 41.0123C18.7787 41.0123 23.1639 39.7381 24.6646 39.3619C32.346 37.4362 43.7083 32.5671 51.2971 35.611M27.0584 81.5221C34.7662 79.9763 43.8478 77.1839 51.2969 80.1718M54.2466 79.5938C56.4517 76.6455 58.6879 73.6277 60.7269 70.4881M60.7269 70.4881C63.1702 66.7263 65.3303 62.7897 66.8147 58.5888C68.8858 52.7276 70.2559 37.0245 62.3261 34.1329C53.2452 30.8216 54.9882 53.9643 60.7269 70.4881ZM60.7269 70.4881C65.0701 82.9937 71.7019 91.7081 77.6622 82.2945C79.169 79.9147 81.6102 75.4049 84.0089 70.0454M84.0089 70.0454C89.5682 57.6242 94.8987 40.6396 87.8364 35.0331C82.0585 30.4462 77.6578 40.3269 77.4378 44.3353C77.0328 51.7122 79.1597 62.3523 84.0089 70.0454ZM84.0089 70.0454C86.5643 74.0994 89.8757 77.3351 93.9709 78.8436C98.7186 80.5925 105.465 78.1705 108.11 74.1925" stroke="#132FBA" stroke-width="4" stroke-linecap="round" stroke-linejoin="round"/>
<path d="M373.991 39.3915C373.991 37.0857 373.67 38.6754 373.843 39.6033M373.843 39.6033C373.859 39.6879 373.879 39.7671 373.903 39.8373M373.843 39.6033C373.555 39.1114 373.396 38.4336 373.438 37.9429M373.843 39.6033C373.973 39.8254 374.13 40.0097 374.307 40.1216M373.903 39.8373C373.965 40.0126 374.056 40.1319 374.187 40.1413M373.903 39.8373C373.121 38.938 373.095 38.3222 373.438 37.9429M373.903 39.8373C373.989 39.9352 374.083 40.0366 374.187 40.1413M374.187 40.1413C374.223 40.1439 374.263 40.1378 374.307 40.1216M374.187 40.1413C374.195 40.15 374.204 40.1588 374.213 40.1675C374.877 40.8321 375.372 40.5135 375.673 39.8129M374.307 40.1216C374.574 40.022 374.969 39.5415 375.543 38.3937C375.703 38.0729 375.79 37.7982 375.818 37.5682M374.307 40.1216C374.511 40.251 374.741 40.2839 374.989 40.1675C375.246 40.0465 375.473 39.9282 375.673 39.8129M375.818 37.5682C375.964 36.36 374.49 36.3871 373.603 37.4514C373.509 37.5639 373.456 37.7369 373.438 37.9429M375.818 37.5682C375.883 37.5848 375.947 37.6033 376.008 37.6235M375.818 37.5682C374.98 37.3543 373.89 37.4434 373.438 37.9429M375.673 39.8129C377.504 38.7556 377.013 37.9532 376.008 37.6235M375.673 39.8129C375.923 39.2315 376.039 38.3872 376.008 37.6235M376.008 37.6235C375.934 35.771 374.994 34.3931 372.993 38.3937M387.959 33.405C387.959 33.6586 387.982 33.9057 388.024 34.1409M388.024 34.1409C388.222 35.2663 388.835 36.118 389.319 36.0937M388.024 34.1409C388.316 33.4201 388.982 32.8502 389.449 33.0352M388.024 34.1409C387.67 35.0142 387.865 36.1088 389.626 36.3498M389.319 36.0937C389.672 36.0759 389.955 35.5906 389.955 34.4027C389.955 33.9102 389.882 33.5663 389.764 33.3424M389.319 36.0937C389.161 35.8617 389.035 35.481 388.961 35.0657M389.319 36.0937C389.378 36.1817 389.443 36.2484 389.511 36.2874C389.551 36.3099 389.589 36.3307 389.626 36.3498M389.764 33.3424C389.679 33.1821 389.571 33.0832 389.449 33.0352M389.764 33.3424C390.392 33.8055 391.077 35.8584 390.542 36.3953M389.764 33.3424C389.373 33.0546 389.003 33.3807 388.961 35.0657M389.449 33.0352C389.503 33.0371 389.56 33.0491 389.622 33.0724C391.067 33.6141 392.957 36.2943 390.542 36.3953M389.449 33.0352C388.885 33.015 388.793 34.1286 388.961 35.0657M389.626 36.3498C389.856 36.3813 390.113 36.3982 390.398 36.3982C390.448 36.3982 390.496 36.3972 390.542 36.3953M389.626 36.3498C390.081 36.5834 390.373 36.5655 390.542 36.3953M388.961 35.0657C388.958 35.1718 388.957 35.2834 388.957 35.4005M370 50.3668C374.668 55.0353 382.137 58.8346 388.957 57.1294C394.279 55.7991 402.926 48.4049 402.926 42.3848" stroke="#312F2F" stroke-width="4" stroke-linecap="round" stroke-linejoin="round"/>
</svg>
