<?xml version="1.0" encoding="UTF-8"?>
<svg id="Layer_2" data-name="Layer 2" xmlns="http://www.w3.org/2000/svg" viewBox="0 0 25.18 25.36">
  <defs>
    <style>
      .cls-1 {
        fill: #312f2f;
      }
    </style>
  </defs>
  <g id="JS">
    <g>
      <path class="cls-1" d="M.81,1.25c7.83.27,15.66.29,23.49.05.8-.02.81-1.27,0-1.25C16.47.29,8.63.27.81,0,0-.03,0,1.22.81,1.25h0Z"/>
      <path class="cls-1" d="M23.79.85l.14,23.5c0,.8,1.25.81,1.25,0l-.14-23.5c0-.8-1.25-.81-1.25,0h0Z"/>
      <path class="cls-1" d="M.08.73C.36,8.64.33,16.55,0,24.45c-.03.8,1.22.8,1.25,0,.33-7.9.36-15.81.08-23.72C1.31-.07.06-.07.08.73H.08Z"/>
      <path class="cls-1" d="M.69,25.36c7.94-.29,15.9-.29,23.84-.01.8.03.8-1.22,0-1.25-7.95-.28-15.9-.27-23.84.01-.8.03-.81,1.28,0,1.25h0Z"/>
      <path class="cls-1" d="M11.15,11.74l-.03,3.83c-.01,1.19.08,2.43-.07,3.62-.03.23.07-.24-.03.16-.03.11-.05.22-.09.34-.01.05-.12.28-.05.14,0,0-.19.3-.11.2-.02.03-.26.24-.13.14s-.1.05-.13.07c.23-.13-.02,0-.08.02-.22.08.11,0-.02,0-.09,0-.17,0-.26,0-.27,0,.18.08-.08-.02-.06-.02-.14-.04-.2-.06-.26-.07.14.11-.08-.04-.03-.02-.26-.18-.13-.07s-.08-.08-.1-.11c-.25-.22.16.18-.05-.07-.15-.18.04.16-.03-.08-.2-.64-.87-1.06-1.54-.87s-1.07.89-.87,1.54c.83,2.66,4.75,3.13,6.02.56.66-1.34.53-2.91.54-4.36l.04-4.92c.01-1.61-2.49-1.61-2.5,0h0Z"/>
      <path class="cls-1" d="M21.21,11.97c-1.54-.73-3.4-1.23-4.91-.12-.75.55-1.23,1.37-1.25,2.32-.02.83.38,1.58.91,2.19.92,1.09,2.27,1.47,3.42,2.22.05.03.34.25.2.13.12.1.23.22.35.33,0,0,.13.16.05.05-.08-.11.05.08.06.11.03.05.06.1.08.15-.1-.21,0,.02,0,.07.03.2-.03-.19,0,.01,0,.06,0,.12,0,.18.01-.28-.12.26,0,.03-.03.05-.05.1-.08.15-.1.16.12-.12-.01.02-.05.06-.11.11-.16.17-.13.13.22-.12-.08.06-.06.03-.42.23-.24.15-.15.06-.31.1-.47.14.2-.05.02,0-.03,0-.11,0-.21,0-.32,0-.1,0-.26-.03-.42-.07-.82-.21-1.53-.68-2.26-1.15-.57-.36-1.38-.12-1.71.45-.35.6-.12,1.35.45,1.71,1.33.85,2.86,1.73,4.5,1.53s3.09-1.26,3.31-2.91-.88-2.83-2.17-3.61c-.55-.33-1.15-.56-1.7-.89-.32-.19-.46-.28-.68-.48-.3-.27-.36-.32-.5-.64.1.25-.09-.34,0-.05,0-.01-.05-.26-.01-.03,0-.04.05-.2,0-.06.03-.07.08-.16.13-.22-.12.15.13-.08.03-.01-.09.06.08-.05.08-.05,0,0,.28-.14.2-.11-.05.02.47-.07.27-.06.15,0,.37,0,.47.02.43.07.84.24,1.23.43.61.29,1.35.17,1.71-.45.32-.54.16-1.42-.45-1.71h0Z"/>
    </g>
  </g>
</svg>