<?xml version="1.0" encoding="UTF-8"?>
<svg id="Layer_2" data-name="Layer 2" xmlns="http://www.w3.org/2000/svg" viewBox="0 0 26.81 27.1">
  <defs>
    <style>
      .cls-1 {
        fill: #312f2f;
      }
    </style>
  </defs>
  <g id="linkedin">
    <g>
      <path class="cls-1" d="M6.59,8.45c2.41,0,2.42-3.75,0-3.75s-2.42,3.75,0,3.75h0Z"/>
      <path class="cls-1" d="M4.8,11.33l-.02,8.95c0,.98.86,1.92,1.88,1.88s1.87-.82,1.88-1.88l.02-8.95c0-.98-.86-1.92-1.88-1.88s-1.87.82-1.88,1.88h0Z"/>
      <path class="cls-1" d="M10.4,11.61c-.08,2.94-.15,5.89-.23,8.83-.03.98.88,1.92,1.88,1.88s1.85-.82,1.88-1.88c.08-2.94.15-5.89.23-8.83.03-.98-.88-1.92-1.88-1.88s-1.85.82-1.88,1.88h0Z"/>
      <path class="cls-1" d="M13.56,15.67c.39-.44.78-.87,1.22-1.25.1-.08.19-.19.3-.25-.43.25.01,0,.11-.06.13-.09.27-.17.4-.24.06-.03.12-.06.18-.09.13-.06.08-.04-.14.05.22-.19.62-.1.87-.23-.28.04-.35.05-.2.03.06,0,.12,0,.18-.01.14,0,.28,0,.42,0,.48.03-.33-.09.04,0,.12.03.23.05.35.09.08.02.15.05.22.08-.25-.11-.31-.13-.18-.07.03.03.32.21.35.2-.23-.18-.26-.21-.11-.08l.08.08c.13.15.11.11-.08-.11.06.08.11.16.17.24.15.22.34.47.42.73-.16-.54.03.18.02.22l-.02-.18c.01.11.03.22.04.33.05.38.09.76.12,1.14.12,1.44.1,2.88-.04,4.32-.1.98.93,1.92,1.88,1.88,1.1-.05,1.77-.83,1.88-1.88.18-1.71.16-3.42-.04-5.13-.11-1.02-.23-1.93-.72-2.84-.43-.81-1.01-1.53-1.79-2.03-1.33-.85-3.23-.97-4.7-.46-1.56.55-2.78,1.63-3.86,2.85-.65.73-.78,1.94,0,2.65.71.65,1.96.78,2.65,0h0Z"/>
      <path class="cls-1" d="M8,.02C5.46.07,2.66-.05.94,2.21.04,3.39-.02,4.81,0,6.24c.03,1.97.09,3.94.13,5.92.04,1.81.08,3.62.12,5.42.04,1.94-.07,3.97.17,5.9.38,2.93,3.32,3.25,5.75,3.42,3.92.26,7.86.27,11.78.03,2.4-.15,6.49.11,7.95-2.33.68-1.13.57-2.58.59-3.84.03-2.12.07-4.24.1-6.36.05-3.27.44-6.72.01-9.96-.17-1.32-.6-2.71-1.7-3.55-1.23-.94-2.79-.77-4.24-.75-4.23.06-8.45-.21-12.67-.11-.8.02-.81,1.27,0,1.25,2.98-.07,5.95.04,8.93.09,1.48.03,2.96.04,4.43,0s2.92.06,3.6,1.61c1,2.28.48,5.34.44,7.75-.05,3.1-.1,6.2-.14,9.29-.02,1.33.29,3.32-.76,4.35-.96.94-2.6.99-3.85,1.11-3.18.29-6.38.41-9.57.37-1.47-.02-2.95-.07-4.42-.16-1.28-.08-3.04,0-4.14-.8-1.26-.92-.92-2.96-.95-4.34-.04-1.64-.07-3.29-.11-4.93-.08-3.38-.32-6.81-.22-10.19.05-1.86.91-3.22,2.72-3.83,1.32-.45,2.67-.29,4.04-.32.8-.02.81-1.27,0-1.25h0Z"/>
    </g>
  </g>
</svg>