<?xml version="1.0" encoding="UTF-8"?>
<svg id="Layer_2" data-name="Layer 2" xmlns="http://www.w3.org/2000/svg" viewBox="0 0 354.72 435.34">
  <defs>
    <style>
      .cls-1, .cls-2, .cls-3 {
        stroke: #132fba;
        stroke-miterlimit: 10;
        stroke-width: .25px;
      }

      .cls-1, .cls-4 {
        fill: #312f2f;
      }

      .cls-2, .cls-5 {
        fill: #132fba;
      }

      .cls-6, .cls-3 {
        fill: #ef3f36;
      }
    </style>
  </defs>
  <g id="Desenho">
    <g id="touca">
      <g>
        <polygon class="cls-6" points="255.6 29.1 257.21 28.62 258.79 33.34 260.73 36.28 264.69 39.99 266.98 42.22 266.76 51.16 270.15 60.7 271.02 64.36 266.76 62.89 263.48 62.63 260.73 62.63 257.84 64.19 255.39 66.72 253.17 69.9 252.73 63.71 253.82 56.07 255.1 48.91 253.58 43.96 249.79 39.76 249.79 35.79 252.45 32.87 255.6 29.1"/>
        <polygon class="cls-6" points="130.93 131.2 131.06 126.63 129.71 121.39 127.08 117.29 124.85 114.94 127.58 107.97 128.32 101.72 127.08 93.65 126.63 87.48 128.3 82.19 130.3 87.48 133.88 92.06 137.51 94.86 140.02 96.23 140.28 101.19 140.01 108.38 138.9 115.81 137.9 120.55 138.75 124.06 138.03 126.29 135.46 128.63 130.93 131.2"/>
        <polygon class="cls-6" points="92.75 272.17 94.65 265.64 93.85 260.3 90.77 254.44 89.89 249.94 90.91 245.65 94.73 248.37 98.08 249.93 101.57 249.01 104.01 246.84 104.63 251.9 104.72 257.24 103.82 268.75 102.83 275.2 102.94 278.66 104.43 282.06 103.09 285.04 99.56 286.94 95.96 287.38 96.65 283.14 95.99 278.77 94.17 274.47 92.75 272.17"/>
        <polygon class="cls-3" points="25.52 409.53 28.61 413.09 32.61 415.4 37.78 414.65 36.66 420.03 34.24 426.39 28.65 425.55 24.24 422.79 21.43 418.06 22.46 413.71 25.52 409.53"/>
        <polygon class="cls-1" points="250.34 5.55 255.27 9.85 264.67 14.88 267.2 11.84 268.06 8.33 266.65 4.54 263.51 1.77 259.02 .5 255.04 1.55 250.34 5.55"/>
        <polyline class="cls-1" points="118.78 123.85 113.98 121.58 109.66 122.45 106.62 124.64 104.77 128.19 104.94 131.52 106.2 134.6 108.93 136.97 112.22 134.48 114.91 131.35 117.98 126.48 118.78 123.85"/>
        <polygon class="cls-1" points="75.42 284.79 73.44 281.74 73.62 277.26 75.75 274.25 79.01 272.92 81.45 273.3 84.25 274.58 86.04 277.08 86.66 279.93 82.31 280.89 78.57 282.73 75.42 284.79"/>
        <path class="cls-5" d="M259.98.01c-2.23-.1-4.37.38-6.27,1.56s-3.86,2.85-4.33,5.09c-.23,1.11.06,1.99.44,3.02.55,1.46.25,2.61-.78,3.75-.49.54-1.02,1.3-.53,2.01.27.39.76.51,1.08.85s.54.82.74,1.25c.39.82.75,1.68,1.49,2.25.81.62,1.8.7,2.78.57,1.25-.17,2.45-.66,3.72-.54s2.57.76,3.91.7c.86-.04,1.49-.52,1.69-1.37.12-.51.08-1.03.22-1.53.18-.63.51-1.2.88-1.73,1.19-1.73,2.81-3.17,3.35-5.27,1.39-5.39-3.23-9.81-8.22-10.57-.79-.12-1.13,1.08-.33,1.21,4.03.61,7.85,3.61,7.51,8.04-.15,2.01-1.44,3.45-2.64,4.95-.53.67-1.05,1.37-1.42,2.15-.13.29-.25.58-.34.88-.12.44-.04,1.14-.22,1.53-.46.98-2.41.13-3.17-.05-.96-.22-1.88-.27-2.85-.11s-1.88.52-2.83.52c-1.2-.01-1.72-.73-2.2-1.72-.31-.65-.57-1.32-1.04-1.87-.18-.22-.42-.36-.61-.56-.35-.36-.37-.25-.09-.7.13-.22.39-.4.54-.6,1.1-1.41,1.06-3.07.44-4.67-.5-1.28-.44-2.38.32-3.56.66-1.02,1.64-1.84,2.63-2.52,1.85-1.27,3.88-1.8,6.12-1.7.8.04.8-1.21,0-1.25h0Z"/>
        <path class="cls-5" d="M257.97,18.7c-4.73,1.4-9.06,3.89-13.8,5.27-5.03,1.46-10.29,1.29-15.47,1.39-2.49.05-4.98.16-7.44.54-2.62.4-5.09,1.13-7.76,1.3s-5.1-.24-7.59-1.09c-2.06-.7-4.01-1.5-6.18-1.78-1.44-.18-3.77-.37-4.95.74-.69.66-.09,1.35.55,1.74,2.46,1.53,5.43,1.97,7.3,4.36,1.16,1.48,2.97,1.36,4.66.95,2.34-.57,4.63-.72,7.04-.58,4.73.29,9.48,1.61,14.23,1.41,1.62-.07,3.2-.64,4.79-.92,3.03-.54,6.07-1.08,9.11-1.56,5.85-.92,11.87-1.6,17.77-.73.79.12,1.13-1.09.33-1.21-4.67-.69-9.38-.47-14.04.11-4.92.61-9.89,1.4-14.75,2.42-1.26.26-2.45.65-3.75.65-2.32-.01-4.65-.34-6.95-.65-4.32-.58-8.82-1.35-13.14-.39-1.06.24-2.37.77-3.46.39-.76-.27-1.14-1.13-1.71-1.66-1.04-.96-2.36-1.61-3.63-2.2-.6-.28-1.2-.53-1.81-.8-.34-.15-1.14-.75-1.5-.75-.06,0-.13-.13-.17-.13l-.02.24c-.09.29-.02.32.21.11.35-.01.8-.28,1.17-.33,1.08-.16,2.2-.05,3.27.14,2.14.38,4.08,1.29,6.14,1.92,2.24.69,4.5,1,6.84.87s4.47-.61,6.75-1.08c2.48-.51,5.01-.67,7.53-.74,5.37-.16,10.83.13,16.08-1.22s9.64-4.02,14.66-5.5c.77-.23.44-1.43-.33-1.21h0Z"/>
        <path class="cls-5" d="M262.43,20.15c3.27,1.79,4.66,5.4,5.05,8.94.47,4.32-.47,8.57-1.07,12.82s-.62,8.5.45,12.7c.51,2,1.27,3.89,2.11,5.78.9,2.03,1.94,4.19,1.99,6.45s-1.48,3.93-2.04,6.05c-.52,2-.6,4.16-.76,6.21-.29,3.65-.31,7.27.2,10.9.59,4.2,1.89,8.22,2.69,12.37.71,3.65.22,7.12-.32,10.76-.49,3.29-1.07,6.72-.51,10.03.23,1.38.68,2.59,1.64,3.62.75.8,1.44,1.42,1.52,2.59s-.32,2.33-.74,3.4c-.72,1.84-1.42,3.79-2.31,5.56-.83,1.64-2.01,2.91-3.86,3.29-.62.13-1.47.25-2.08-.01-.45-.19-.35-.17-.22-.51.18-.46.67-.95.94-1.35,1.07-1.59,1.66-3.03,1.76-4.95.45-8.96-.87-17.95-3.36-26.55-1.27-4.37-2.93-8.62-4.36-12.94s-2.72-8.72-3.71-13.18c-2.02-9.13-2.53-18.33-.59-27.51.76-3.59,1.45-7.66-.65-10.96-.45-.7-1-1.3-1.65-1.82-.86-.7-1.89-1.31-2.22-2.44-.61-2.07.88-4.19,2.18-5.64,1.18-1.32,2.33-2.53,2.99-4.2.3-.75-.91-1.07-1.21-.33-1.39,3.5-5.83,5.52-5.3,9.82.25,2.02,1.78,2.81,3.14,4.08,1.64,1.53,2.23,3.81,2.22,5.99,0,2.44-.68,4.81-1.13,7.19-.42,2.18-.69,4.39-.82,6.61-.28,4.61.04,9.24.74,13.8,1.47,9.62,4.8,18.65,7.88,27.82s4.88,18.74,4.65,28.39c-.03,1.15.04,2.42-.26,3.54s-.99,2.08-1.63,3.01c-.73,1.06-1.79,2.19-.28,3.11,2.37,1.46,5.75-.4,7.14-2.35,1.15-1.62,1.68-3.58,2.46-5.38s1.63-3.54,1.52-5.47c-.05-.79-.25-1.51-.7-2.16-.53-.75-1.35-1.3-1.81-2.1-.84-1.47-.89-3.44-.87-5.08.06-3.71.89-7.35,1.29-11.03.43-3.97-.38-7.65-1.36-11.49-1.05-4.12-1.91-8.29-1.99-12.55-.04-2.03.07-4.06.24-6.08.19-2.36.2-4.99,1.25-7.16.94-1.92,1.72-3.49,1.47-5.7-.24-2.06-1.08-3.98-1.92-5.86-1.95-4.39-3.17-8.86-3.01-13.7.26-7.84,4.1-17-.72-24.24-.88-1.32-2.04-2.39-3.43-3.15-.71-.39-1.34.69-.63,1.08h0Z"/>
        <g>
          <path class="cls-4" d="M264.54,14.98c-4.81-2.27-10.24-5.2-14.01-8.94"/>
          <path class="cls-5" d="M264.86,14.44c-4.94-2.34-9.95-4.98-13.89-8.85-.57-.56-1.46.32-.88.88,4.01,3.94,9.1,6.65,14.14,9.04.72.34,1.36-.73.63-1.08h0Z"/>
        </g>
        <path class="cls-5" d="M253.76,70.6c1.31-2.66,3.06-5.5,5.88-6.71,3.57-1.54,7.67-.52,11.06,1.01.73.33,1.36-.75.63-1.08-3.7-1.67-8.07-2.75-11.99-1.15-3.19,1.3-5.18,4.31-6.66,7.3-.35.72.72,1.35,1.08.63h0Z"/>
        <path class="cls-5" d="M256.88,29.37c-.04,2.94,1.46,5.54,3.45,7.61s4.02,3.84,6.33,5.33c.68.44,1.3-.64.63-1.08-2.12-1.37-4.06-3.08-5.83-4.88-1.87-1.9-3.37-4.22-3.33-6.98,0-.8-1.24-.81-1.25,0h0Z"/>
        <path class="cls-5" d="M120.54,136.06c1.02,1.38,2.17,2.76,2.8,4.38.82,2.08.06,4.24-.36,6.32-.76,3.78-1.1,7.63-1.23,11.48-.07,1.9-.09,3.81-.09,5.71s.15,3.84-.05,5.72c-.22,2.05-1.35,3.66-2.25,5.45-.81,1.6-1.4,3.31-1.72,5.08-.2,1.12-.66,2.85.04,3.88s1.88.7,2.6-.04c1.02-1.05,1.53-2.7,2.16-3.99.82-1.68,1.79-3.35,2.38-5.12s.64-3.72,1.12-5.54c.52-1.98,1.23-3.91,1.8-5.88.99-3.42,1.67-6.92,2.05-10.46.92-8.39.09-16.94-2.38-25.01-.23-.77-1.44-.44-1.21.33,2.06,6.73,2.96,13.77,2.63,20.8-.16,3.52-.63,7.02-1.4,10.46s-2.14,6.85-2.94,10.34c-.36,1.6-.4,3.28-.97,4.83-.63,1.73-1.58,3.38-2.39,5.04-.41.84-.77,1.73-1.24,2.55-.09.16-.33.69-.51.77-1.03.44-.79-.7-.76-1.06.14-1.9.65-3.82,1.42-5.56.62-1.39,1.49-2.66,2.08-4.06.65-1.52.78-3.08.78-4.72,0-3.65-.05-7.3.13-10.95.2-4.1.84-8.04,1.63-12.05.34-1.75.42-3.37-.3-5.03-.68-1.57-1.76-2.93-2.77-4.3-.47-.64-1.56-.02-1.08.63h0Z"/>
        <path class="cls-5" d="M128.65,132.99c3.11-1.28,6.52-2.89,8.96-5.26.91-.88,1.74-2.04,1.77-3.35.01-.62-.17-1.16-.4-1.73-.48-1.16-.54-2.03-.25-3.28,1.73-7.67,2.6-15.27,1.92-23.14-.07-.8-1.32-.8-1.25,0,.62,7.2.11,14.44-1.55,21.47-.32,1.37-.81,2.81-.47,4.22.16.66.56,1.23.7,1.89.21.98-.31,1.89-.94,2.6-1.07,1.23-2.56,2.11-3.95,2.94-1.56.94-3.19,1.75-4.88,2.44-.73.3-.41,1.51.33,1.21h0Z"/>
        <path class="cls-5" d="M121.2,125.4c2.26-8.12,8.27-15.23,7.73-24.03-.28-4.55-1.98-8.98-1.7-13.57.25-4.1,2.69-8.13,6.68-9.55s8.61.62,11.47,3.6c1.51,1.57,2.68,3.45,4.12,5.09,1.25,1.43,2.62,2.74,4.14,3.89,3.31,2.5,7.13,3.47,10.93,4.93,2.06.79,3.99,1.83,5.55,3.42s2.72,3.42,4.16,5.08,3.1,3.1,5.17,3.74c.98.31,1.98.31,2.99.39,1.69.14,2.32.92,3.12,2.3.91,1.57,2.17,2.81,3.77,3.67,1.06.57,2.67.95,3.04,2.24l.16-.61c-2.37,2.14-4.89.86-7-.95-1.74-1.49-3.33-2.98-5.44-3.94-4.28-1.94-9.13-2.28-13.18-4.77-2.11-1.31-3.98-2.98-6.14-4.22s-4.62-1.87-7.07-2.4c-5.19-1.1-10.47-2.26-15.11-4.92s-8.69-7.14-9.4-12.65c-.1-.79-1.35-.8-1.25,0,1.4,10.97,12.49,15.85,22.01,18.04,2.9.67,5.95,1.05,8.7,2.25,2.55,1.11,4.64,3.01,6.93,4.53,4.35,2.9,9.59,3.16,14.22,5.38,4.28,2.06,8.55,9.1,13.62,4.53.16-.15.22-.4.16-.61-.32-1.11-1.12-1.75-2.12-2.25-1.4-.71-2.75-1.33-3.82-2.53-1.26-1.43-1.7-3.54-3.73-4.12-.91-.26-1.87-.2-2.8-.3-1.29-.13-2.47-.65-3.52-1.4-3.7-2.64-5.39-7.2-9.37-9.55-3.77-2.23-8.28-2.76-12.02-5.04-1.86-1.13-3.51-2.54-5-4.12-1.59-1.7-2.87-3.63-4.39-5.38-2.58-2.98-6.49-5.18-10.52-5.01-3.69.16-6.93,2.55-8.72,5.7-2.23,3.93-1.66,8.46-.87,12.71.52,2.77,1.13,5.56,1.02,8.4-.1,2.56-.8,5.04-1.72,7.42-1.87,4.83-4.6,9.3-6,14.31-.22.78.99,1.11,1.21.33h0Z"/>
        <path class="cls-5" d="M124.52,115.74c2.22,1.85,3.97,4.05,4.98,6.79s1.25,5.48.72,8.23c-.15.79,1.05,1.12,1.21.33.57-2.97.33-6.06-.72-8.9s-2.92-5.34-5.31-7.34c-.61-.51-1.5.37-.88.88h0Z"/>
        <path class="cls-5" d="M121.06,124.75c-2.94-2.38-7.17-4.86-10.98-3.19-1.75.76-3.51,1.93-4.61,3.52s-1.47,3.71-1.27,5.64c.38,3.74,3.04,7.22,6.99,7.49.83.06,1.65-.14,2.48-.14.36,0,.75,0,1.05.25.34.27.42.77.69,1.11,1.11,1.38,3.28-.13,4.28-.95,1.58-1.29,2.19-2.99,1.92-5-.38-2.77-.66-5.47-.36-8.26.09-.8-1.16-.79-1.25,0-.21,1.94-.19,3.88.02,5.82.17,1.63.88,3.56.07,5.09-.33.63-.84,1.15-1.41,1.57-.5.37-1.82,1.37-2.39.77-.19-.19-.26-.56-.43-.78-.16-.21-.36-.39-.59-.52-.54-.31-1.21-.36-1.82-.33-1.59.07-2.94.28-4.42-.51s-2.59-2.18-3.15-3.78-.63-3.43-.15-5.07c.52-1.78,1.81-3,3.35-3.95.9-.55,1.86-1.07,2.91-1.24s2.12.09,3.13.46c1.85.66,3.56,1.68,5.08,2.91.62.5,1.51-.38.88-.88h0Z"/>
        <path class="cls-5" d="M109.9,137.41c4.21-3.36,7.46-7.79,9.48-12.78.3-.75-.91-1.07-1.21-.33-1.94,4.79-5.13,9.01-9.16,12.23-.63.5.26,1.38.88.88h0Z"/>
        <path class="cls-5" d="M262.63,144.91c23.36-2.17,46.8-3.51,70.26-3.99,6.61-.14,13.22-.2,19.83-.2.8,0,.81-1.25,0-1.25-23.46,0-46.92.85-70.32,2.55-6.59.48-13.18,1.03-19.76,1.64-.79.07-.8,1.32,0,1.25h0Z"/>
        <path class="cls-5" d="M262.1,144.56l.21,3.24c.02.32.27.65.62.62,23.66-1.52,47.28-2.96,71-3,6.73-.01,13.45.06,20.18.22.8.02.8-1.23,0-1.25-23.67-.55-47.35-.01-70.98,1.48-6.73.43-13.47.87-20.2,1.3l.62.62-.21-3.24c-.05-.8-1.3-.8-1.25,0h0Z"/>
        <path class="cls-5" d="M87.15,281.24c.39-2.3-.24-4.68-1.87-6.38s-4.17-2.68-6.48-2.55c-2.65.15-4.13,1.98-5.26,4.22s-1.23,4.68-.12,6.91c.65,1.29,1.7,2.19,2.79,3.1.57.48,1.14.95,1.49,1.62s.5,1.39.66,2.11c.08.35.45.49.77.44,1.02-.17,1.98-.26,3-.09.95.16,2.09.29,2.91-.32,1.25-.94.97-2.56.94-3.93-.04-1.72.38-3.43,1.11-4.98.34-.72-.74-1.36-1.08-.63-.62,1.3-1.03,2.67-1.2,4.1-.08.66-.09,1.31-.06,1.96.04.74.27,1.9-.41,2.44-.61.49-1.71.15-2.43.05-1.04-.15-2.08,0-3.11.18l.77.44c-.26-1.16-.57-2.35-1.37-3.27-.9-1.04-2.15-1.71-3.02-2.78s-1.34-2.52-1.31-3.92.64-2.71,1.38-3.91,1.55-2.17,3-2.43c1.32-.24,2.72.07,3.93.6,2.62,1.16,4.28,3.79,3.78,6.68-.14.79,1.07,1.12,1.21.33h0Z"/>
        <path class="cls-5" d="M75.86,285.48c1.49-1.29,3.15-2.38,4.92-3.24s3.82-1.74,5.82-1.56c.8.07.8-1.18,0-1.25-2.16-.19-4.36.73-6.28,1.65s-3.72,2.12-5.35,3.52c-.61.53.28,1.41.88.88h0Z"/>
        <path class="cls-5" d="M84.55,289.06c-.75,3.13-3.19,5.51-5.43,7.67s-4.33,4.15-5.89,6.84-2.74,5.62-4.97,7.79c-2.1,2.05-5.02,2.84-7.37,4.52-1.51,1.08-3.91,3.68-2.59,5.7.66,1.01,1.98.94,2.9.36.52-.32.88-.8,1.23-1.29.74-.99,1.37-1.53,2.65-1.65,1.33-.12,2.73-.07,3.76-1.07,1.17-1.14,1.88-2.83,2.87-4.12,2.29-3,5.13-5.21,8.1-7.5,3.22-2.49,5.25-5.72,7.36-9.14,2.46-3.98,4.84-8,7.15-12.06.4-.7-.68-1.33-1.08-.63-1.87,3.29-3.79,6.56-5.76,9.8-1.84,3.02-3.59,6.38-6.05,8.96-2.28,2.39-5.23,4.03-7.61,6.33-1.1,1.07-2.11,2.21-3.05,3.42-.37.48-.73.97-1.08,1.48-.56.82-1.01,1.91-1.74,2.58-1.13,1.04-2.95.5-4.31.94-1.53.5-1.85,2.06-3.08,2.87-.6.39-1.31.09-1.32-.67,0-.32.15-.68.28-.96.27-.6.69-1.12,1.16-1.58.96-.93,2.18-1.56,3.36-2.17,2.32-1.2,4.5-2.35,6.16-4.43s2.8-4.66,4.18-7.01c3.1-5.28,9.86-8.43,11.35-14.65.19-.78-1.02-1.12-1.21-.33h0Z"/>
        <path class="cls-5" d="M87.1,281.36c4.18-5.09,8.9-11.68,7.82-18.65-.52-3.34-2.74-5.92-3.84-9.04-.62-1.75-.54-3.3-.08-5.07s.65-3.27.36-5.03c-.27-1.6-.82-3.14-1.14-4.73-.42-2.11-.23-4.23-.2-6.36.06-3.54-.87-6.37-2.81-9.31s-3.83-5.49-4.28-8.99c-.4-3.13-.05-6.3-.54-9.42-.2-1.27-.56-2.52-1.16-3.66-.96-1.84-2.79-3.18-2.44-5.46.24-1.55.1-3.06-.23-4.58-.18-.82-.41-1.63-.61-2.45-.16-.68-1.04-3.02.29-3.06,1.49-.04,2.54,3.21,2.9,4.22.65,1.84.95,3.73,1.01,5.68.04,1.52.2,2.84,1.08,4.13,1.02,1.48,2.19,2.78,3.03,4.38,1.66,3.14,2.36,6.57,3.34,9.96.47,1.62,1.1,3.15,2.02,4.57,1.04,1.61,2.3,3.06,3.33,4.68,2.08,3.29,3.5,6.99,4.88,10.62s2.57,7.33,3.29,11.14c1.68,8.88.63,17.97-.38,26.86-.23,2.02-.79,4.29-.54,6.33s2.27,3.45.99,5.58c-2.25,3.74-7.61,2.49-11.18,3.64-.76.25-.44,1.45.33,1.21,3.35-1.08,7.26-.22,10.23-2.41,1.06-.78,1.98-1.89,2.27-3.2.4-1.83-.87-2.84-1.31-4.48-.27-.97-.06-2.05.05-3.03.12-1.13.25-2.26.38-3.38.24-2.1.48-4.2.69-6.3.41-4.18.7-8.39.57-12.59-.24-8.28-2.58-15.98-5.73-23.57-1.48-3.57-3.2-6.82-5.51-9.92-1.21-1.63-2.27-3.27-2.9-5.21-.59-1.79-.96-3.65-1.5-5.46-1.03-3.46-2.52-6.52-4.76-9.36-.63-.8-1.16-1.58-1.32-2.6s-.08-2.02-.17-3.03c-.16-1.76-.55-3.49-1.2-5.13s-2.62-5.93-5.07-4.31c-1.11.73-.74,2.31-.52,3.39.38,1.94,1.11,3.82,1.17,5.81.03.89-.24,1.73-.26,2.61-.01.82.35,1.64.71,2.35.83,1.62,2.1,2.8,2.64,4.59.99,3.27.52,6.77.82,10.13s1.57,6.03,3.44,8.78c.97,1.43,2,2.85,2.73,4.44.89,1.94,1.04,3.98.99,6.08-.04,1.94-.18,3.88.13,5.81s1.05,3.78,1.3,5.72c.27,2.04-.51,3.8-.79,5.77-.22,1.55.09,3.07.67,4.51,1.36,3.39,3.71,6.22,3.74,10.03.03,4.02-1.86,7.69-3.99,10.99-1.11,1.71-2.32,3.35-3.62,4.92-.51.62.37,1.51.88.88h0Z"/>
        <path class="cls-5" d="M90.45,245.81c1.85,1.87,4.09,3.95,6.77,4.46,2.82.54,5.24-.93,7.01-3.02.52-.61-.36-1.5-.88-.88-1.58,1.86-3.7,3.26-6.23,2.59-2.27-.6-4.17-2.41-5.78-4.04-.57-.57-1.45.31-.88.88h0Z"/>
        <path class="cls-5" d="M96.53,287.41c1.71-5.27-.17-10.76-3.24-15.12-.46-.65-1.54-.03-1.08.63,2.89,4.1,4.72,9.18,3.11,14.16-.25.77.96,1.1,1.21.33h0Z"/>
        <path class="cls-5" d="M23.21,420.45c-1.53-2.91-.78-5.59,1.12-8.1,1.42-1.87,2.31-3.48,2.6-5.84.14-1.2.22-2.4.53-3.57.35-1.31.9-2.54,1.45-3.78.95-2.13,1.8-4.23,1.99-6.58.42-5.14-1.79-10.17-1.02-15.31.7-4.68,3.58-9.12,2.42-13.99-.25-1.06-.77-1.92-1.25-2.87-.85-1.67.41-2.64,1.16-4.01,1.04-1.9,1.53-4.1,1.39-6.26-.03-.51-.27-1.25.23-1.52s.99.41,1.28.8c.68.94.92,2.14.92,3.28,0,2.57-1.22,4.98-1.5,7.52s.14,4.97.61,7.4c.54,2.82,1.01,5.57.96,8.44s-.35,5.67-.2,8.51c.14,2.58.57,5.14,1.03,7.68.54,2.99,1.12,5.97,1.3,9.01.16,2.74.06,5.48-.23,8.21-.6,5.63-2.01,11.22-4.24,16.42-.31.73.76,1.37,1.08.63,4.1-9.58,5.7-20.31,4-30.62-.49-2.99-1.14-5.95-1.49-8.96s-.2-6.09-.06-9.16-.05-5.78-.6-8.67-1.27-5.89-.91-8.88c.46-3.84,3.54-9.74-.76-12.65-1.68-1.13-2.78.16-2.72,1.88.1,2.94-.37,5.24-2.06,7.7-.56.82-.98,1.66-.75,2.68.29,1.28,1.22,2.31,1.56,3.59.72,2.69-.07,5.5-.89,8.07s-1.68,5.22-1.68,8.02c0,2.63.54,5.22.9,7.81.46,3.25.45,6.33-.78,9.41-1.08,2.7-2.4,5.16-2.75,8.09-.2,1.68-.27,3.38-1.15,4.87-.72,1.23-1.75,2.24-2.46,3.47-1.48,2.58-1.5,5.28-.13,7.91.37.71,1.45.08,1.08-.63h0Z"/>
        <path class="cls-5" d="M25.28,410.24c1.04.95,1.87,2.08,2.86,3.07.89.89,1.9,1.57,3.08,2.01,2.18.81,4.87.86,6.94-.29.7-.39.07-1.47-.63-1.08-1.83,1.02-4.24.86-6.14.1-2.27-.9-3.5-3.12-5.24-4.7-.59-.54-1.48.34-.88.88h0Z"/>
        <path class="cls-5" d="M8.37,431.83c1.01-1.54.63-3.4-.06-4.98-.52-1.18-1.07-2.31-1.2-3.62s0-3.42,1.86-2.75,2.19,3.41,3.8,4.55c1.08.77,2.86.81,3.51-.55.83-1.7-.84-3.91-1.61-5.32-1.08-1.97-2.31-5.42-.59-7.39.89-1.02,2.34-1.28,3.31-.22.76.84,1.07,2.06,1.47,3.09.71,1.84,1.51,3.65,2.55,5.33,2.26,3.64,5.56,5.93,9.76,6.8,3.49.72,7.45.22,8.91-3.5,1.32-3.36.57-10.36,6.19-9.16,1.3.28,2.44.99,2.44,2.45,0,1.2-.64,2.27-1.29,3.23-1.08,1.62-2.2,3.2-2.01,5.25.14,1.49,1.05,4.19,2.98,4.06.87-.06,1.35-.8,1.84-1.43.88-1.14,1.71-2.36,2.69-3.42.44-.47,1.14-1.27,1.84-1.32.91-.07,1.19.86,1.04,1.56-.26,1.2-1.44,2.19-2.03,3.23-1.2,2.12-1.64,4.56-1.33,6.97l.62-.62c-15.08-1.09-30.16-2.23-45.24-3.21-.8-.05-.8,1.2,0,1.25,15.09.97,30.16,2.12,45.24,3.21.31.02.67-.31.62-.62-.34-2.57.22-5.09,1.72-7.22.97-1.39,2.34-2.96,1.35-4.73-.88-1.58-2.62-1.15-3.82-.22-.79.61-1.39,1.4-1.99,2.18-.4.52-.8,1.04-1.2,1.56-.2.26-.4.52-.6.78-.17.5-.48.66-.95.47-.46.11-.76-.06-.91-.51-1.54-2.58.03-4.76,1.42-6.9.92-1.43,1.7-3.36.96-5.03s-2.89-2.36-4.63-2.37c-1.87,0-3.33,1.04-4.19,2.66-1.98,3.69-.47,9.94-6.14,10.44-4.87.43-9.58-2.27-12.13-6.31-1.21-1.91-2.06-3.99-2.86-6.09-.59-1.55-1.35-3.36-3.15-3.77s-3.43.84-4.1,2.38c-.85,1.97-.38,4.37.4,6.29.48,1.18,1.2,2.22,1.75,3.35.33.69,1.13,2.72-.35,2.68-.83-.03-1.44-.93-1.83-1.55-1.03-1.62-1.89-3.67-4.13-3.72s-2.64,2.34-2.47,4.14c.12,1.3.56,2.45,1.08,3.62.61,1.37,1.26,2.95.35,4.34-.44.68.64,1.3,1.08.63h0Z"/>
        <polygon class="cls-2" points="7.74 431.42 8.42 428.94 7.38 425.84 6.64 423.17 6.78 420.24 8.55 419.52 10.59 420.73 13.18 424.85 15.81 424.47 15.68 421.99 13.45 417.39 12.75 414 14.27 410.43 17.18 410.43 19.25 413.43 21.43 419.01 24.72 423.21 30.61 426.29 36.57 426.28 39.34 423.84 40.8 417.81 42.88 413.67 46.67 413.46 49.22 415.22 49.3 417.76 47.39 421.16 46.14 424.18 46.84 427.91 49.01 428.39 52.01 424.61 54.98 422.12 56.67 424.16 54.16 428.73 53.12 431.8 52.92 434.85 43.49 434.15 31.16 433.08 17.97 432.29 7.74 431.42"/>
        <path class="cls-5" d="M50.52,411.72c.09-.64.31-1.27.6-1.85.15-.3.31-.59.5-.86.15-.21.33-.45.58-.53s.48.04.62.23c.17.24.18.56.12.83-.13.56-.49,1.05-.96,1.37-.5.34-1.13.53-1.73.44-.2-.03-.4.05-.46.26-.05.18.06.43.26.46,1.53.22,3.14-.69,3.58-2.21.13-.45.14-.96-.07-1.39-.18-.37-.53-.67-.93-.76-.89-.19-1.5.62-1.89,1.29-.49.82-.83,1.75-.96,2.7-.03.2.19.38.38.38.23,0,.35-.17.38-.38h0Z"/>
        <path class="cls-5" d="M51.05,411.28c.48,0,.48-.75,0-.75s-.48.75,0,.75h0Z"/>
        <path class="cls-5" d="M51.43,411c.16-.72.47-1.4.93-1.98l-.63-.36c-.31.96-.83,1.83-1.52,2.56-.12.12-.14.31-.06.45.08.13.27.23.42.17,1.31-.5,2.23-1.69,2.38-3.08h-.75c0,.51-.06,1.02-.15,1.52-.03.18.04.37.22.44.17.07.37.01.47-.15.45-.76.35-1.72-.2-2.4-.13-.16-.4-.13-.53,0-.16.16-.13.37,0,.53.33.41.35,1.04.08,1.49l.69.29c.11-.57.17-1.14.18-1.72,0-.2-.17-.38-.38-.38-.22,0-.35.17-.38.38-.11,1.01-.87,1.99-1.83,2.36l.36.63c.78-.82,1.37-1.81,1.72-2.89.11-.34-.39-.66-.63-.36-.54.68-.94,1.46-1.13,2.31-.04.2.06.41.26.46.19.05.42-.06.46-.26h0Z"/>
        <path class="cls-5" d="M47.12,407.29c-.23-.68-.36-1.39-.38-2.11,0-.36.01-.71.08-1.06.06-.3.19-.58.3-.84,0,.02-.06-.02-.06,0,.02.05.08.1.11.15.07.14.08.29.1.44.04.39.04.8-.01,1.19-.1.77-.39,1.51-.83,2.16-.27.4.38.78.65.38.42-.63.72-1.36.86-2.1.07-.39.11-.78.1-1.17,0-.35-.02-.74-.14-1.07s-.33-.62-.68-.7c-.4-.09-.71.21-.86.55-.29.63-.39,1.33-.38,2.02,0,.81.15,1.62.41,2.38.15.46.88.26.72-.2h0Z"/>
        <path class="cls-5" d="M46.56,403.65c-.17.97-.25,1.95-.22,2.93.01.48.75.48.75,0,0-1.12.09-2.23.29-3.33.09-.47-.58-.67-.72-.2-.23.77,0,1.52.1,2.3.07.52.06,1.13-.35,1.51-.35.33.18.86.53.53.5-.47.63-1.18.58-1.85-.06-.76-.37-1.53-.14-2.29l-.72-.2c-.21,1.17-.32,2.35-.31,3.53h.75c-.02-.91.04-1.83.19-2.73.03-.2-.05-.4-.26-.46-.18-.05-.43.06-.46.26h0Z"/>
        <path class="cls-5" d="M55.74,403.85c-.21-.38-.35-.83-.42-1.28-.03-.2-.04-.44-.02-.65.01-.16.07-.38.14-.51.09-.15.26-.36.43-.37.16,0,.26.17.31.33.14.42.12.85-.03,1.27-.16.46-.49.85-.93,1.08s-.05.88.38.65c1.09-.58,1.73-2.03,1.29-3.22-.12-.33-.32-.63-.64-.78-.38-.16-.77-.04-1.08.21-.5.4-.66,1.05-.63,1.66.02.69.21,1.39.55,1.99.24.42.88.04.65-.38h0Z"/>
        <path class="cls-5" d="M55.05,401.25l-.19,1.77c-.02.18.16.35.33.37s.37-.09.41-.27c.11-.52.23-1.05.34-1.57l-.74-.1c0,.69,0,1.38-.01,2.06,0,.19.14.34.33.37.19.03.35-.09.41-.27.24-.67.36-1.38.35-2.1l-.64.27s0-.01,0,0c.01.02.02.04.03.06-.02-.03,0-.02,0,0s.01.06.02.09c.01.05,0-.05,0,0,0,.02,0,.05,0,.07,0,0-.01.08,0,.04,0-.05-.02.05-.02.05l.74.1c0-.31,0-.61,0-.92,0-.16-.12-.33-.28-.36s-.35.02-.42.17c-.17.39-.26.81-.21,1.23.03.19.15.38.38.38.18,0,.4-.17.38-.38-.01-.08-.02-.16-.02-.24,0-.04,0-.08,0-.12,0-.03,0-.05,0-.08,0-.04,0-.05,0-.03,0,.02,0,.01,0-.03,0-.02,0-.04.01-.06,0-.04.02-.08.03-.12s.02-.08.04-.11c0-.02.01-.04.02-.06-.01.03-.01.02,0-.02l-.7-.19c0,.31,0,.61,0,.92,0,.43.62.51.74.1.11-.38,0-.75-.23-1.06-.09-.12-.29-.13-.41-.08-.13.06-.23.19-.23.34,0,.17,0,.34-.02.51s-.03.28-.05.43c-.06.33-.14.65-.25.96l.74.1c0-.69,0-1.38.01-2.06,0-.19-.14-.34-.33-.37s-.37.09-.41.27c-.11.52-.23,1.05-.34,1.57l.74.1.19-1.77c.02-.2-.19-.38-.38-.38-.22,0-.35.17-.38.38h0Z"/>
        <path class="cls-5" d="M55.35,403.22l.07.44c.02.14.18.25.31.27.15.02.3-.05.37-.18.45-.75.67-1.63.63-2.5,0-.2-.17-.38-.38-.38-.19,0-.39.17-.38.38s0,.4-.01.6c-.01.11-.01.11-.03.22-.02.09-.04.18-.06.28-.05.18-.1.36-.17.54-.02.04-.02.05,0,.02-.01.02-.02.05-.03.07-.02.04-.03.07-.05.11-.05.1-.1.19-.16.28l.69.09-.07-.44c-.03-.19-.28-.32-.46-.26-.21.07-.3.25-.26.46h0Z"/>
        <path class="cls-5" d="M46.91,404.22s.01.03,0-.02c0,.01.01.03.02.04,0,.03.02.05.03.08.02.06.03.11.04.17,0,.02,0,.05.01.07-.03-.11,0-.01,0,.02,0,.06,0,.11,0,.17,0,.05-.02.12-.01.17,0-.06,0-.07,0-.03,0,.02,0,.03,0,.05,0,.02,0,.05-.02.07-.01.05-.03.11-.05.16,0,.01-.01.03-.02.04-.02.04-.01.03.01-.02-.01,0-.03.07-.04.09-.09.17-.05.41.13.51.17.09.42.05.51-.13.14-.28.22-.58.23-.9s-.07-.62-.2-.91c-.04-.08-.14-.15-.22-.17-.09-.02-.21-.01-.29.04-.18.12-.22.32-.13.51h0Z"/>
        <path class="cls-5" d="M17.99,408.19c-1.1-.54-1.92-1.64-2.04-2.87-.03-.37-.02-1.2.56-1.11.69.11.76,1.05.8,1.58.08.91.03,1.82.11,2.72.02.2.16.38.38.38.19,0,.39-.17.38-.38-.09-.97-.03-1.95-.13-2.92-.09-.85-.34-1.83-1.27-2.09-.86-.24-1.46.47-1.56,1.26s.14,1.57.49,2.23c.42.79,1.1,1.45,1.91,1.85.43.21.81-.44.38-.65h0Z"/>
        <path class="cls-5" d="M15.89,404.84c-.1.74-.04,1.49.25,2.18.07.17.21.3.41.27.17-.02.35-.18.33-.37-.04-.35-.08-.7-.12-1.05-.02-.19-.16-.38-.38-.38-.18,0-.4.17-.38.38.04.35.08.7.12,1.05l.74-.1c-.06-.15-.12-.31-.16-.47-.02-.08-.04-.16-.06-.24,0-.03-.01-.07-.02-.1,0-.01-.02-.13-.01-.09s0-.08,0-.09c0-.04,0-.07,0-.11,0-.08,0-.17,0-.25s0-.17,0-.25c0-.04,0-.07,0-.11,0-.01.02-.16,0-.08.03-.19-.05-.41-.26-.46-.18-.04-.43.05-.46.26h0Z"/>
        <path class="cls-5" d="M15.81,404.94l.2,1.78c.02.2.16.38.38.38.19,0,.39-.17.38-.38l-.14-2.38-.28.36s.05-.02.01-.01c.05,0,.05,0,0,0-.03-.02-.03-.02,0,0-.03-.02-.02-.02.01,0,.06.05.09.11.13.2.09.2.12.5.15.74.09.67.18,1.34.27,2.01.02.18.25.29.41.27.18-.03.33-.18.33-.37-.03-.57-.25-1.1-.64-1.51-.25-.27-.73.01-.63.36.14.48.29.95.43,1.43s.86.26.72-.2-.29-.95-.43-1.43l-.63.36c.25.27.4.62.42.98l.74-.1c-.11-.8-.2-1.6-.33-2.39-.09-.56-.51-1.29-1.18-1.08-.15.05-.28.19-.28.36l.14,2.38h.75l-.2-1.78c-.02-.2-.16-.38-.38-.38-.19,0-.4.17-.38.38h0Z"/>
        <path class="cls-5" d="M11.06,409.26c-.64.06-1.28-.06-1.88-.29-.55-.22-1.11-.58-1.43-1.09-.28-.44-.41-1.15-.07-1.6.17-.22.45-.27.73-.18.37.13.61.46.8.79.26.45.48.92.72,1.38.27.52.53,1.04.8,1.55.22.43.87.05.65-.38-.27-.53-.54-1.06-.81-1.59-.25-.49-.48-.99-.77-1.46-.26-.42-.6-.79-1.07-.98-.44-.18-.96-.16-1.35.13-.67.49-.77,1.49-.5,2.23s.89,1.32,1.59,1.68c.78.41,1.71.63,2.59.55.2-.02.38-.16.38-.38,0-.19-.17-.39-.38-.38h0Z"/>
        <path class="cls-5" d="M7.21,406.8c.16.55.39,1.09.67,1.59.1.18.34.24.51.13.19-.11.21-.33.13-.51l-.59-1.39c-.07-.17-.32-.22-.47-.15-.17.07-.27.26-.22.44.15.55.45,1.05.86,1.45.25.24.76,0,.63-.36l-.65-1.82-.63.36c.58.6,1.03,1.32,1.29,2.11l.69-.29c-.45-.6-.75-1.29-.87-2.03l-.63.36c.75.64,1.35,1.43,1.76,2.33l.65-.38-1.61-2.68-.59.45c.23.27.42.56.58.86.08.15.15.3.21.45.03.08.06.16.09.24.01.03.02.07.03.1,0,0,.02.12.02.06,0,.03,0,.07,0,.1,0,.03,0,.03,0,0v.04c.02-.06.04-.07.11-.08-.09,0,.08.01-.02,0-.06-.01.02.02-.01,0-.05-.03-.1-.06-.15-.09-.26-.17-.53-.32-.85-.23-.28.08-.36.42-.17.63.65.69,1.59,1.09,2.55,1.07.48,0,.48-.76,0-.75-.76.01-1.49-.29-2.02-.85l-.17.63s.04-.01,0,0h.03s-.05,0,0,0c.03.01.04.01.02,0-.04-.02.05.03.06.03.04.02.07.04.1.07.13.09.26.17.41.22.46.14.85-.24.86-.69,0-.42-.22-.86-.4-1.22-.2-.4-.46-.77-.75-1.11s-.8.09-.59.45l1.61,2.68c.1.17.34.24.51.13.19-.11.22-.33.13-.51-.44-.95-1.09-1.81-1.88-2.49-.3-.25-.69,0-.63.36.13.8.46,1.57.94,2.21.11.15.28.23.47.15.16-.07.28-.26.22-.44-.31-.92-.81-1.75-1.49-2.44-.25-.26-.76,0-.63.36l.65,1.82.63-.36c-.32-.31-.55-.68-.67-1.11l-.69.29.59,1.39.65-.38c-.25-.45-.45-.92-.59-1.41-.14-.46-.86-.27-.72.2h0Z"/>
        <path class="cls-5" d="M10.19,400.73c-.96-.02-1.85-.82-1.99-1.77-.06-.4.03-1.12.57-1.13.23,0,.35.24.44.43.13.26.22.53.3.81.18.67.24,1.35.3,2.03.02.2.16.38.38.38.19,0,.39-.17.38-.38-.07-.77-.14-1.55-.34-2.29-.19-.69-.52-1.66-1.35-1.73-.87-.08-1.38.75-1.43,1.51-.04.7.25,1.39.71,1.92.51.59,1.26.95,2.04.97.48.01.48-.74,0-.75h0Z"/>
        <path class="cls-5" d="M7.98,398.46c-.13.43,0,.89.29,1.22.12.14.35.14.49.03.15-.12.18-.31.1-.48-.23-.46-.31-.96-.27-1.48l-.7.19c.35.48.58,1.05.63,1.62l.74-.1c-.08-.53-.17-1.06-.25-1.59l-.69.29c.49.72.83,1.5,1.03,2.35l.46-.46c-.17-.03-.24-.05-.37-.15.05.03-.04-.04-.04-.04-.03-.03-.06-.05-.08-.08.03.04-.01-.02-.02-.03-.02-.04-.05-.08-.07-.12l-.32.56s.07,0,.11,0c-.05,0,0,0,.03,0,.03,0,.06.02.09.03-.06-.02.04.03.05.03,0,0,.08.06.05.04s.04.04.05.05c.06.06,0-.03.03.04.02.03.04.07.05.1.09.18.35.23.51.13.19-.11.22-.33.13-.51-.19-.41-.66-.68-1.11-.66-.29.02-.45.3-.32.56.2.4.6.7,1.03.77.28.05.53-.16.46-.46-.21-.9-.59-1.76-1.11-2.53-.1-.15-.29-.23-.47-.15s-.25.25-.22.44c.08.53.17,1.06.25,1.59.03.18.25.29.41.27s.34-.18.33-.37c-.06-.72-.3-1.41-.73-2-.22-.3-.67-.2-.7.19-.05.64.09,1.28.37,1.86l.59-.45c-.05-.06-.09-.14-.12-.24-.02-.09-.02-.14.02-.26.06-.19-.07-.41-.26-.46s-.4.07-.46.26h0Z"/>
        <path class="cls-5" d="M5.75,417.71c-1.02.11-2-.62-2.06-1.67-.01-.27.02-.52.11-.77.04-.12.1-.23.17-.33.02-.03.05-.09.08-.11.02,0,0,0,0,0,.08,0,.18.14.22.19.09.11.15.24.21.36.14.27.25.54.34.82.22.65.38,1.32.56,1.98.13.47.85.27.72-.2-.2-.72-.37-1.45-.62-2.15-.22-.61-.56-1.59-1.29-1.74-.84-.17-1.19.98-1.25,1.61-.07.71.18,1.43.67,1.95.54.57,1.35.89,2.13.8.2-.02.38-.16.38-.38,0-.19-.17-.4-.38-.38h0Z"/>
        <path class="cls-5" d="M3.49,415.17c.13.62.31,1.22.51,1.82.06.18.22.29.41.27.18-.02.33-.18.33-.37,0-.26-.1-.49-.27-.68-.13-.15-.4-.14-.53,0-.15.16-.14.37,0,.53.05.06-.02-.05.01.02.01.02.02.03.03.05-.02-.04-.02-.05,0-.02,0,.03.01.06.02.08,0,.03,0,.02,0-.03,0,.02,0,.04,0,.06l.74-.1c-.21-.59-.38-1.2-.51-1.82-.04-.19-.28-.32-.46-.26-.2.07-.31.26-.26.46h0Z"/>
        <path class="cls-5" d="M3.53,415.32c.11.67.33,1.31.62,1.92.08.17.31.22.47.15.18-.08.25-.25.22-.44-.04-.25-.08-.49-.12-.74-.03-.19-.28-.32-.46-.26-.21.07-.29.25-.26.46.04.25.08.49.12.74l.69-.29c-.03-.07-.07-.14-.1-.21,0-.01-.06-.14-.03-.07-.01-.03-.03-.06-.04-.09-.06-.15-.11-.3-.16-.45-.1-.3-.17-.61-.22-.92-.03-.19-.28-.32-.46-.26-.21.07-.3.25-.26.46h0Z"/>
        <path class="cls-5" d="M3.6,415.39l.95,1.83c.2.38.8.12.69-.29-.1-.36-.2-.71-.29-1.07l-.72.2c.24.58.48,1.16.72,1.74.08.19.25.32.46.26.18-.05.34-.27.26-.46-.24-.58-.48-1.16-.72-1.74-.08-.19-.25-.32-.46-.26-.2.05-.32.27-.26.46.1.36.2.71.29,1.07l.69-.29-.95-1.83c-.09-.18-.34-.23-.51-.13-.18.11-.23.33-.13.51h0Z"/>
        <path class="cls-5" d="M5.09,417.3l-.95-2.15-.59.45c.36.35.73.7,1.09,1.05.14.14.39.15.53,0s.15-.39,0-.53c-.36-.35-.73-.7-1.09-1.05-.14-.13-.34-.14-.49-.03-.16.12-.17.31-.1.48l.95,2.15c.08.18.36.24.51.13.19-.12.22-.32.13-.51h0Z"/>
        <path class="cls-5" d="M2.47,409.17c-.42.07-.81-.27-1.05-.59-.32-.43-.61-1.02-.67-1.56-.02-.24.01-.5.18-.68.13-.14.31-.17.45-.11.43.17.7.74.79,1.16.16.7,0,1.44.02,2.14.02.48.77.48.75,0-.03-.8.14-1.61-.06-2.4-.17-.66-.63-1.39-1.3-1.62-.76-.26-1.46.36-1.57,1.09-.07.44.04.88.2,1.29.13.33.28.66.48.96.46.68,1.12,1.19,1.98,1.05.2-.03.31-.28.26-.46-.06-.21-.26-.29-.46-.26h0Z"/>
        <path class="cls-5" d="M.67,406.99l.74,1.88c.07.18.25.33.46.26.18-.06.34-.27.26-.46l-.74-1.88c-.07-.18-.25-.33-.46-.26-.18.06-.34.27-.26.46h0Z"/>
        <path class="cls-5" d="M.77,406.99s.03.03.04.05c-.03-.04-.03-.04,0,0,.02.03.05.06.07.1.05.07.09.13.14.2.08.13.16.27.24.4.04.07.07.13.1.2.02.04.03.07.05.11,0,.02.06.13.02.05.07.14.12.3.16.45.06.19.26.33.46.26s.32-.26.26-.46c-.22-.69-.56-1.33-1.01-1.89-.12-.15-.4-.14-.53,0-.15.16-.13.37,0,.53h0Z"/>
        <path class="cls-5" d="M.86,406.46c.25.56.6,1.06.94,1.57.09.13.16.3.28.41.16.15.42.24.6.05.21-.24.06-.48-.08-.69-.11-.16-.34-.25-.51-.13-.16.11-.25.34-.13.51.02.04.05.07.07.11.01.02.02.04.04.06,0,0,.02.03.02.03-.01.01-.04-.17-.04-.15l.11-.27h0c.09-.03.18-.07.27-.11l.17.05.05.04s-.05-.04-.02-.01c.03.03,0-.02-.02-.03-.01-.02-.02-.04-.04-.06-.05-.08-.1-.16-.16-.24-.11-.17-.22-.33-.33-.5-.21-.33-.41-.66-.57-1.02-.08-.18-.36-.24-.51-.13-.19.12-.22.32-.13.51h0Z"/>
        <path class="cls-5" d="M1.32,407.09c.18.34.32.66.45.99.13.36.25.72.34,1.09.05.19.27.32.46.26.2-.06.31-.26.26-.46-.19-.78-.48-1.54-.86-2.26-.09-.17-.35-.24-.51-.13-.18.11-.23.33-.13.51h0Z"/>
        <path class="cls-5" d="M58.92,420.32c.1-.24.16-.4.27-.63s.23-.46.38-.67c.06-.08.1-.14.18-.23.04-.05.09-.09.14-.14,0,0,.05-.05.01-.01.03-.02.06-.04.09-.06.04-.03.08-.05.13-.07-.05.03,0,0,.01,0,.03-.01.06-.02.09-.03s.06-.02.09-.02c-.02,0-.06,0,.02,0,.06,0,.13,0,.19,0-.05,0,.07.01.09.02.06.02.13.03.19.06-.05-.02.08.04.09.05.02.01.04.03.07.04,0,0,.1.07.05.03.04.03.09.07.12.11.02.02.04.04.06.07-.01-.01-.03-.05,0,.01,0,.01.07.13.04.07.01.03.02.06.03.08,0,.01.02.11.02.07,0-.05-.01.15,0,.07,0,.05-.02.1-.04.15.02-.05-.04.07-.05.09,0,.01-.06.07-.01.02-.02.02-.04.04-.06.06s-.04.04-.07.06c.01-.01.05-.04,0,0-.04.03-.08.05-.13.08-.03.01-.06.03-.08.04-.06.03.08-.03-.03.01-.06.02-.12.04-.19.06-.27.08-.45.09-.73.1-.4.02-.8.02-1.2.03-.48.01-.48.76,0,.75.7-.02,1.45.03,2.13-.16.61-.17,1.17-.59,1.21-1.27s-.51-1.18-1.1-1.38c-.63-.21-1.27,0-1.71.47-.49.52-.76,1.21-1.02,1.86-.07.19.08.41.26.46.21.06.39-.07.46-.26h0Z"/>
        <path class="cls-5" d="M59.24,420.49l1.52-1.25c.11-.09.13-.28.08-.41s-.2-.25-.34-.23c-.63.08-1.2.32-1.69.73-.14.12-.13.36-.03.49.12.16.31.17.48.1.52-.23.95-.6,1.29-1.05.08-.1.06-.27,0-.38-.07-.12-.19-.17-.32-.19-.46-.04-.89.39-.87.85,0,.15.11.34.28.36.4.06.8.04,1.18-.12l-.36-.63c-.28.24-.55.49-.83.73-.15.13-.14.4,0,.53.16.15.37.13.53,0-.06.05,0,0,.01,0,.04-.02.06-.02,0,0,.05-.01.1-.03.15-.04.11-.02.22-.03.33-.05.27-.05.51-.19.67-.41s.19-.53.04-.76c-.04-.06-.08-.11-.13-.15-.02-.02-.04-.04-.06-.05,0,0-.06-.06-.03-.02.02.02.02.02,0,0-.01-.02,0-.01.01.03l-.03.23c-.11.1-.14.13-.1.1.04-.02-.09.03-.04.02h-.07c-.21,0-.3-.17-.27-.48h.65c-.25-.32-.6-.47-1-.4-.19.03-.32.28-.26.46.07.21.25.3.46.26-.08.01.02,0,.05,0-.03,0-.06-.01-.01,0,.02,0,.05.01.07.02.04.01-.04-.03,0,0,.01.01.03.02.05.03.04.02-.03-.04,0,0,.01.01.06.07.01,0,.08.11.18.19.32.19.13,0,.26-.07.32-.19.12-.21.06-.45-.15-.58-.15-.09-.36-.07-.51.02-.19.11-.27.33-.21.54.05.16.17.27.29.38.06.06-.04-.06,0,.01-.01-.02-.02-.13-.03-.07.01-.06.01-.07,0-.03.02-.04.03-.05.01-.03-.02.02-.08.09-.01.03-.02.02-.04.04-.06.06.06-.06,0,0-.02,0-.02,0-.03.02-.05.03.04-.02.05-.02.02-.01-.03,0-.07.02-.1.03-.13.03-.27.04-.41.07-.18.04-.33.12-.47.23l.53.53c.28-.24.55-.49.83-.73.12-.11.14-.32.06-.45s-.27-.24-.42-.17c-.07.03-.14.05-.21.07-.04.01-.07.02-.11.03-.02,0-.05,0-.07.01-.04,0-.05,0-.02,0,.03,0-.07,0-.08,0-.04,0-.07,0-.11,0s-.07,0-.11,0c-.02,0-.04,0-.06,0,.04,0,.03,0-.01,0l.28.36s0-.03,0-.04c0-.03,0-.02,0,.03,0,0,.01-.05.02-.05-.02.08,0,.01.02-.01-.02.04-.02.03,0,0,.02-.03-.06.03,0,0,.01,0,.08-.03.03-.02-.03.01-.02.01,0,0h-.04s.06,0,.09,0l-.32-.56c-.07.09.05-.05-.02.03-.02.02-.04.04-.05.06-.04.05-.08.09-.12.13-.08.08-.17.16-.26.23-.05.04.07-.05-.02.01-.02.02-.05.03-.07.05-.05.03-.1.07-.15.1-.1.06-.21.12-.33.17l.45.59s.05-.04.08-.06c-.04.03,0,0,.02-.01.05-.04.1-.07.16-.1.1-.06.21-.12.32-.17.06-.03-.08.03.02,0,.03,0,.05-.02.08-.03.06-.02.12-.04.18-.06.05-.02.11-.03.17-.04.03,0,.07-.01.1-.02.08-.02-.05,0,.04,0l-.27-.64-1.52,1.25c-.15.13-.14.4,0,.53.16.15.37.13.53,0h0Z"/>
        <path class="cls-5" d="M59.39,412.06c-.02-.33,0-.58.08-.87s.16-.5.33-.77c.29-.46.75-.8,1.28-.95l-.46-.26c.05.18.06.23.06.4,0,.08,0,.16,0,.23,0,0-.01.12,0,.05,0,.04-.01.08-.02.11-.07.32-.16.53-.34.81-.14.21-.37.44-.58.58-.06.04-.13.08-.2.12-.03.01-.06.03-.09.04-.02,0-.04.02-.05.02.02-.01.02-.01,0,0-.15.06-.31.1-.47.12l.42.55c.43-.58.86-1.15,1.3-1.73l-.65-.38c-.23.38-.46.76-.69,1.14l.65.38c.24-.51.58-.93,1.02-1.28.16-.13.13-.4,0-.53-.16-.16-.37-.13-.53,0-.48.38-.88.88-1.14,1.43-.09.18-.05.4.13.51s.41.04.51-.13c.23-.38.46-.76.69-1.14.1-.17.04-.41-.13-.51-.19-.11-.39-.03-.51.13-.43.58-.86,1.15-1.3,1.73-.09.12-.05.31.03.42.1.13.24.16.39.13,1.54-.21,2.62-1.93,2.22-3.42-.05-.19-.27-.32-.46-.26-1.46.42-2.31,1.84-2.24,3.32.01.2.16.38.38.38.2,0,.39-.17.38-.38h0Z"/>
        <path class="cls-5" d="M60.57,410.47l.25-.58.04-.09v-.1s0-.07,0-.1c-.01-.05-.03-.09-.07-.13-.02-.03-.04-.05-.07-.07-.02-.02-.05-.04-.08-.05-.03-.02-.06-.03-.09-.03-.05-.01-.1,0-.15,0-.02,0-.04,0-.05.01-.04.02-.09.03-.13.06-.06.03-.11.07-.15.12-.06.07-.09.12-.13.2s-.05.15-.05.24.05.2.11.27.17.11.27.11.2-.04.27-.11l.06-.08c.03-.06.05-.12.05-.19,0,0,0-.02,0-.02v.1s0-.05,0-.07l-.04.09s.02-.04.04-.06l-.06.08s.04-.04.06-.06l-.08.06s.04-.03.06-.04l-.09.04s.04-.01.06-.02l-.42-.55-.25.58s-.04.09-.04.14c-.01.05,0,.1,0,.15.02.09.09.18.17.22.09.05.19.07.29.04l.09-.04c.06-.03.1-.08.13-.13h0Z"/>
        <path class="cls-5" d="M51.86,410.2c-.13.14-.22.3-.27.48s.04.37.22.44.37,0,.47-.15c.29-.48.44-1.02.46-1.58,0-.2-.18-.38-.38-.38-.21,0-.37.16-.38.38,0,.06,0,.12-.01.18,0,.02-.01.06,0,.08,0-.06,0-.07,0-.03,0,.02,0,.03,0,.05-.02.11-.05.22-.08.33-.02.05-.03.11-.05.16-.01.03-.02.06-.03.09-.03.07.03-.07,0,0-.05.11-.11.22-.17.32l.69.29s.03-.08.03-.09l-.02.05s.01-.03.02-.04c.01-.02.02-.04.04-.06.02-.03.02-.03-.02.02,0-.01.02-.02.03-.03.13-.14.15-.39,0-.53-.14-.13-.39-.15-.53,0h0Z"/>
        <path class="cls-5" d="M60.32,410.16c0,.06,0,.08,0,.04,0,.04,0,.07-.03.11.02-.03.01-.03-.02.02-.03.03-.06.04-.09.05l-.42-.55c-.2.29-.36.63-.46.97-.05.19.07.42.26.46s.4-.06.46-.26c.05-.16.1-.33.14-.49.07-.26-.19-.57-.46-.46-.33.13-.52.4-.58.74-.02.16-.02.31-.03.47,0,.04,0,.08,0,.12,0,.02,0,.04,0,.06,0-.05,0-.06,0-.01,0,.04-.02.07-.03.11-.01.04-.01.04,0-.01,0,.02-.02.03-.03.05-.1.17-.04.42.13.51s.41.05.51-.13c.17-.29.15-.6.16-.92,0-.02,0-.05,0-.07,0-.04,0-.03,0,.03,0-.02,0-.03,0-.05,0-.02,0-.05.02-.07,0-.02.03-.07.03-.09-.02.05-.03.06-.01.04,0-.01,0-.02.02-.03,0-.01.01-.03.02-.04.02-.03.02-.02-.02.02,0,0,.04-.04.05-.04-.05.04-.06.04-.02.02.04-.02.03-.01-.03.01l-.46-.46c-.05.16-.1.33-.14.49l.72.2c.02-.08.05-.16.08-.23,0-.02.05-.14.02-.05.01-.03.03-.07.04-.1.07-.14.15-.28.24-.41.08-.12.06-.31-.03-.42s-.26-.19-.39-.13-.26.13-.34.27-.09.29-.05.44c.05.19.27.32.46.26s.31-.26.26-.46h0Z"/>
        <path class="cls-5" d="M54.69,402.71c-.06.43.04.88.25,1.26.09.17.35.24.51.13.18-.11.23-.33.13-.51-.03-.05-.05-.1-.07-.15l.04.09c-.06-.14-.1-.3-.12-.45v.1c0-.16,0-.31.01-.47.01-.09-.05-.21-.11-.27-.07-.07-.17-.11-.27-.11s-.2.04-.27.11l-.06.08c-.03.06-.05.12-.05.19h0Z"/>
        <path class="cls-5" d="M4.55,415.37c-.05-.11.02.06-.02-.05-.01-.04-.02-.07-.04-.11s-.02-.08-.03-.11c-.02-.08,0,.03,0-.05l-.64.27s0,.01.01.03c0,.01.03.08.01.03,0,.02.01.05.02.07.02.09,0-.02,0,.03,0,.02-.01.1,0,.01,0,0-.02.05-.02.06-.02-.03.1-.13.13-.11-.02-.01-.12.02-.15.02-.04.01-.08.03-.12.05-.07.04-.13.1-.19.16-.1.12-.15.28-.15.44,0,.27.14.53.27.76s.29.44.47.63c.13.14.4.15.53,0,.14-.15.14-.38,0-.53-.04-.05-.08-.09-.12-.14-.02-.02-.03-.04-.05-.06.03.04-.01-.02-.02-.03-.07-.1-.13-.2-.19-.3-.03-.05-.05-.1-.08-.15,0-.02-.03-.08-.02-.03-.01-.03-.02-.06-.03-.09,0-.01-.02-.09-.01-.03,0-.01,0-.07,0-.07.02.02-.04.1-.01.06.02-.03-.03.03-.04.04-.02.01-.04,0-.06.02.04-.02.1,0,.15-.02.09-.02.17-.07.23-.13.1-.09.17-.23.19-.36.06-.33-.05-.63-.25-.88-.09-.12-.29-.13-.41-.08s-.24.2-.23.34c.02.25.09.48.19.71.08.18.35.24.51.13.18-.12.22-.32.13-.51h0Z"/>
        <path class="cls-5" d="M1.49,406.74c-.12-.09-.15-.2-.1-.32l.05-.06s-.11.06-.11.06c-.1.06-.18.14-.25.24-.09.14-.14.3-.17.46,0,.03-.03.08-.02.12-.02.07.01.06.11-.05.13-.06.16-.09.08-.08-.1-.02-.23.02-.32.07-.25.14-.29.44-.17.69.14.3.45.54.69.77s.45.44.6.74c.09.18.35.23.51.13.18-.11.23-.33.13-.51-.16-.32-.4-.58-.65-.83-.12-.12-.24-.23-.36-.35-.06-.06-.12-.12-.18-.19-.02-.03-.05-.05-.07-.08-.02-.02-.02-.02,0,0-.05-.1-.05-.04-.02.17l-.13.13s-.1.01-.01.02c.06,0,.12,0,.18-.03.13-.04.22-.13.29-.24.05-.09.06-.19.08-.29,0-.05.02-.09.03-.14.01-.07,0,0,.02-.06.02-.03.03-.04.01-.03-.01.02,0,.01.02-.02-.04.02.06-.03.07-.03.11-.07.21-.14.27-.26.12-.23.06-.56-.19-.68-.18-.09-.41-.05-.51.13-.1.17-.05.42.13.51h0Z"/>
      </g>
    </g>
  </g>
</svg>