<?xml version="1.0" encoding="UTF-8"?>
<svg id="Layer_2" data-name="Layer 2" xmlns="http://www.w3.org/2000/svg" viewBox="0 0 112.99 152.96">
  <defs>
    <style>
      .cls-1 {
        fill: #f7daf6;
      }

      .cls-2 {
        fill: #ef3f36;
      }

      .cls-3 {
        fill: #312f2f;
      }

      .cls-4 {
        fill: #132fba;
      }
    </style>
  </defs>
  <g id="_4" data-name="4">
    <g>
      <g>
        <path class="cls-2" d="M77.11,94.7c.27-.47.57-.96,1.05-1.18s1.21,0,1.29.52c.05.33-.15.64-.34.91-.71,1-1.42,2.01-2.12,3.01"/>
        <path class="cls-2" d="M76.65,95.01c-.35-.51-.73-1.05-1.3-1.31s-1.37-.09-1.59.5c-.23.64.34,1.27.86,1.72.72.62,1.45,1.24,2.17,1.86"/>
        <g>
          <path class="cls-2" d="M74.27,94.33c-.07.33-.03.68.11.98.06-.3.11-.6.17-.9-.13.24-.06.56.15.72,0-.25,0-.5,0-.76.11.47.22.94.33,1.42l.04-1.4.51,1.33-.23-1.44c.02.61.18,1.21.48,1.74v-.99c-.1.63.02,1.28.31,1.84.11-.53.08-1.08-.09-1.59-.06.47.05.96.3,1.37,0-.39.02-.77.03-1.16.04.42.15.84.33,1.22,0-.48.08-.96.23-1.41.02.47-.03.94-.16,1.4.16-.6.42-1.17.77-1.69-.25.45-.42.95-.5,1.47.48-.61.92-1.26,1.3-1.93l-.88,1.63c.4-.69.79-1.4,1.15-2.12-.24-.3-.83-.1-.85.28.07-.3.58-.22.68.06s-.05.6-.21.86c-.39.66-.84,1.29-1.32,1.88-.45.08-.89-.4-.78-.84s.74-.64,1.09-.36.28.94-.13,1.14"/>
          <path class="cls-2" d="M73.91,94.23c-.08.45-.03.85.15,1.27.12.29.63.21.69-.09s.11-.6.17-.9c.03-.18-.04-.37-.22-.44-.16-.06-.39-.02-.47.15-.19.4-.13.87.21,1.18.24.21.64.07.64-.27v-.76c-.25.03-.49.07-.74.1l.33,1.42c.1.42.72.31.74-.1l.04-1.4-.74.1.51,1.33c.17.45.8.28.72-.2l-.23-1.44c-.07-.42-.75-.32-.74.1.03.68.21,1.33.53,1.93.18.33.7.18.7-.19v-.99c-.01-.2-.18-.38-.39-.38-.22,0-.35.17-.38.38-.09.7.05,1.4.37,2.03.14.28.62.22.69-.09.12-.6.1-1.21-.09-1.79-.13-.42-.69-.31-.74.1-.06.54.07,1.09.35,1.56.19.33.69.18.7-.19,0-.39.02-.77.03-1.16h-.75c.05.5.17.96.38,1.41.16.35.7.16.7-.19,0-.45.08-.88.22-1.31l-.74-.1c.02.44-.03.87-.14,1.3-.13.47.6.66.72.2.16-.57.4-1.1.73-1.6l-.65-.38c-.27.49-.45,1.01-.54,1.56-.03.17.02.33.17.42.13.08.35.07.45-.06.5-.64.96-1.3,1.36-2.01l-.65-.38-.88,1.63c-.23.42.4.8.65.38.4-.69.78-1.4,1.15-2.12.08-.16.06-.33-.06-.45-.51-.55-1.42-.15-1.49.55-.04.44.61.49.74.1-.01.04-.07.06-.08.08,0,.02.02.01,0,0,.03.03.05-.01.05.05,0,.27-.2.53-.33.74-.34.54-.71,1.07-1.12,1.57l.27-.11c-.4.05-.59-.5-.15-.57.34-.06.42.41.15.57-.42.23-.04.88.38.65.64-.35.73-1.35.13-1.78s-1.51-.07-1.65.64c-.07.38.09.78.39,1.02.16.13.33.21.53.24.1.01.22.02.32-.01.15-.04.23-.17.31-.28.28-.36.55-.72.81-1.1s.54-.76.66-1.18c.14-.45,0-.94-.47-1.11-.38-.15-.81,0-.94.41l.74.1s.03-.02.08-.04c.07-.02.08-.02.12.03l-.06-.45c-.36.72-.74,1.42-1.15,2.12l.65.38.88-1.63c.23-.42-.41-.8-.65-.38-.37.64-.78,1.27-1.24,1.85l.63.36c.08-.49.23-.95.46-1.38s-.38-.78-.65-.38c-.36.55-.63,1.15-.8,1.78l.72.2c.13-.49.19-.99.17-1.5-.02-.43-.6-.5-.74-.1-.16.49-.24,1-.24,1.51l.7-.19c-.15-.32-.25-.67-.28-1.03-.05-.47-.74-.49-.75,0,0,.39-.02.77-.03,1.16l.7-.19c-.21-.37-.29-.76-.24-1.18l-.74.1c.15.45.18.93.09,1.4l.69-.09c-.26-.52-.34-1.08-.27-1.65h-.75v.99c.24-.06.48-.13.71-.19-.26-.48-.4-1-.42-1.55l-.74.1.23,1.44.72-.2-.51-1.33c-.15-.38-.72-.35-.74.1l-.04,1.4.74-.1-.33-1.42c-.1-.42-.74-.32-.74.1v.76c.21-.09.43-.18.64-.27-.07-.07-.14-.17-.09-.27l-.69-.29c-.06.3-.11.6-.17.9l.69-.09c-.09-.21-.12-.47-.08-.69.03-.2-.05-.4-.26-.46-.18-.05-.43.06-.46.26h0Z"/>
        </g>
        <g>
          <path class="cls-2" d="M75.98,94.8c-.26-.38-.68-.65-1.13-.72-.09-.01-.18-.02-.26.03-.15.1-.1.34-.02.5.19.37.46.69.72,1.01.35.42.7.85,1.05,1.27-.51-.85-1.07-1.75-1.99-2.12.28.36.6.7.95,1-.35-.34-.59-.79-.67-1.26.53.25.91.72,1.22,1.21s.56,1.02.93,1.47c.09-.22.2-.42.33-.61.29-.41.67-.75.99-1.13.42-.5.74-1.07,1.06-1.64-.64.21-1.19.65-1.63,1.16s-.79,1.09-1.14,1.67c-.09-.45-.38-.85-.78-1.07.48-.08,1,.12,1.31.5"/>
          <path class="cls-2" d="M79.78,93.81c-.21-.61-.93-.86-1.52-.73-.71.16-1.14.84-1.48,1.42,0,.01,0,.02-.01.04-.3-.42-.63-.83-1.09-1.09-.49-.28-1.09-.32-1.61-.08-.56.26-.84.87-.69,1.47.16.65.71,1.12,1.19,1.53.65.56,1.31,1.12,1.96,1.68.04.03.08.06.12.07.03.06.08.12.14.16.19.11.4.03.51-.13.52-.74,1.04-1.48,1.57-2.22.24-.34.5-.67.72-1.03.19-.32.31-.71.19-1.08Z"/>
        </g>
        <path class="cls-4" d="M30.8,71.55c4.06,6.35,11.31,9.37,18.52,10.39,7.05,1,15.09,1.19,21.63-2.03,3.67-1.81,6.59-4.78,8.34-8.48.21-.43-.44-.82-.65-.38-4.16,8.8-13.75,10.96-22.67,10.69-9.05-.27-19.3-2.38-24.53-10.57-.26-.41-.91-.03-.65.38h0Z"/>
        <path class="cls-4" d="M48.41,61.94c1.76,1.7,3.99,3.09,6.52,3.06,1.21-.01,2.43-.35,3.41-1.07s1.74-1.8,2.38-2.88c.41-.7-.67-1.33-1.08-.63-.52.89-1.09,1.78-1.92,2.42s-1.91.93-2.97.91c-2.12-.04-3.97-1.27-5.45-2.7-.58-.56-1.46.32-.88.88h0Z"/>
        <path class="cls-4" d="M49.02,62.09c.91-.6,1.8-1.28,2.76-1.8.56-.31.97-.39,1.54-.09.39.21.74.37,1.18.42.41.05.83,0,1.22-.13s.66-.45,1.02-.63c.3-.15,1.04.33,1.36.47.56.24,1.11.48,1.67.72.73.32,1.37-.76.63-1.08-.59-.26-1.18-.51-1.77-.77-.51-.22-1.06-.56-1.61-.66-.49-.09-.81.13-1.16.43-.38.33-.84.49-1.35.39s-.88-.49-1.39-.59-1.05.01-1.54.22c-1.13.49-2.17,1.34-3.2,2.02-.67.44-.04,1.52.63,1.08h0Z"/>
        <path class="cls-4" d="M49.46,62.14c.93-.18,1.92.19,2.84.31.85.11,1.71.16,2.57.11,1.79-.1,3.51-.54,5.14-1.27.73-.33.1-1.41-.63-1.08-1.59.72-3.32,1.1-5.06,1.12-.87.01-1.74-.07-2.6-.23s-1.7-.33-2.59-.16c-.79.15-.46,1.36.33,1.21h0Z"/>
        <path class="cls-3" d="M6.6,130.64c.77,4.59,1.54,9.17,2.3,13.76.13.79,1.34.46,1.21-.33-.77-4.59-1.54-9.17-2.3-13.76-.13-.79-1.34-.46-1.21.33h0Z"/>
        <path class="cls-3" d="M7.74,131.42c1.7-.65,3.41-1.3,5.11-1.96.32-.12.53-.42.44-.77-.08-.3-.45-.56-.77-.44-1.7.65-3.41,1.3-5.11,1.96-.32.12-.53.42-.44.77.08.3.45.56.77.44h0Z"/>
        <path class="cls-3" d="M8.93,139.72h0c-.06,0-.11.01-.17.02.41-.05.83-.08,1.24-.13.24-.03.48-.05.72-.1.1-.02.21-.06.3-.11.26-.15.4-.45.32-.74-.13-.47-.62-.51-1.02-.56-.15-.02-.34.08-.44.18-.11.11-.19.29-.18.44s.06.33.18.44l.13.1c.1.06.2.08.32.09.02,0,.05,0,.07,0l-.17-.02c.1.01.21.02.31.06l-.15-.06s.02,0,.03.01l-.13-.1s0,0,0,0l-.1-.13s0,0,0,0l-.06-.15s0,0,0,0l-.02-.17s0,0,0,0l.02-.17s0,0,0,0l.06-.15s0,0,0,0l.1-.13s0,0,0,0l.13-.1s-.02.01-.03.02l.15-.06c-.14.06-.31.07-.46.09l.17-.02c-.55.07-1.1.11-1.65.18-.14.02-.3.17-.37.29-.08.13-.11.33-.06.48s.14.3.29.37l.15.06c.11.03.22.03.33,0h0Z"/>
        <path class="cls-3" d="M12.77,145c2.44-1.02,4.21-3.01,4.85-5.59l-1.23-.17c.18,1.77.49,3.8,1.83,5.1s3.36,1.16,4.82.08c3.67-2.7,4.82-8.59,4.35-12.86-.17-1.53-.43-4.37-2.35-4.76-1.67-.34-2.48,1.43-2.68,2.78-.32,2.22.04,4.74.4,6.93.41,2.5,1.2,5.02,2.62,7.14,1.28,1.9,3.3,2.85,5.41,1.55s2.56-4.04,2.59-6.41h-1.25c0,2.06.29,4.56,2.17,5.8,1.42.93,3.47.96,4.58-.45.5-.62-.38-1.51-.88-.88-.87,1.09-2.47.89-3.4-.03-1.14-1.12-1.22-2.94-1.22-4.44,0-.8-1.24-.81-1.25,0-.02,2.12-.33,5-2.77,5.69s-3.86-2.86-4.49-4.65c-.73-2.06-1.07-4.24-1.22-6.42-.08-1.21-.7-4.67.75-5.3,1.68-.73,1.85,4.76,1.82,5.74-.07,2.24-.61,4.49-1.61,6.5-.82,1.66-2.69,4.58-4.95,3.5-1.59-.76-1.88-3.08-2.04-4.62-.07-.66-1.05-.9-1.23-.17-.52,2.12-1.94,3.87-3.97,4.72-.73.31-.41,1.52.33,1.21h0Z"/>
        <path class="cls-3" d="M32.34,133.85c.8,0,.81-1.25,0-1.25s-.81,1.25,0,1.25h0Z"/>
        <path class="cls-3" d="M16.23,134.63c.8,0,.81-1.25,0-1.25s-.81,1.25,0,1.25h0Z"/>
        <path class="cls-3" d="M37.83,139.32c.74,4.31,1.07,8.67.99,13.04h1.25c0-.35-.02-.71-.02-1.06-.02-.8-1.27-.81-1.25,0,0,.35.02.71.02,1.06.02.8,1.24.81,1.25,0,.08-4.48-.27-8.96-1.03-13.37-.14-.79-1.34-.46-1.21.33h0Z"/>
        <path class="cls-3" d="M39.29,140.02c.14-.85.3-2.2,1.3-2.47.8-.22,1.72.33,2.04,1.06.46,1.02.05,2.25-.57,3.1-.75,1.03-1.89,1.73-2.95,2.41-.68.43-.05,1.51.63,1.08,2.03-1.29,4.29-2.94,4.33-5.6.01-1.14-.49-2.19-1.44-2.83-.83-.56-1.95-.7-2.85-.24-1.16.59-1.5,1.98-1.69,3.16-.05.33.09.67.44.77.3.08.72-.1.77-.44h0Z"/>
        <path class="cls-3" d="M51.46,137.34c-.61-1.19-2.01-1.67-3.28-1.45-1.42.25-2.42,1.46-2.75,2.81s-.12,3.17.96,4.18,2.72.89,3.86.09c1.54-1.09,1.88-3.09,1.72-4.86l-1.23.17c.31,1.62.68,3.37,1.86,4.6,1.09,1.13,2.71,1.63,4.18,1,.74-.31.1-1.39-.63-1.08-1.08.46-2.34-.29-2.97-1.17-.76-1.07-1-2.42-1.24-3.69-.13-.68-1.29-.54-1.23.17.12,1.35,0,3.1-1.28,3.89-.47.29-1.07.45-1.62.3-.67-.19-1.01-.82-1.17-1.46-.3-1.18-.05-2.72,1.02-3.44.86-.58,2.21-.41,2.71.56.37.72,1.45.08,1.08-.63h0Z"/>
        <path class="cls-3" d="M65.15,129.24c.17,4.58.34,9.17.5,13.75.03.8,1.28.81,1.25,0-.17-4.58-.34-9.17-.5-13.75-.03-.8-1.28-.81-1.25,0h0Z"/>
        <path class="cls-3" d="M66.04,129.01c1.02,2.51,2.39,4.84,4.08,6.96.21.26.66.22.88,0,.26-.26.21-.62,0-.88-1.55-1.94-2.83-4.11-3.76-6.41-.13-.31-.42-.53-.77-.44-.3.08-.56.45-.44.77h0Z"/>
        <path class="cls-3" d="M73.24,127.94c-1.05,2.49-2.1,4.98-3.14,7.47-.13.31.14.69.44.77.36.1.64-.12.77-.44,1.05-2.49,2.1-4.98,3.14-7.47.13-.31-.14-.69-.44-.77-.36-.1-.64.12-.77.44h0Z"/>
        <path class="cls-3" d="M73.66,128.07l1.32,16.46c.06.8,1.31.8,1.25,0l-1.32-16.46c-.06-.8-1.31-.8-1.25,0h0Z"/>
        <path class="cls-3" d="M83.75,136.73c-1.44-.77-3.19-.36-4.3.81-1.25,1.3-1.3,3.23-.46,4.77.67,1.23,2.78,3.35,4.24,2.05s1.64-3.94,1.18-5.72c-.17-.66-1.3-.55-1.23.17.24,2.53,1.72,4.78,4.02,5.91.26.13.54.1.76-.1,2.04-1.91,2.92-4.72,2.4-7.45l-1.21.33c.57,1.91.55,4.31,2.14,5.74,1.19,1.08,3.01,1.49,4.28.33.59-.55-.29-1.43-.88-.88-.98.9-2.5-.06-3.06-1-.8-1.34-.82-3.05-1.26-4.52-.23-.78-1.35-.45-1.21.33.44,2.3-.37,4.65-2.08,6.24l.76-.1c-1.88-.93-3.19-2.73-3.4-4.83l-1.23.17c.32,1.26.3,3.06-.56,4.14-.25.31-.43.47-.83.28-.3-.14-.58-.34-.83-.56-.43-.37-.78-.84-1.02-1.35-.46-1.01-.42-2.21.37-3.05.71-.75,1.85-1.11,2.79-.61.71.38,1.34-.7.63-1.08h0Z"/>
        <path class="cls-3" d="M89.04,133.79c.8,0,.81-1.25,0-1.25s-.81,1.25,0,1.25h0Z"/>
        <path class="cls-3" d="M101.43,135.9c-1.07-.82-2.54-.8-3.72-.23-1.32.64-2.05,2.02-2.21,3.43s.22,2.95,1.21,3.99,2.57,1.16,3.75.29c1.55-1.15,1.74-3.09,1.81-4.87l-1.23.17c.45,1.84,1.07,4.1,2.93,5.01,1.45.71,3.51.52,4.31-1.06.36-.72-.72-1.35-1.08-.63-.55,1.08-2.07,1.02-2.95.4-1.27-.88-1.65-2.65-2-4.06-.17-.7-1.2-.52-1.23.17-.06,1.37-.11,3.1-1.4,3.94s-2.39-.34-2.74-1.55-.19-2.75.77-3.68c.85-.82,2.2-.96,3.15-.24.64.49,1.26-.6.63-1.08h0Z"/>
        <path class="cls-1" d="M41.27,53.61c3.22,0,3.22-5,0-5s-3.22,5,0,5h0Z"/>
        <path class="cls-1" d="M67.63,53.61c3.22,0,3.22-5,0-5s-3.22,5,0,5h0Z"/>
        <path class="cls-4" d="M55.4,51.87c.2.24.33.52.4.82.05.23.04.5-.09.7-.12.19-.42.26-.66.21-.11-.02-.23-.08-.29-.17-.04-.05-.06-.11-.07-.17,0-.02,0-.08.01-.1.05-.12.04-.27-.09-.34-.11-.06-.29-.03-.34.09-.14.32-.07.71.2.95s.64.29.99.23.63-.27.76-.59c.13-.29.13-.62.07-.93-.08-.39-.27-.76-.53-1.06-.09-.1-.26-.09-.35,0-.1.1-.09.25,0,.35h0Z"/>
        <path class="cls-4" d="M37.28,42.45c1.94-1.62,3.91-2.87,6.51-2.87,2.2,0,4.36.82,5.93,2.36.58.56,1.46-.32.88-.88-1.81-1.77-4.29-2.73-6.82-2.73-1.23,0-2.46.23-3.59.7-1.43.59-2.62,1.56-3.8,2.54-.62.52.27,1.4.88.88h0Z"/>
        <path class="cls-4" d="M45.85,38.98c-.3-.07-.71.09-.77.44,0,0,0,.02,0,.02-.09-.01-.19,0-.28.01-.13-.03-.26-.03-.39.02-.03,0-.05.01-.08.01-.18-.12-.43-.12-.63-.03-.02-.01-.03-.03-.05-.04-.18-.11-.4-.11-.59-.02-.15-.07-.32-.12-.5-.13-.11,0-.21.03-.29.08-.12-.14-.28-.24-.47-.23-.34.02-.62.27-.62.62-.01,1.38.22,2.91,1.5,3.69.55.34,1.29.49,1.91.24.69-.27,1.12-.83,1.38-1.5.29-.76.21-1.69.33-2.42.05-.32-.08-.69-.44-.77Z"/>
        <path class="cls-4" d="M36.89,38.77c.17.18.34.37.49.57l-.1-.13c.31.41.58.84.79,1.31.06.13.24.25.37.29.15.04.35.02.48-.06s.25-.21.29-.37c.04-.17.01-.32-.06-.48-.34-.74-.82-1.42-1.38-2-.23-.24-.66-.25-.88,0s-.24.63,0,.88h0Z"/>
        <path class="cls-4" d="M39.05,37.02c.03.89.37,1.73.96,2.4.22.25.67.24.88,0,.24-.26.23-.62,0-.88-.05-.06-.1-.12-.14-.18l.1.13c-.16-.21-.29-.43-.39-.67l.06.15c-.1-.25-.18-.51-.22-.78l.02.17c-.01-.11-.02-.22-.03-.32-.01-.33-.28-.64-.62-.62s-.64.27-.62.62h0Z"/>
        <path class="cls-4" d="M41.97,36.4c-.07.5-.07.98.03,1.48.08.44.25.87.47,1.27.16.28.57.41.86.22s.4-.55.22-.86c-.05-.08-.09-.16-.13-.24-.01-.02-.02-.05-.03-.07-.03-.06-.02-.05.02.04,0-.03-.03-.08-.04-.11-.07-.18-.12-.36-.15-.55,0-.04-.02-.09-.02-.14-.02-.13.02.15,0,0,0-.09-.02-.18-.02-.27s0-.18,0-.27c0-.05,0-.09,0-.14,0-.04.03-.23,0-.03.02-.17.03-.32-.06-.48-.08-.13-.22-.25-.37-.29-.16-.04-.34-.03-.48.06-.13.08-.27.22-.29.37h0Z"/>
        <path class="cls-4" d="M44.68,36.72l-.19,2.56c-.02.33.3.64.62.62.36-.02.6-.27.62-.62l.19-2.56c.02-.33-.3-.64-.62-.62-.36.02-.6.27-.62.62h0Z"/>
        <path class="cls-4" d="M48.34,40.12c.3-.34.58-.7.82-1.08.22-.35.4-.72.57-1.1.07-.16.11-.31.06-.48-.04-.14-.15-.3-.29-.37-.27-.14-.71-.09-.86.22-.17.37-.34.73-.55,1.07-.1.16-.2.32-.32.47-.01.02-.03.03-.04.05.11-.15.06-.07.03-.04-.03.04-.06.08-.09.11-.07.09-.15.18-.23.26-.22.24-.26.65,0,.88.24.22.65.26.88,0h0Z"/>
        <path class="cls-4" d="M57.91,42.16c1.94-1.62,3.91-2.87,6.51-2.87,2.2,0,4.36.82,5.93,2.36.58.56,1.46-.32.88-.88-1.81-1.77-4.29-2.73-6.82-2.73-1.23,0-2.46.23-3.59.7-1.43.59-2.62,1.56-3.8,2.54-.62.52.27,1.4.88.88h0Z"/>
        <path class="cls-4" d="M66.48,38.69c-.3-.07-.71.09-.77.44,0,0,0,.02,0,.02-.09-.01-.19,0-.28.01-.13-.03-.26-.03-.39.02-.03,0-.05.01-.08.01-.18-.12-.43-.12-.63-.03-.02-.01-.03-.03-.05-.04-.18-.11-.4-.11-.59-.02-.15-.07-.32-.12-.5-.13-.11,0-.21.03-.29.08-.12-.14-.28-.24-.47-.23-.34.02-.62.27-.62.62-.01,1.38.22,2.91,1.5,3.69.55.34,1.29.49,1.91.24.69-.27,1.12-.83,1.38-1.5.29-.76.21-1.69.33-2.42.05-.32-.08-.69-.44-.77Z"/>
        <path class="cls-4" d="M57.52,38.48c.17.18.34.37.49.57l-.1-.13c.31.41.58.84.79,1.31.06.13.24.25.37.29.15.04.35.02.48-.06s.25-.21.29-.37c.04-.17.01-.32-.06-.48-.34-.74-.82-1.42-1.38-2-.23-.24-.66-.25-.88,0s-.24.63,0,.88h0Z"/>
        <path class="cls-4" d="M59.68,36.74c.03.89.37,1.73.96,2.4.22.25.67.24.88,0,.24-.26.23-.62,0-.88-.05-.06-.1-.12-.14-.18l.1.13c-.16-.21-.29-.43-.39-.67l.06.15c-.1-.25-.18-.51-.22-.78l.02.17c-.01-.11-.02-.22-.03-.32-.01-.33-.28-.64-.62-.62s-.64.27-.62.62h0Z"/>
        <path class="cls-4" d="M62.6,36.12c-.07.5-.07.98.03,1.48.08.44.25.87.47,1.27.16.28.57.41.86.22s.4-.55.22-.86c-.05-.08-.09-.16-.13-.24-.01-.02-.02-.05-.03-.07-.03-.06-.02-.05.02.04,0-.03-.03-.08-.04-.11-.07-.18-.12-.36-.15-.55,0-.04-.02-.09-.02-.14-.02-.13.02.15,0,0,0-.09-.02-.18-.02-.27s0-.18,0-.27c0-.05,0-.09,0-.14,0-.04.03-.23,0-.03.02-.17.03-.32-.06-.48-.08-.13-.22-.25-.37-.29-.16-.04-.34-.03-.48.06-.13.08-.27.22-.29.37h0Z"/>
        <path class="cls-4" d="M65.31,36.44l-.19,2.56c-.02.33.3.64.62.62.36-.02.6-.27.62-.62l.19-2.56c.02-.33-.3-.64-.62-.62-.36.02-.6.27-.62.62h0Z"/>
        <path class="cls-4" d="M68.95,39.85c.3-.34.59-.71.83-1.09.22-.35.4-.73.58-1.11.07-.16.11-.31.06-.48-.04-.14-.15-.3-.29-.37-.27-.14-.71-.09-.86.22-.17.37-.35.74-.56,1.08-.1.16-.2.32-.32.47-.02.02-.03.04-.05.06-.04.06.1-.13.03-.04-.03.04-.06.08-.1.12-.07.09-.14.17-.22.25-.22.24-.26.65,0,.88.24.22.65.26.88,0h0Z"/>
        <path class="cls-4" d="M52.89,45.31l-.78,3.1c-.24.95-.65,2.01-.43,2.99.44,1.98,2.72,2.34,4.4,2.42.8.04.8-1.21,0-1.25-1.15-.06-3.3-.23-3.21-1.86.02-.39.15-.78.25-1.16l.32-1.25.67-2.65c.2-.78-1.01-1.11-1.21-.33h0Z"/>
      </g>
      <path class="cls-4" d="M112.1,98.81c-1.36-6.66-3.83-13.11-7.24-18.98-1.73-2.98-3.82-5.74-5.43-8.8-1.51-2.87-2.33-5.99-2.9-9.16-.59-3.28-.93-6.6-1.56-9.87-.64-3.3-1.68-6.42-3.15-9.44-1.52-3.12-3.26-6.11-4.68-9.27-1.42-3.16-2.66-6.4-4-9.6C78.72,13.16,71.39.58,58.48.01c-2.25-.1-4.51.28-6.55,1.19-.04-.01-.08-.03-.13-.04-6.79-1.49-13.1,2.16-18.59,5.74-4.84,3.16-9.73,6.81-12.61,11.95-3.33,5.94-2.54,12.68-3.3,19.19-.76,6.54-4.06,12.33-7.02,18.09-1.4,2.73-2.75,5.49-3.8,8.37-1.24,3.39-2.05,6.91-2.7,10.45-1.32,7.17-2.47,14.44-3.35,21.67-.77,6.32-.78,13.06,2.44,18.76,2.76,4.88,7.63,8.51,13.39,8.38,3.46-.07,6.84-1.27,10.32-1.02,3.2.23,6.2,1.61,9.17,2.69,3.01,1.09,6.05,1.76,9.26,1.73,3.27-.04,6.52-.66,9.71-1.34,3.3-.7,6.59-1.52,9.95-1.82,3.54-.32,6.85.16,10.28,1,3.27.79,6.52,1.52,9.9,1.4,3.5-.13,6.93-.95,10.25-2.03,3.25-1.06,6.52-2.24,9.62-3.68,2.67-1.24,4.98-3.08,6.37-5.71,2.6-4.94,2.06-10.88.99-16.16ZM30.56,40.49c1.84-3.8,4.34-7.28,7.44-10.2,4.82-4.53,11.13-7.66,14.82-13.24.82.89,1.44,1.96,2.14,2.94.73,1.02,1.49,2.02,2.31,2.98,1.63,1.9,3.49,3.62,5.64,4.93,2,1.23,4.23,2.07,6.57,2.35,1.12.13,2.34.14,3.5.34.17.3.34.59.49.91,2.06,4.38,2.55,9.53,2.76,14.3.13,2.83.08,5.75-.68,8.5-.67,2.44-1.7,4.91-2.79,7.19-1.08,2.28-2.46,4.52-4.57,5.98-2.05,1.41-4.41,2.52-6.74,3.36-2.42.87-4.81,1.37-7.37.95-2.86-.46-5.61-1.51-8.13-2.92-5.01-2.8-9.27-7.11-12.09-12.11-2.36-4.18-3.36-9.21-3.39-13.99,0-.76.03-1.51.1-2.27ZM93.36,110.66c-4.8,2.98-11.47,2.5-16.86,2.38-6.9-.15-13.79-.79-20.69-.77-6.06.01-12.08.76-18.13,1.07-5.64.29-11.46.23-16.83-1.71-2.34-.85-5.65-2.22-7.01-4.44-.82-1.33-.57-2.94-.28-4.39.28-1.39.62-2.76,1.02-4.11,2.6-8.87,7.64-16.95,14.37-23.25.03-.02.07-.03.1-.06,1.78-1.37,3.6-2.69,5.46-3.95.09-.06.18-.12.27-.19.09-.03.17-.07.25-.12,1.67-1.13,3.42-2.12,5.26-2.96.03-.02.06-.04.09-.06.16.13.32.27.49.4,4.63,3.53,11.1,6.67,17.08,5.8,2.86-.41,5.61-1.52,8.18-2.81,1.07-.53,2.09-1.11,3.06-1.77.09.03.18.05.27.06.13.02.26.06.39.09.07.06.15.13.25.17.51.23,1.07.56,1.64.75.1.08.21.15.34.2,5.23,2.13,9.52,5.95,13.16,10.19,1.89,2.19,3.61,4.52,5.26,6.89,1.7,2.44,3.44,4.89,4.82,7.53,2.53,4.86,3.41,11.72-1.96,15.05Z"/>
    </g>
  </g>
</svg>