<?xml version="1.0" encoding="UTF-8"?>
<svg id="Layer_2" data-name="Layer 2" xmlns="http://www.w3.org/2000/svg" viewBox="0 0 169.2 70">
  <defs>
    <style>
      .cls-1 {
        fill: #ef3f36;
      }
    </style>
  </defs>
  <g id="Texto">
    <g>
      <path class="cls-1" d="M2.17,14.53c4.57-4.09,10.3-6.45,16.14-8.08,6.51-1.82,13.26-3.03,20-3.6,12.83-1.09,26.04.48,37.52,6.59,5.84,3.11,11.03,7.31,15.11,12.54l1.22-2.09c-3.65-1.11-7.29-2.21-10.94-3.32-1.58-.48-2.1,1.81-.66,2.41,4.42,1.84,8.53,4.38,12.18,7.48.71.6,1.81.4,2.09-.55,1.22-4.22,2.44-8.44,3.66-12.66.45-1.55-1.96-2.21-2.41-.66-1.22,4.22-2.44,8.44-3.66,12.66l2.09-.55c-4-3.4-8.44-6.1-13.28-8.12l-.66,2.41c3.65,1.11,7.29,2.21,10.94,3.32,1.31.4,1.92-1.19,1.22-2.09-7.55-9.68-18.9-15.86-30.77-18.5C47.91-1.41,33.05.05,19.25,3.61,12.42,5.36,5.72,8,.4,12.76c-1.2,1.08.57,2.84,1.77,1.77h0Z"/>
      <path class="cls-1" d="M64.17,52.34c.21,5.36.89,10.7,2.01,15.95l2.71-.75c-1.04-2.86-2.07-5.75-2.58-8.76-.26-1.51-.34-3.06-.21-4.59.07-.83.14-2.54.98-3.03.94-.54,2.34.63,3,1.2.89.75,1.84,1.57,1.51,2.84-.31,1.19-1.35,2.17-2.23,2.97-1.16,1.05-2.37,2.04-3.56,3.06-1.38,1.18.62,3.16,1.99,1.99,2.11-1.81,4.83-3.61,6.08-6.17.58-1.19.82-2.54.38-3.82-.47-1.35-1.54-2.36-2.63-3.22-2.11-1.67-5.29-2.79-7.16-.13-.75,1.06-.95,2.4-1.11,3.66-.19,1.54-.15,3.1.04,4.63.44,3.5,1.58,6.82,2.78,10.13.61,1.69,3.1,1.04,2.71-.75-1.07-5.01-1.71-10.09-1.91-15.2-.07-1.8-2.88-1.81-2.81,0h0Z"/>
      <path class="cls-1" d="M77.33,52.67l1.73,7.8.86,3.9.4,1.79c.05.24.29,1.05.23,1.14l.5-.5.04-.03,1.73.98c-.93-2.99-1.54-6.06-1.77-9.18-.11-1.57-.14-3.14-.07-4.72.02-.46-.11-1.61.16-1.98.09-.12.24-.11.44-.09,2.16.16,2.65,3.39,2.44,5.04-.34,2.71-2.28,4.93-4.16,6.75-1.08,1.05.07,2.58,1.37,2.35,3.5-.61,7.51-1.24,10.57,1.01.61.45,1.57.1,1.92-.5.42-.71.11-1.47-.5-1.92-3.68-2.7-8.54-2.03-12.74-1.29l1.37,2.35c2-1.93,3.83-4.17,4.64-6.88.72-2.43.51-5.35-1.02-7.45-1.31-1.8-4.14-3.21-6.12-1.53-1.12.95-1.1,2.49-1.17,3.84-.07,1.52-.06,3.04.03,4.56.21,3.53.85,7.03,1.9,10.4.24.77.96,1.12,1.73.98,1.58-.29,1.62-2.03,1.37-3.25-.33-1.58-.7-3.14-1.04-4.71-.71-3.2-1.42-6.39-2.12-9.59-.39-1.77-3.1-1.02-2.71.75h0Z"/>
      <path class="cls-1" d="M92.83,49.41c-.1,3.11.46,6.24,1.66,9.12.61,1.46,1.34,2.85,2.25,4.14.86,1.22,1.92,2.57,3.48,2.89,3.31.68,4.73-2.9,4.95-5.54.25-3.03-.57-6.18-2.5-8.56-2.12-2.61-5.49-3.93-8.81-3.38-.75.12-1.17,1.05-.98,1.73.22.8.98,1.11,1.73.98,1.96-.32,4.01.55,5.4,1.92,1.58,1.56,2.33,3.8,2.38,5.99.03,1.01-.02,2.1-.41,3.05-.21.51-.59,1.21-1.22,1.05-.9-.23-1.62-1.56-2.07-2.27-.63-.98-1.18-2.01-1.62-3.09-1.04-2.55-1.51-5.27-1.42-8.02.06-1.81-2.75-1.81-2.81,0h0Z"/>
      <path class="cls-1" d="M107.39,47.67l3.29-.86-1.73-.98c1.77,6.45,3.5,12.91,5.17,19.38.23.9.83,1.86-.32,1.96-.85.07-1.56-.45-2.01-1.13-1.11-1.68-.69-4,.85-5.24,1.41-1.14-.59-3.12-1.99-1.99-2.38,1.92-2.88,5.5-1.55,8.18,1.21,2.43,4.48,4.03,6.93,2.3,1.53-1.08,1.34-2.79.93-4.39-.55-2.16-1.12-4.31-1.69-6.47-1.18-4.45-2.37-8.9-3.59-13.34-.2-.74-.99-1.17-1.73-.98-1.1.29-2.2.57-3.29.86-1.75.46-1.01,3.17.75,2.71h0Z"/>
      <path class="cls-1" d="M117.2,45.05c.92,5.38,1.84,10.76,2.77,16.14.12.73,1.06,1.2,1.73.98,3.33-1.07,6.55-2.45,9.63-4.11,1.59-.86.18-3.29-1.42-2.43-2.87,1.55-5.86,2.82-8.96,3.82l1.73.98c-.92-5.38-1.84-10.76-2.77-16.14-.13-.75-1.05-1.17-1.73-.98-.79.22-1.11.98-.98,1.73h0Z"/>
      <path class="cls-1" d="M122.36,51.23c1.17-.57,2.34-1.15,3.51-1.72.3-.15.56-.52.65-.84.09-.34.05-.78-.14-1.08s-.48-.56-.84-.65c-.38-.09-.73-.03-1.08.14-1.17.57-2.34,1.15-3.51,1.72-.3.15-.56.52-.65.84-.09.34-.05.78.14,1.08s.48.56.84.65c.38.09.73.03,1.08-.14h0Z"/>
      <path class="cls-1" d="M119.11,44.95c1.93-.43,3.87-.87,5.8-1.3.72-.16,1.21-1.03.98-1.73-.24-.75-.96-1.16-1.73-.98-1.93.43-3.87.87-5.8,1.3-.72.16-1.21,1.03-.98,1.73.24.75.96,1.16,1.73.98h0Z"/>
      <path class="cls-1" d="M137.01,39.24c-1.25.4-2.03,1.36-2.56,2.52-.56,1.26-1.02,2.58-1.29,3.93-.53,2.61-.39,5.33.9,7.7,1.15,2.11,3.17,3.65,5.58,3.93s4.55-.69,5.88-2.59c.44-.62.11-1.56-.5-1.92-.7-.41-1.49-.12-1.92.5-.72,1.03-2.17,1.39-3.37,1.2-1.53-.25-2.65-1.4-3.33-2.73-.79-1.54-.88-3.4-.57-5.08.2-1.08.53-2.14.92-3.16.19-.49.46-1.41,1.02-1.59,1.72-.55.98-3.26-.75-2.71h0Z"/>
      <path class="cls-1" d="M147.69,38.34c-.3,5.05.23,10.13,1.54,15.01.47,1.75,3.18,1.01,2.71-.75-1.24-4.66-1.72-9.45-1.43-14.27.11-1.81-2.71-1.8-2.81,0h0Z"/>
      <path class="cls-1" d="M143.63,39.87c3.73-.62,7.48-1.09,11.25-1.42.76-.07,1.41-.6,1.41-1.41,0-.71-.65-1.47-1.41-1.41-4.02.35-8.02.86-12,1.52-.75.12-1.17,1.05-.98,1.73.22.8.98,1.11,1.73.98h0Z"/>
      <path class="cls-1" d="M165.94,35.07c-2.02-1.08-4.55-.8-6.26.75s-2.03,4.3-.96,6.35c1.19,2.27,3.57,2.57,5.69,3.5,1.68.73,2.44,2.53,1.73,4.26-.81,1.96-3.45,2.6-5.29,1.8-.7-.3-1.51-.21-1.92.5-.35.59-.2,1.62.5,1.92,2.16.94,4.64.96,6.72-.24,1.95-1.13,3.13-3.26,3.05-5.51s-1.33-4.26-3.42-5.2c-1.69-.76-4.49-.96-4.85-3.19-.33-2.01,1.82-3.47,3.6-2.52,1.6.85,3.02-1.58,1.42-2.43h0Z"/>
    </g>
  </g>
</svg>