<svg width="498" height="105" viewBox="0 0 498 105" fill="none" xmlns="http://www.w3.org/2000/svg">
<path d="M2 7.59277C2 27.6749 3.28864 48.1323 5.95205 67.664" stroke="#132FBA" stroke-width="4" stroke-linecap="round" stroke-linejoin="round"/>
<path d="M2 4.4314C5.55941 12.4401 7.88445 20.6598 10.2554 29.0659C11.0342 31.8269 12.5998 34.0424 13.0658 36.8382" stroke="#132FBA" stroke-width="4" stroke-linecap="round" stroke-linejoin="round"/>
<path d="M19.3893 4.4314C19.3893 8.82487 17.5587 13.358 16.6229 17.6049C15.509 22.6602 13.8564 38.0627 13.8564 32.8862" stroke="#132FBA" stroke-width="4" stroke-linecap="round" stroke-linejoin="round"/>
<path d="M20.9697 3.64087C25.7638 22.817 28.9407 43.2397 30.4547 62.9217" stroke="#132FBA" stroke-width="4" stroke-linecap="round" stroke-linejoin="round"/>
<path d="M37.5693 42.3708C37.9833 45.6823 43.9956 68.9611 49.7768 61.2529C53.584 56.1766 54.1901 47.4108 53.3776 41.317C52.4731 34.5335 51.9571 42.8396 52.148 44.9177C53.0074 54.2698 55.7851 63.1438 57.0661 72.4065C57.6236 76.437 60.6182 105.757 49.9964 101.871C45.8891 100.369 43.3965 95.333 42.5753 91.3763C40.6591 82.1439 44.0293 75.3924 49.4255 68.4544" stroke="#132FBA" stroke-width="4" stroke-linecap="round" stroke-linejoin="round"/>
<path d="M86.5742 9.96424C91.8037 25.6527 97.5364 41.2739 103.173 56.7741C103.576 57.8836 104.174 54.6029 104.358 53.4368C105.316 47.3729 105.927 41.2455 106.818 35.1696C108.073 26.5985 109.688 17.9729 110.111 9.30557C110.188 7.72152 110.691 4.68848 108.706 6.01219" stroke="#132FBA" stroke-width="4" stroke-linecap="round" stroke-linejoin="round"/>
<path d="M121.352 35.2573C116.5 44.9611 117.576 61.4475 131.101 61.9996C141.464 62.4226 139.569 28.8558 120.562 37.6286" stroke="#132FBA" stroke-width="4" stroke-linecap="round" stroke-linejoin="round"/>
<path d="M158.502 37.6288C158.502 37.0033 157.93 36.9259 157.404 36.7945C151.921 35.4236 147.825 35.9119 145.812 42.02C143.739 48.3084 145.555 56.9221 152.706 59.1456C158.843 61.0538 161.233 49.4055 162.103 45.6208C163.723 38.5728 163.947 30.957 163.947 23.7527C163.947 19.3477 162.542 18.9586 162.542 23.5332C162.542 31.7756 163.996 40.257 167.109 47.9042C168.458 51.218 170.914 57.8249 175.145 58.7504C178.866 59.5644 182.006 55.1571 184.586 53.4371" stroke="#132FBA" stroke-width="4" stroke-linecap="round" stroke-linejoin="round"/>
<path d="M201.974 37.6287C197.156 32.8106 190.942 36.6852 188.274 41.932C183.447 51.4251 193.076 68.0123 201.447 55.1933C204.165 51.0311 204.273 45.3289 204.345 40.5268C204.363 39.3942 204.082 36.4887 204.521 39.473C205.37 45.2449 207.222 51.6775 210.054 56.7742C214.553 64.8729 219.878 55.8667 223.315 51.8561" stroke="#132FBA" stroke-width="4" stroke-linecap="round" stroke-linejoin="round"/>
<path d="M239.914 25.7725C237.487 25.4328 234.829 24.9536 232.449 25.8604C228.146 27.4998 231.045 40.5023 231.307 43.3372C232.379 54.8935 235.172 89.5455 235.172 77.9396" stroke="#132FBA" stroke-width="4" stroke-linecap="round" stroke-linejoin="round"/>
<path d="M224.105 48.6941C229.046 47.2826 234.087 46.5072 239.123 45.5325" stroke="#132FBA" stroke-width="4" stroke-linecap="round" stroke-linejoin="round"/>
<path d="M247.028 37.6286C247.028 43.1964 248.177 49.1012 251.068 53.9198C255.031 60.5239 259.813 60.5168 262.617 53.0855C267.288 40.7069 258.226 36.0007 247.819 35.2573" stroke="#132FBA" stroke-width="4" stroke-linecap="round" stroke-linejoin="round"/>
<path d="M274.693 40.7902C273.727 45.6208 275.276 50.4228 276.098 55.1933C276.346 56.6305 276.498 58.0914 276.888 59.4966C276.991 59.8676 277.05 58.7397 277.064 58.3549C277.266 52.6967 278.138 47.4886 280.226 42.1954C282.384 36.723 285.312 31.6975 289.755 38.9459C293.896 45.7028 292.966 54.1195 296.824 60.5505" stroke="#132FBA" stroke-width="4" stroke-linecap="round" stroke-linejoin="round"/>
<path d="M305.518 43.9519C308.704 43.9519 311.914 44.0565 315.091 43.7762C319.257 43.4086 323.933 39.7884 318.253 36.8821C308.382 31.8322 303.428 42.8673 303.981 51.5047C304.227 55.3324 306.956 59.9159 310.7 61.2531C317.619 63.7244 323.46 59.3766 329.231 56.5984" stroke="#132FBA" stroke-width="4" stroke-linecap="round" stroke-linejoin="round"/>
<path d="M373.493 42.371C375.66 42.371 370.898 39.0674 369.98 38.9459C359.267 37.528 358.251 55.8382 363.217 61.7361C370.939 70.9051 377.193 50.4789 377.664 46.2353C378.436 39.2932 377.042 41.4203 378.323 47.0257C378.972 49.8654 379.786 54.6827 382.099 56.818C384.395 58.9369 388.972 57.9632 391.672 58.1792" stroke="#132FBA" stroke-width="4" stroke-linecap="round" stroke-linejoin="round"/>
<path d="M396.416 41.5805C399.195 56.4015 402.199 71.2984 403.969 86.2826C404.632 91.898 401.813 83.3982 401.598 82.5062C399.781 74.9977 398.96 67.4295 398.831 59.7161C398.763 55.6092 398.634 31.7024 409.941 41.6244C419.943 50.4022 404.816 60.7713 398.787 65.2928" stroke="#132FBA" stroke-width="4" stroke-linecap="round" stroke-linejoin="round"/>
<path d="M423.29 40.7905C422.489 43.1932 423.121 46.3139 423.421 48.6946C424.634 58.2959 426.971 67.69 428.735 77.1933C428.952 78.3622 430.817 88.6413 429.437 81.6284C427.526 71.9139 427.29 62.0798 427.242 52.2075C427.228 49.3465 426.102 42.9992 428.252 40.527C431.187 37.1518 438.261 37.4629 440.283 41.5809C444.355 49.8693 437.662 66.5934 428.822 69.2453" stroke="#132FBA" stroke-width="4" stroke-linecap="round" stroke-linejoin="round"/>
<g clip-path="url(#clip0_520_31)">
<path d="M482.378 1.40318C477.439 -0.0093993 472.213 -0.563352 467.191 0.719972C462.759 1.84634 458.946 4.54225 456.121 8.11524C450.268 15.5013 448.043 26.4972 451.976 35.2589C456.26 44.8146 467.191 48.8585 477.088 47.8429C482.074 47.3351 487.512 45.9964 490.78 41.9064C492.359 39.9306 493.513 37.5948 494.519 35.2958C495.636 32.7661 496.477 30.1349 496.837 27.3836C498.24 16.6461 492.424 5.62245 482.369 1.39395C481.686 1.10774 481.391 2.22488 482.065 2.51109C490.559 6.07485 495.849 14.9289 495.895 24.0321C495.923 29.1193 494.168 33.9017 491.74 38.3149C490.549 40.4845 489.091 42.4788 486.958 43.799C484.825 45.1193 482.462 45.7563 480.089 46.2364C470.745 48.0922 459.906 45.6917 454.404 37.2993C449.354 29.5901 450.609 18.9358 455.263 11.3466C457.737 7.31201 461.374 3.86827 465.908 2.30797C471.161 0.498391 476.802 1.00618 482.065 2.52032C482.775 2.72343 483.089 1.61553 482.369 1.40318H482.378Z" fill="#312F2F"/>
<path d="M482.6 1.6987C478.556 0.978561 474.789 2.17879 471.216 4.03453C468.308 5.54867 465.649 7.58906 463.646 10.2111C460.1 14.8551 459.26 20.7916 460.322 26.4419C460.968 29.8672 462.205 33.4033 464.938 35.7114C467.274 37.6779 470.321 38.6566 473.349 38.6843C480.107 38.7397 485.887 33.8464 487.087 27.199C488.334 20.2561 483.57 11.5775 475.842 11.716L476.396 12.4454C477.448 8.66927 479.138 5.17014 482.6 3.07435C483.237 2.68658 482.656 1.68947 482.018 2.07723C478.298 4.32997 476.424 8.06915 475.288 12.1407C475.186 12.5008 475.473 12.8793 475.842 12.8701C482.259 12.7593 486.524 19.6468 486.136 25.5464C485.73 31.843 480.717 37.0686 474.411 37.5025C471.623 37.6964 468.77 37.0409 466.462 35.4344C463.673 33.5048 462.362 30.3288 461.642 27.1251C460.525 22.1672 460.857 16.8493 463.526 12.4269C465.197 9.65715 467.653 7.45057 470.413 5.80718C473.986 3.67446 478.085 2.05877 482.295 2.81584C483.025 2.94509 483.33 1.83719 482.6 1.6987Z" fill="#312F2F"/>
<path d="M481.455 1.80948L474.844 0.544617L468.178 1.0801L460.525 4.57001L456.49 8.5677L452.178 15.8983L450.396 25.3525L451.347 31.7599L453.693 37.7333L458.124 42.2111L464.079 45.6641L470.976 47.4459L477.429 47.2336L484.012 45.8118L489.256 43.0697L493.079 37.4656L495.71 30.2549L496.476 23.109L495.377 16.8585L493.005 11.4944L488.942 6.27803L485.776 3.79447L482.276 2.40036L478.98 5.4748L475.888 12.1315L479.322 12.8701L483.089 15.5106L485.536 19.3421L486.745 24.2353L486.145 28.6485L484.04 32.8308L480.688 36.0345L475.094 38.0195L469.139 37.4194L464.836 34.8528L461.402 29.4979L460.441 22.2226L461.272 16.0553L464.079 10.5804L467.274 7.30284L470.237 5.24398L475.223 2.90815L481.455 1.80948Z" fill="#312F2F"/>
</g>
<defs>
<clipPath id="clip0_520_31">
<rect width="47.049" height="48" fill="white" transform="translate(450)"/>
</clipPath>
</defs>
</svg>
